<svg xmlns="http://www.w3.org/2000/svg" width="621" height="588" fill="none"><path stroke="#FF3800" stroke-width="4.169" d="M236.486 154.265c-33.389 0-60.456-27.067-60.456-60.455V0"/><g filter="url(#a)"><path fill="#fff" d="M232 133.847c0-11.514 9.333-20.847 20.847-20.847h284.306c11.514 0 20.847 9.333 20.847 20.847v41.306c0 11.514-9.333 20.847-20.847 20.847H252.847C241.333 196 232 186.667 232 175.153v-41.306Z"/></g><path fill="#4D4A4A" d="M250.694 132.219h3.127v10.406c0 .601.025 1.209.075 1.826.067.618.234 1.176.501 1.677.283.483.7.883 1.25 1.2.567.317 1.36.476 2.377.476 1.017 0 1.801-.159 2.351-.476.567-.317.984-.717 1.251-1.2a4.01 4.01 0 0 0 .501-1.677c.066-.617.1-1.225.1-1.826v-10.406h3.127v11.432c0 1.151-.175 2.151-.526 3.002-.35.85-.85 1.568-1.501 2.151-.633.567-1.401.993-2.301 1.276-.901.284-1.901.425-3.002.425-1.101 0-2.101-.141-3.002-.425-.901-.283-1.676-.709-2.326-1.276a5.959 5.959 0 0 1-1.476-2.151c-.351-.851-.526-1.851-.526-3.002v-11.432Zm17.353 4.928h2.677v2.501h.05c.083-.35.242-.692.475-1.025.251-.334.542-.634.876-.901.35-.283.734-.508 1.151-.675.417-.167.842-.25 1.275-.25.334 0 .559.008.676.025l.4.05v2.751a7.375 7.375 0 0 0-.625-.075c-.2-.033-.4-.05-.601-.05-.483 0-.942.1-1.375.301a2.968 2.968 0 0 0-1.101.85c-.317.367-.567.826-.751 1.376-.183.55-.275 1.184-.275 1.901v6.154h-2.852v-12.933Zm20.252 12.258c0 1.951-.55 3.402-1.651 4.352-1.084.968-2.651 1.451-4.703 1.451-.65 0-1.309-.066-1.976-.2a5.984 5.984 0 0 1-1.801-.675 4.392 4.392 0 0 1-1.351-1.251c-.367-.517-.584-1.151-.65-1.901h2.851c.084.4.226.725.426.975.2.251.433.442.7.576.284.15.592.242.926.275.333.05.683.075 1.05.075 1.151 0 1.993-.284 2.527-.851s.801-1.384.801-2.451v-1.976h-.051c-.4.717-.95 1.275-1.651 1.676-.683.4-1.425.6-2.226.6-1.034 0-1.918-.175-2.652-.525a5.363 5.363 0 0 1-1.801-1.476 6.373 6.373 0 0 1-1.025-2.177 10.195 10.195 0 0 1-.326-2.626c0-.867.134-1.693.401-2.477a6.159 6.159 0 0 1 1.15-2.051 5.471 5.471 0 0 1 1.826-1.426c.734-.35 1.56-.525 2.477-.525.817 0 1.568.175 2.251.525.684.333 1.21.867 1.576 1.601h.051v-1.776h2.851v12.258Zm-6.329-1.576c.634 0 1.168-.125 1.601-.376a3.16 3.16 0 0 0 1.076-1.025c.284-.434.484-.918.6-1.451a6.963 6.963 0 0 0 .201-1.651c0-.551-.067-1.084-.201-1.601a4.129 4.129 0 0 0-.625-1.376 2.837 2.837 0 0 0-1.076-.951c-.433-.233-.959-.35-1.576-.35-.633 0-1.167.133-1.601.4a3.16 3.16 0 0 0-1.05 1.051 4.34 4.34 0 0 0-.576 1.451 7.455 7.455 0 0 0-.175 1.601 6.3 6.3 0 0 0 .2 1.576c.134.5.334.951.601 1.351.283.4.633.725 1.05.975.434.251.951.376 1.551.376Zm17.581-5.354a4.362 4.362 0 0 0-.3-1.301 3.036 3.036 0 0 0-.651-1.075 2.834 2.834 0 0 0-1-.751c-.384-.2-.818-.3-1.301-.3-.501 0-.959.092-1.376.275-.4.167-.751.409-1.051.726a3.74 3.74 0 0 0-.7 1.075 3.961 3.961 0 0 0-.275 1.351h6.654Zm-6.654 1.876c0 .501.066.984.2 1.451.15.467.367.876.65 1.226.284.35.642.634 1.076.851.433.2.95.3 1.551.3.834 0 1.501-.175 2.001-.525.517-.367.901-.909 1.151-1.627h2.702a5.398 5.398 0 0 1-.776 1.877 5.602 5.602 0 0 1-1.326 1.401 5.65 5.65 0 0 1-1.751.825c-.634.2-1.301.3-2.001.3-1.017 0-1.918-.166-2.702-.5a5.714 5.714 0 0 1-2.001-1.401c-.534-.6-.942-1.317-1.226-2.151-.267-.834-.4-1.751-.4-2.752 0-.917.142-1.785.425-2.602.3-.834.717-1.559 1.251-2.176a6.033 6.033 0 0 1 1.976-1.501c.767-.367 1.635-.55 2.602-.55 1.017 0 1.926.216 2.727.65a5.858 5.858 0 0 1 2.026 1.676 6.672 6.672 0 0 1 1.151 2.427c.25.9.316 1.834.2 2.801h-9.506Zm11.173-7.204h2.702v1.901l.05.05a4.685 4.685 0 0 1 1.701-1.676 4.464 4.464 0 0 1 2.327-.625c1.417 0 2.535.366 3.352 1.1.817.734 1.226 1.835 1.226 3.302v8.881h-2.852v-8.13c-.034-1.017-.25-1.751-.651-2.202-.4-.466-1.025-.7-1.876-.7-.483 0-.917.092-1.301.275a2.634 2.634 0 0 0-.975.726c-.267.3-.476.658-.626 1.075-.15.417-.225.859-.225 1.326v7.63h-2.852v-12.933Zm12.564 0h2.151v-3.878h2.852v3.878h2.577v2.126h-2.577v6.905c0 .3.008.558.025.775.033.217.092.4.175.55.1.151.242.267.425.351.184.066.434.1.751.1h.6c.2-.017.401-.05.601-.1v2.201c-.317.033-.626.067-.926.1-.3.033-.609.05-.925.05-.751 0-1.36-.067-1.827-.2-.45-.15-.808-.359-1.075-.625a2.411 2.411 0 0 1-.526-1.051 8.786 8.786 0 0 1-.15-1.426v-7.63h-2.151v-2.126Zm15.593 0h2.677v2.501h.05c.083-.35.242-.692.475-1.025.25-.334.542-.634.876-.901a4.45 4.45 0 0 1 1.15-.675c.417-.167.843-.25 1.276-.25.334 0 .559.008.676.025l.4.05v2.751a7.4 7.4 0 0 0-.626-.075c-.2-.033-.4-.05-.6-.05-.484 0-.942.1-1.376.301a2.957 2.957 0 0 0-1.1.85c-.317.367-.568.826-.751 1.376-.183.55-.275 1.184-.275 1.901v6.154h-2.852v-12.933Zm16.735 5.328a4.332 4.332 0 0 0-.3-1.301 3.049 3.049 0 0 0-.65-1.075 2.838 2.838 0 0 0-1.001-.751 2.77 2.77 0 0 0-1.301-.3c-.5 0-.959.092-1.376.275-.4.167-.75.409-1.05.726-.284.3-.517.658-.701 1.075a3.985 3.985 0 0 0-.275 1.351h6.654Zm-6.654 1.876c0 .501.067.984.2 1.451.15.467.367.876.651 1.226.283.35.642.634 1.075.851.434.2.951.3 1.551.3.834 0 1.501-.175 2.002-.525.517-.367.9-.909 1.15-1.627h2.702a5.397 5.397 0 0 1-.775 1.877 5.602 5.602 0 0 1-1.326 1.401 5.66 5.66 0 0 1-1.751.825c-.634.2-1.301.3-2.002.3-1.017 0-1.918-.166-2.701-.5a5.727 5.727 0 0 1-2.002-1.401 6.192 6.192 0 0 1-1.225-2.151c-.267-.834-.401-1.751-.401-2.752 0-.917.142-1.785.426-2.602.3-.834.717-1.559 1.25-2.176a6.037 6.037 0 0 1 1.977-1.501c.767-.367 1.634-.55 2.601-.55 1.018 0 1.926.216 2.727.65a5.849 5.849 0 0 1 2.026 1.676 6.656 6.656 0 0 1 1.151 2.427c.25.9.317 1.834.2 2.801h-9.506Zm11.174-7.204h2.702v1.901l.05.05a4.67 4.67 0 0 1 1.701-1.676 4.46 4.46 0 0 1 2.326-.625c1.418 0 2.535.366 3.352 1.1.817.734 1.226 1.835 1.226 3.302v8.881h-2.852v-8.13c-.033-1.017-.25-1.751-.65-2.202-.4-.466-1.026-.7-1.876-.7-.484 0-.918.092-1.301.275a2.629 2.629 0 0 0-.976.726 3.25 3.25 0 0 0-.625 1.075c-.15.417-.225.859-.225 1.326v7.63h-2.852v-12.933Zm12.563 0h2.152v-3.878h2.852v3.878h2.576v2.126h-2.576v6.905c0 .3.008.558.025.775.033.217.091.4.175.55.1.151.241.267.425.351.183.066.434.1.75.1h.601c.2-.017.4-.05.6-.1v2.201c-.317.033-.625.067-.925.1-.301.033-.609.05-.926.05-.75 0-1.359-.067-1.826-.2-.45-.15-.809-.359-1.076-.625a2.41 2.41 0 0 1-.525-1.051 8.568 8.568 0 0 1-.15-1.426v-7.63h-2.152v-2.126Zm19.963 10.056c0 .35.042.601.125.751.1.15.284.225.551.225h.3c.117 0 .25-.017.4-.05v1.976c-.1.033-.233.067-.4.1a4.809 4.809 0 0 1-.976.2 4.256 4.256 0 0 1-.425.025c-.584 0-1.067-.116-1.451-.35-.383-.233-.634-.642-.75-1.226-.567.551-1.268.951-2.102 1.201a8.104 8.104 0 0 1-2.376.375 5.574 5.574 0 0 1-1.676-.25 4.503 4.503 0 0 1-1.426-.675 3.725 3.725 0 0 1-.976-1.176c-.233-.484-.35-1.042-.35-1.676 0-.801.142-1.451.425-1.951a3.37 3.37 0 0 1 1.151-1.176 5.1 5.1 0 0 1 1.601-.6 16.83 16.83 0 0 1 1.801-.301c.517-.1 1.009-.166 1.476-.2a7.35 7.35 0 0 0 1.226-.225c.367-.1.65-.25.85-.45.217-.217.326-.534.326-.951 0-.367-.092-.667-.276-.9a1.538 1.538 0 0 0-.65-.526 2.303 2.303 0 0 0-.851-.25 5.777 5.777 0 0 0-.9-.075c-.801 0-1.459.167-1.976.5-.517.334-.809.851-.876 1.551h-2.852c.05-.834.25-1.526.601-2.076.35-.55.792-.992 1.325-1.326a5.623 5.623 0 0 1 1.852-.7c.683-.134 1.384-.2 2.101-.2a8.81 8.81 0 0 1 1.876.2c.617.133 1.168.35 1.651.65.501.3.901.692 1.201 1.176.3.467.45 1.042.45 1.726v6.654Zm-2.852-3.602c-.433.283-.967.459-1.601.525-.633.05-1.267.134-1.901.25-.3.05-.592.126-.875.226a2.254 2.254 0 0 0-.751.375c-.217.15-.392.358-.525.625-.117.25-.175.559-.175.926 0 .317.091.584.275.8.183.217.4.392.65.526.267.116.551.2.851.25.317.05.6.075.85.075a4.67 4.67 0 0 0 1.026-.125 3.279 3.279 0 0 0 1.026-.425 2.77 2.77 0 0 0 .825-.751c.217-.317.325-.7.325-1.151v-2.126Zm5.496-11.382h2.851v17.861h-2.851v-17.861Zm11.92 4.928h2.677v2.501h.05c.084-.35.242-.692.476-1.025a4.97 4.97 0 0 1 .875-.901c.35-.283.734-.508 1.151-.675.417-.167.842-.25 1.276-.25.333 0 .558.008.675.025l.4.05v2.751a7.375 7.375 0 0 0-.625-.075c-.2-.033-.4-.05-.6-.05-.484 0-.943.1-1.376.301a2.968 2.968 0 0 0-1.101.85c-.317.367-.567.826-.751 1.376-.183.55-.275 1.184-.275 1.901v6.154h-2.852v-12.933Zm16.736 5.328a4.393 4.393 0 0 0-.3-1.301 3.05 3.05 0 0 0-.651-1.075 2.834 2.834 0 0 0-1-.751c-.384-.2-.818-.3-1.301-.3-.501 0-.959.092-1.376.275-.4.167-.751.409-1.051.726a3.74 3.74 0 0 0-.7 1.075 3.961 3.961 0 0 0-.275 1.351h6.654Zm-6.654 1.876c0 .501.066.984.2 1.451.15.467.367.876.65 1.226.284.35.642.634 1.076.851.433.2.95.3 1.551.3.834 0 1.501-.175 2.001-.525.517-.367.901-.909 1.151-1.627h2.701a5.378 5.378 0 0 1-.775 1.877 5.602 5.602 0 0 1-1.326 1.401 5.66 5.66 0 0 1-1.751.825c-.634.2-1.301.3-2.001.3-1.018 0-1.918-.166-2.702-.5a5.714 5.714 0 0 1-2.001-1.401 6.178 6.178 0 0 1-1.226-2.151c-.267-.834-.4-1.751-.4-2.752 0-.917.141-1.785.425-2.602.3-.834.717-1.559 1.251-2.176a6.033 6.033 0 0 1 1.976-1.501c.767-.367 1.634-.55 2.602-.55 1.017 0 1.926.216 2.726.65a5.852 5.852 0 0 1 2.027 1.676 6.67 6.67 0 0 1 1.15 2.427c.251.9.317 1.834.201 2.801h-9.506Zm23.356 10.507h-2.852v-6.454h-.05a4.37 4.37 0 0 1-.825.926 4.932 4.932 0 0 1-2.252.975 6.32 6.32 0 0 1-1.251.125c-.95 0-1.776-.183-2.476-.55a5.447 5.447 0 0 1-1.751-1.501 7.08 7.08 0 0 1-1.026-2.176 9.81 9.81 0 0 1-.325-2.527c0-.951.125-1.843.375-2.677a6.276 6.276 0 0 1 1.126-2.176 5.098 5.098 0 0 1 1.876-1.476c.767-.367 1.659-.55 2.677-.55.834 0 1.609.166 2.326.5.717.317 1.276.85 1.676 1.601h.05v-1.751h2.702v17.711Zm-9.956-11.232c0 .567.058 1.126.175 1.676.133.534.342 1.017.625 1.451.3.417.676.759 1.126 1.026.45.266 1.001.4 1.651.4 1.234 0 2.143-.417 2.727-1.251.6-.85.9-1.951.9-3.302 0-1.418-.308-2.535-.925-3.352-.601-.817-1.501-1.226-2.702-1.226-.584 0-1.101.133-1.551.4-.45.25-.826.592-1.126 1.026-.3.417-.525.901-.675 1.451a6.436 6.436 0 0 0-.225 1.701Zm23.923 6.454h-2.802v-1.801h-.05c-.35.65-.875 1.176-1.576 1.576-.683.384-1.384.575-2.101.575-1.701 0-2.935-.417-3.702-1.25-.751-.851-1.126-2.127-1.126-3.828v-8.205h2.852v7.93c0 1.134.217 1.934.65 2.401.434.467 1.043.701 1.826.701.601 0 1.101-.092 1.501-.275.401-.184.726-.426.976-.726a2.81 2.81 0 0 0 .525-1.125c.117-.434.175-.901.175-1.401v-7.505h2.852v12.933Zm11.388-7.605a4.332 4.332 0 0 0-.3-1.301 3.036 3.036 0 0 0-.651-1.075 2.834 2.834 0 0 0-1-.751c-.384-.2-.817-.3-1.301-.3-.5 0-.959.092-1.376.275-.4.167-.75.409-1.051.726a3.74 3.74 0 0 0-.7 1.075 3.961 3.961 0 0 0-.275 1.351h6.654Zm-6.654 1.876c0 .501.066.984.2 1.451.15.467.367.876.65 1.226.284.35.642.634 1.076.851.434.2.951.3 1.551.3.834 0 1.501-.175 2.001-.525.517-.367.901-.909 1.151-1.627h2.702a5.38 5.38 0 0 1-.776 1.877 5.602 5.602 0 0 1-1.326 1.401 5.65 5.65 0 0 1-1.751.825c-.634.2-1.301.3-2.001.3-1.017 0-1.918-.166-2.702-.5a5.714 5.714 0 0 1-2.001-1.401c-.534-.6-.942-1.317-1.226-2.151-.267-.834-.4-1.751-.4-2.752 0-.917.142-1.785.425-2.602.3-.834.717-1.559 1.251-2.176a6.033 6.033 0 0 1 1.976-1.501c.767-.367 1.635-.55 2.602-.55 1.017 0 1.926.216 2.727.65a5.858 5.858 0 0 1 2.026 1.676 6.672 6.672 0 0 1 1.151 2.427c.25.9.317 1.834.2 2.801h-9.506Zm13.325 1.576c.083.834.4 1.418.95 1.752.551.333 1.21.5 1.977.5.267 0 .567-.017.9-.05.35-.05.676-.134.976-.25.3-.117.542-.284.725-.501.2-.233.292-.533.276-.9a1.264 1.264 0 0 0-.401-.901c-.25-.233-.575-.417-.975-.55a7.936 7.936 0 0 0-1.326-.375c-.501-.1-1.009-.209-1.526-.326a14.83 14.83 0 0 1-1.551-.425 5.242 5.242 0 0 1-1.326-.675 3.215 3.215 0 0 1-.926-1.076c-.233-.45-.35-1.001-.35-1.651 0-.7.167-1.284.5-1.751a3.92 3.92 0 0 1 1.301-1.151 5.616 5.616 0 0 1 1.751-.625 10.48 10.48 0 0 1 1.852-.175c.667 0 1.3.075 1.901.225a4.845 4.845 0 0 1 1.651.675c.5.317.909.734 1.226 1.251.333.5.542 1.109.625 1.826h-2.977c-.133-.684-.45-1.142-.95-1.376-.484-.233-1.043-.35-1.677-.35-.2 0-.441.017-.725.05-.267.033-.525.1-.775.2a1.476 1.476 0 0 0-.601.4c-.167.167-.25.392-.25.676 0 .35.117.634.35.85.25.217.567.401.951.551.4.133.85.25 1.351.35.5.1 1.017.208 1.551.325.517.117 1.025.259 1.526.425.5.167.942.392 1.326.676.4.283.717.642.95 1.076.25.433.375.967.375 1.601 0 .767-.175 1.417-.525 1.951-.35.534-.809.967-1.376 1.301a6.046 6.046 0 0 1-1.851.725 9.435 9.435 0 0 1-2.026.225 8.943 8.943 0 0 1-2.277-.275 5.584 5.584 0 0 1-1.801-.825 4.416 4.416 0 0 1-1.201-1.401c-.283-.567-.433-1.234-.45-2.002h2.852Zm9.019-8.78h2.152v-3.878h2.852v3.878h2.576v2.126h-2.576v6.905c0 .3.008.558.025.775.033.217.091.4.175.55.1.151.242.267.425.351.183.066.434.1.751.1h.6c.2-.017.4-.05.6-.1v2.201c-.317.033-.625.067-.925.1-.3.033-.609.05-.926.05-.75 0-1.359-.067-1.826-.2-.45-.15-.809-.359-1.076-.625a2.41 2.41 0 0 1-.525-1.051 8.676 8.676 0 0 1-.15-1.426v-7.63h-2.152v-2.126Z"/><rect width="87.556" height="25.016" x="248.993" y="162.604" fill="#FFD3CF" rx="12.508"/><path fill="#FB1500" d="M274.355 172.746h-1.662a2.041 2.041 0 0 0-.262-.724 1.936 1.936 0 0 0-1.124-.875 2.52 2.52 0 0 0-.777-.116c-.494 0-.933.125-1.315.373-.382.246-.681.607-.897 1.084-.216.474-.324 1.053-.324 1.737 0 .696.108 1.282.324 1.759.219.474.518.832.897 1.075.382.24.819.359 1.311.359.272 0 .527-.035.764-.106.24-.074.454-.182.644-.324a1.975 1.975 0 0 0 .759-1.235l1.662.009a3.582 3.582 0 0 1-.405 1.217 3.589 3.589 0 0 1-.804 1.004 3.705 3.705 0 0 1-1.163.675c-.445.16-.938.24-1.479.24-.8 0-1.514-.186-2.141-.556-.628-.37-1.123-.904-1.484-1.603s-.542-1.537-.542-2.514c0-.98.182-1.818.546-2.514.365-.699.861-1.234 1.488-1.604.628-.37 1.339-.555 2.133-.555.506 0 .977.071 1.412.213.435.142.823.351 1.164.627.34.272.62.607.839 1.003.222.394.367.844.436 1.351Zm1.509 6.027v-9.097h3.411c.699 0 1.285.122 1.759.365.477.243.836.583 1.079 1.021.246.436.369.943.369 1.524 0 .583-.125 1.09-.373 1.519a2.469 2.469 0 0 1-1.088.99c-.48.231-1.069.347-1.768.347h-2.43v-1.368h2.208c.408 0 .743-.056 1.003-.169.261-.115.453-.283.578-.502.127-.222.191-.494.191-.817 0-.323-.064-.598-.191-.826a1.21 1.21 0 0 0-.582-.524c-.261-.122-.597-.183-1.008-.183h-1.51v7.72h-1.648Zm4.699-4.122 2.252 4.122h-1.839l-2.212-4.122h1.799Zm5.084-4.975v9.097h-1.648v-9.097h1.648Zm1.384 1.382v-1.382h7.258v1.382h-2.811v7.715h-1.635v-7.715h-2.812Zm10.305-1.382v9.097h-1.648v-9.097h1.648Zm9.571 3.07h-1.661a2.08 2.08 0 0 0-.262-.724 1.968 1.968 0 0 0-.475-.542 1.986 1.986 0 0 0-.649-.333 2.53 2.53 0 0 0-.777-.116 2.36 2.36 0 0 0-1.315.373c-.382.246-.681.607-.897 1.084-.216.474-.325 1.053-.325 1.737 0 .696.109 1.282.325 1.759.219.474.518.832.897 1.075.382.24.819.359 1.31.359.273 0 .527-.035.764-.106.24-.074.455-.182.644-.324.193-.143.354-.317.484-.525.134-.207.226-.444.276-.71l1.661.009a3.58 3.58 0 0 1-.404 1.217 3.589 3.589 0 0 1-.804 1.004c-.332.287-.72.512-1.164.675-.444.16-.937.24-1.479.24-.799 0-1.513-.186-2.141-.556-.628-.37-1.122-.904-1.483-1.603-.362-.699-.542-1.537-.542-2.514 0-.98.182-1.818.546-2.514.364-.699.86-1.234 1.488-1.604.628-.37 1.338-.555 2.132-.555.506 0 .977.071 1.413.213a3.6 3.6 0 0 1 1.163.627c.341.272.621.607.84 1.003.222.394.367.844.435 1.351Zm2.567 6.027h-1.759l3.203-9.097h2.034l3.207 9.097H314.4l-2.429-7.231h-.071l-2.426 7.231Zm.058-3.567h4.797v1.324h-4.797v-1.324Zm7.825 3.567v-9.097h1.648v7.716h4.007v1.381h-5.655Z"/><path stroke="#FF3800" stroke-width="4.169" d="M236.486 271.007c-33.389 0-60.456-27.067-60.456-60.456V31.27m60.456 475.304c-33.389 0-60.456 27.067-60.456 60.455v16.678M239 388H0"/><g filter="url(#b)"><path fill="#fff" d="M232 249.847c0-11.514 9.333-20.847 20.847-20.847h284.306c11.514 0 20.847 9.333 20.847 20.847v42.306c0 11.514-9.333 20.847-20.847 20.847H252.847C241.333 313 232 303.667 232 292.153v-42.306Z"/></g><path fill="#4D4A4A" d="M250.894 248.96h12.859v2.702h-9.732v4.678h9.006v2.551h-9.006v5.229h9.907v2.701h-13.034V248.96Zm27.04 22.639h-2.852v-6.454h-.05c-.234.35-.509.659-.826.926a4.932 4.932 0 0 1-2.251.975 6.32 6.32 0 0 1-1.251.126c-.95 0-1.776-.184-2.476-.551a5.439 5.439 0 0 1-1.752-1.501 7.079 7.079 0 0 1-1.025-2.176 9.805 9.805 0 0 1-.325-2.527c0-.95.125-1.843.375-2.677a6.268 6.268 0 0 1 1.126-2.176 5.09 5.09 0 0 1 1.876-1.476c.767-.367 1.659-.55 2.676-.55.834 0 1.61.167 2.327.5.717.317 1.276.851 1.676 1.601h.05v-1.751h2.702v17.711Zm-9.957-11.232c0 .567.059 1.126.175 1.676.134.534.342 1.018.626 1.451.3.417.675.759 1.126 1.026.45.267 1 .4 1.651.4 1.234 0 2.143-.417 2.726-1.251.601-.85.901-1.951.901-3.302 0-1.417-.309-2.535-.926-3.352-.6-.817-1.501-1.226-2.701-1.226-.584 0-1.101.134-1.551.4a3.319 3.319 0 0 0-1.126 1.026c-.3.417-.525.901-.675 1.451a6.395 6.395 0 0 0-.226 1.701Zm23.924 6.454h-2.802v-1.801h-.05c-.35.651-.876 1.176-1.576 1.576-.684.384-1.384.576-2.101.576-1.701 0-2.936-.417-3.703-1.251-.75-.851-1.125-2.127-1.125-3.828v-8.205h2.851v7.93c0 1.134.217 1.935.651 2.402.433.467 1.042.7 1.826.7.6 0 1.101-.092 1.501-.275.4-.184.725-.425.976-.726.25-.316.425-.692.525-1.125.117-.434.175-.901.175-1.401v-7.505h2.852v12.933Zm2.582-17.861h2.852v2.702h-2.852v-2.702Zm0 4.928h2.852v12.933h-2.852v-12.933Zm5.534 0h2.702v1.751h.05c.4-.75.959-1.284 1.676-1.601a5.453 5.453 0 0 1 2.326-.5c1.017 0 1.901.183 2.652.55.767.35 1.401.842 1.901 1.476.5.617.876 1.343 1.126 2.176.25.834.375 1.727.375 2.677 0 .867-.117 1.71-.35 2.527a6.397 6.397 0 0 1-1.026 2.176 5.183 5.183 0 0 1-1.726 1.501c-.7.367-1.526.551-2.477.551a6.31 6.31 0 0 1-1.25-.126 4.919 4.919 0 0 1-1.201-.35 5.345 5.345 0 0 1-1.076-.625 3.844 3.844 0 0 1-.8-.926h-.05v6.454h-2.852v-17.711Zm9.956 6.479c0-.584-.075-1.151-.225-1.701a4.477 4.477 0 0 0-.675-1.451 3.337 3.337 0 0 0-1.126-1.026c-.45-.266-.967-.4-1.551-.4-1.201 0-2.11.417-2.727 1.251-.6.834-.9 1.943-.9 3.327 0 .651.075 1.259.225 1.826.166.551.408 1.026.725 1.426.317.4.692.717 1.126.951.45.233.967.35 1.551.35.65 0 1.201-.133 1.651-.4.45-.267.817-.609 1.101-1.026.3-.433.508-.917.625-1.451.133-.55.2-1.109.2-1.676Zm4.761-6.479h2.702v1.801h.075c.217-.317.45-.609.701-.875.25-.267.525-.492.825-.676a4.16 4.16 0 0 1 1.076-.425c.4-.117.859-.175 1.376-.175.784 0 1.509.175 2.176.525.684.35 1.168.892 1.451 1.626.484-.667 1.042-1.192 1.676-1.576.634-.383 1.426-.575 2.377-.575 1.367 0 2.426.333 3.177 1 .767.668 1.15 1.785 1.15 3.353v8.93h-2.851v-7.555c0-.517-.017-.984-.05-1.4-.034-.434-.134-.801-.301-1.101a1.553 1.553 0 0 0-.7-.726c-.317-.166-.751-.25-1.301-.25-.967 0-1.668.3-2.101.901-.434.6-.651 1.451-.651 2.551v7.58h-2.852v-8.305c0-.901-.166-1.576-.5-2.026-.317-.467-.909-.701-1.776-.701-.367 0-.725.075-1.076.225a2.82 2.82 0 0 0-.9.651c-.25.283-.459.634-.626 1.05a4.2 4.2 0 0 0-.225 1.426v7.68h-2.852v-12.933Zm30.148 5.328a4.358 4.358 0 0 0-.301-1.3 3.039 3.039 0 0 0-.65-1.076 2.829 2.829 0 0 0-1.001-.751c-.383-.2-.817-.3-1.3-.3-.501 0-.959.092-1.376.275a3.042 3.042 0 0 0-1.051.726c-.284.3-.517.659-.7 1.076a3.975 3.975 0 0 0-.276 1.35h6.655Zm-6.655 1.877c0 .5.067.984.2 1.451.151.467.367.875.651 1.225.283.351.642.634 1.076.851.433.2.95.3 1.551.3.833 0 1.501-.175 2.001-.525.517-.367.9-.909 1.151-1.626h2.701c-.15.7-.408 1.326-.775 1.876a5.602 5.602 0 0 1-1.326 1.401 5.637 5.637 0 0 1-1.751.825c-.634.2-1.301.301-2.001.301-1.018 0-1.918-.167-2.702-.501a5.688 5.688 0 0 1-2.001-1.401 6.178 6.178 0 0 1-1.226-2.151c-.267-.834-.4-1.751-.4-2.752 0-.917.141-1.784.425-2.602.3-.833.717-1.559 1.251-2.176a6.033 6.033 0 0 1 1.976-1.501c.767-.367 1.634-.55 2.602-.55 1.017 0 1.926.217 2.726.65a5.861 5.861 0 0 1 2.027 1.676c.533.701.917 1.51 1.15 2.427.25.9.317 1.834.2 2.802h-9.506Zm11.174-7.205h2.702v1.901l.05.05a4.67 4.67 0 0 1 1.701-1.676 4.46 4.46 0 0 1 2.326-.625c1.418 0 2.535.367 3.353 1.101.817.733 1.225 1.834 1.225 3.302v8.88h-2.851v-8.13c-.034-1.017-.251-1.751-.651-2.201-.4-.467-1.026-.701-1.876-.701-.484 0-.917.092-1.301.275a2.637 2.637 0 0 0-.976.726c-.266.3-.475.659-.625 1.076-.15.416-.225.858-.225 1.325v7.63h-2.852v-12.933Zm12.564 0h2.151v-3.877h2.852v3.877h2.576v2.126h-2.576v6.905c0 .3.008.558.025.775.033.217.092.401.175.551.1.15.242.266.425.35.184.067.434.1.751.1h.6c.2-.017.4-.05.6-.1v2.201l-.925.1c-.3.034-.609.05-.926.05-.75 0-1.359-.066-1.826-.2-.45-.15-.809-.358-1.076-.625a2.41 2.41 0 0 1-.525-1.051 8.786 8.786 0 0 1-.15-1.426v-7.63h-2.151v-2.126Zm15.668-4.928h2.852v6.604h.05c.2-.317.442-.6.725-.85.284-.251.592-.459.926-.626.35-.183.709-.317 1.075-.4.384-.1.759-.15 1.126-.15 1.017 0 1.901.183 2.652.55.767.35 1.401.842 1.901 1.476.5.617.876 1.343 1.126 2.176.25.834.375 1.727.375 2.677 0 .867-.117 1.71-.35 2.527a6.397 6.397 0 0 1-1.026 2.176 5.183 5.183 0 0 1-1.726 1.501c-.7.367-1.526.551-2.477.551-.433 0-.875-.034-1.325-.101a4.595 4.595 0 0 1-2.352-.975 3.233 3.233 0 0 1-.8-1.051h-.05v1.776h-2.702V248.96Zm9.956 11.407c0-.584-.075-1.151-.225-1.701a4.477 4.477 0 0 0-.675-1.451 3.337 3.337 0 0 0-1.126-1.026c-.45-.266-.967-.4-1.551-.4-1.201 0-2.11.417-2.727 1.251-.6.834-.9 1.943-.9 3.327 0 .651.075 1.259.225 1.826.166.551.408 1.026.725 1.426.317.4.692.717 1.126.951.45.233.967.35 1.551.35.65 0 1.201-.133 1.651-.4.45-.267.817-.609 1.101-1.026.3-.433.508-.917.625-1.451.133-.55.2-1.109.2-1.676Zm4.761-6.479h2.677v2.502h.05c.084-.351.242-.692.475-1.026.251-.334.542-.634.876-.901.35-.283.734-.508 1.151-.675.417-.167.842-.25 1.276-.25.333 0 .558.008.675.025l.4.05v2.752a6.64 6.64 0 0 0-.625-.075c-.2-.034-.4-.05-.601-.05-.483 0-.942.1-1.375.3a2.979 2.979 0 0 0-1.101.85c-.317.367-.567.826-.751 1.376-.183.55-.275 1.184-.275 1.901v6.154h-2.852v-12.933Zm16.736 5.328a4.387 4.387 0 0 0-.3-1.3 3.055 3.055 0 0 0-.651-1.076 2.829 2.829 0 0 0-1.001-.751c-.383-.2-.817-.3-1.3-.3-.501 0-.959.092-1.376.275-.4.167-.751.409-1.051.726-.283.3-.517.659-.7 1.076a3.975 3.975 0 0 0-.276 1.35h6.655Zm-6.655 1.877c0 .5.067.984.201 1.451.15.467.367.875.65 1.225.284.351.642.634 1.076.851.433.2.95.3 1.551.3.834 0 1.501-.175 2.001-.525.517-.367.901-.909 1.151-1.626h2.701c-.15.7-.408 1.326-.775 1.876a5.602 5.602 0 0 1-1.326 1.401 5.637 5.637 0 0 1-1.751.825c-.634.2-1.301.301-2.001.301-1.018 0-1.918-.167-2.702-.501a5.688 5.688 0 0 1-2.001-1.401 6.178 6.178 0 0 1-1.226-2.151c-.267-.834-.4-1.751-.4-2.752 0-.917.141-1.784.425-2.602.3-.833.717-1.559 1.251-2.176a6.033 6.033 0 0 1 1.976-1.501c.767-.367 1.634-.55 2.602-.55 1.017 0 1.926.217 2.726.65a5.852 5.852 0 0 1 2.027 1.676c.533.701.917 1.51 1.15 2.427.251.9.317 1.834.201 2.802h-9.507Zm22.006 2.851c0 .351.042.601.125.751.1.15.284.225.551.225h.3c.117 0 .25-.017.4-.05v1.976c-.1.034-.233.067-.4.1a4.75 4.75 0 0 1-.976.2 4.31 4.31 0 0 1-.425.026c-.584 0-1.067-.117-1.451-.351-.384-.233-.634-.642-.751-1.225-.567.55-1.267.95-2.101 1.2a8.106 8.106 0 0 1-2.376.376 5.575 5.575 0 0 1-1.676-.251 4.503 4.503 0 0 1-1.426-.675 3.712 3.712 0 0 1-.976-1.176c-.233-.483-.35-1.042-.35-1.676 0-.8.142-1.451.425-1.951.3-.5.684-.892 1.151-1.176a5.114 5.114 0 0 1 1.601-.6c.6-.134 1.201-.234 1.801-.3a12.402 12.402 0 0 1 1.476-.201 7.37 7.37 0 0 0 1.226-.225c.367-.1.65-.25.85-.45.217-.217.325-.534.325-.951 0-.367-.091-.667-.275-.9a1.544 1.544 0 0 0-.65-.526 2.322 2.322 0 0 0-.851-.25 5.787 5.787 0 0 0-.9-.075c-.801 0-1.46.167-1.977.501-.517.333-.808.85-.875 1.551h-2.852c.05-.834.25-1.526.6-2.077.351-.55.793-.992 1.326-1.326a5.626 5.626 0 0 1 1.851-.7 10.99 10.99 0 0 1 2.102-.2c.634 0 1.259.067 1.876.2s1.167.35 1.651.65c.5.301.901.692 1.201 1.176.3.467.45 1.042.45 1.726v6.654Zm-2.852-3.602c-.433.284-.967.459-1.601.525a18.78 18.78 0 0 0-1.901.251c-.3.05-.592.125-.875.225a2.254 2.254 0 0 0-.751.375c-.217.15-.392.359-.525.625-.117.251-.175.559-.175.926 0 .317.091.584.275.801.183.216.4.391.65.525.267.117.551.2.851.25.317.05.6.075.85.075a4.67 4.67 0 0 0 1.026-.125 3.255 3.255 0 0 0 1.026-.425c.333-.2.608-.451.825-.751.217-.317.325-.7.325-1.15v-2.127Zm5.495-11.382h2.852v10.156l5.154-5.228h3.502l-4.953 4.753 5.428 8.18h-3.477l-3.953-6.279-1.701 1.651v4.628h-2.852V248.96Zm25.044 17.861h-2.702v-1.751h-.05c-.383.751-.942 1.293-1.676 1.626a5.8 5.8 0 0 1-2.326.476c-1.017 0-1.91-.176-2.677-.526a5.475 5.475 0 0 1-1.876-1.476 6.276 6.276 0 0 1-1.126-2.176 9.631 9.631 0 0 1-.375-2.727c0-1.167.158-2.176.475-3.027.317-.85.734-1.551 1.251-2.101a4.877 4.877 0 0 1 1.801-1.201 5.668 5.668 0 0 1 2.077-.4c.4 0 .808.041 1.225.125.417.067.818.183 1.201.35.384.167.734.384 1.051.651.333.25.609.55.825.9h.05v-6.604h2.852v17.861Zm-9.956-6.329c0 .551.067 1.093.2 1.626.15.534.367 1.009.65 1.426.301.417.676.751 1.126 1.001.45.25.984.375 1.601.375.634 0 1.176-.133 1.626-.4a3.248 3.248 0 0 0 1.126-1.051c.3-.433.517-.917.65-1.451.15-.55.225-1.109.225-1.676 0-1.434-.325-2.551-.975-3.352-.634-.801-1.501-1.201-2.602-1.201-.667 0-1.234.142-1.701.426-.45.266-.825.625-1.126 1.075a4.68 4.68 0 0 0-.625 1.501 8.167 8.167 0 0 0-.175 1.701Zm18.495 6.68c-1.034 0-1.96-.167-2.777-.501a6.196 6.196 0 0 1-2.051-1.426 6.279 6.279 0 0 1-1.276-2.151c-.284-.834-.425-1.751-.425-2.752 0-.984.141-1.893.425-2.727.3-.833.725-1.551 1.276-2.151a5.923 5.923 0 0 1 2.051-1.401c.817-.35 1.743-.525 2.777-.525s1.951.175 2.752.525c.817.334 1.501.801 2.051 1.401.567.6.992 1.318 1.276 2.151.3.834.45 1.743.45 2.727 0 1.001-.15 1.918-.45 2.752a5.814 5.814 0 0 1-1.276 2.151c-.55.601-1.234 1.076-2.051 1.426-.801.334-1.718.501-2.752.501Zm0-2.252c.634 0 1.184-.133 1.651-.4.467-.267.85-.617 1.151-1.051.3-.433.517-.917.65-1.451a6.254 6.254 0 0 0 0-3.327 4.111 4.111 0 0 0-.65-1.451 3.497 3.497 0 0 0-1.151-1.051c-.467-.266-1.017-.4-1.651-.4-.634 0-1.184.134-1.651.4a3.487 3.487 0 0 0-1.151 1.051c-.3.417-.525.901-.675 1.451a6.956 6.956 0 0 0 0 3.327c.15.534.375 1.018.675 1.451.3.434.684.784 1.151 1.051.467.267 1.017.4 1.651.4Zm7.224-11.032h3.027l2.526 9.656h.05l2.427-9.656h2.877l2.326 9.656h.05l2.627-9.656h2.902l-4.053 12.933h-2.927l-2.401-9.606h-.05l-2.377 9.606h-3.002l-4.002-12.933Zm20.146 0h2.701v1.901l.05.05a4.68 4.68 0 0 1 1.702-1.676 4.458 4.458 0 0 1 2.326-.625c1.418 0 2.535.367 3.352 1.101.817.733 1.226 1.834 1.226 3.302v8.88h-2.852v-8.13c-.033-1.017-.25-1.751-.65-2.201-.401-.467-1.026-.701-1.876-.701-.484 0-.918.092-1.301.275a2.629 2.629 0 0 0-.976.726c-.267.3-.475.659-.625 1.076-.15.416-.225.858-.225 1.325v7.63h-2.852v-12.933Z"/><rect width="87.556" height="25.016" x="248.993" y="279.345" fill="#FFD3CF" rx="12.508"/><path fill="#FB1500" d="M274.355 289.487h-1.662a2.048 2.048 0 0 0-.262-.724 1.936 1.936 0 0 0-1.124-.875 2.52 2.52 0 0 0-.777-.115c-.494 0-.933.124-1.315.373-.382.246-.681.607-.897 1.084-.216.473-.324 1.052-.324 1.736 0 .696.108 1.282.324 1.759.219.474.518.832.897 1.075.382.24.819.36 1.311.36.272 0 .527-.036.764-.107.24-.074.454-.182.644-.324a1.973 1.973 0 0 0 .759-1.235l1.662.009a3.582 3.582 0 0 1-.405 1.217 3.575 3.575 0 0 1-1.967 1.679c-.445.16-.938.24-1.479.24-.8 0-1.514-.185-2.141-.555-.628-.37-1.123-.905-1.484-1.604-.361-.699-.542-1.537-.542-2.514 0-.98.182-1.818.546-2.514.365-.699.861-1.233 1.488-1.603.628-.37 1.339-.555 2.133-.555.506 0 .977.071 1.412.213.435.142.823.351 1.164.626.34.272.62.607.839 1.004.222.394.367.844.436 1.35Zm1.509 6.028v-9.097h3.411c.699 0 1.285.121 1.759.364.477.243.836.583 1.079 1.022.246.435.369.943.369 1.523 0 .584-.125 1.09-.373 1.519a2.465 2.465 0 0 1-1.088.991c-.48.231-1.069.346-1.768.346h-2.43v-1.368h2.208c.408 0 .743-.056 1.003-.169.261-.115.453-.282.578-.501.127-.223.191-.495.191-.818 0-.322-.064-.598-.191-.826a1.21 1.21 0 0 0-.582-.524c-.261-.121-.597-.182-1.008-.182h-1.51v7.72h-1.648Zm4.699-4.122 2.252 4.122h-1.839l-2.212-4.122h1.799Zm5.084-4.975v9.097h-1.648v-9.097h1.648Zm1.384 1.381v-1.381h7.258v1.381h-2.811v7.716h-1.635v-7.716h-2.812Zm10.305-1.381v9.097h-1.648v-9.097h1.648Zm9.571 3.069h-1.661a2.088 2.088 0 0 0-.262-.724 1.968 1.968 0 0 0-.475-.542 1.986 1.986 0 0 0-.649-.333 2.53 2.53 0 0 0-.777-.115c-.495 0-.933.124-1.315.373-.382.246-.681.607-.897 1.084-.216.473-.325 1.052-.325 1.736 0 .696.109 1.282.325 1.759.219.474.518.832.897 1.075.382.24.819.36 1.31.36.273 0 .527-.036.764-.107.24-.074.455-.182.644-.324.193-.142.354-.317.484-.524.134-.207.226-.444.276-.711l1.661.009a3.58 3.58 0 0 1-.404 1.217 3.575 3.575 0 0 1-.804 1.004c-.332.287-.72.512-1.164.675-.444.16-.937.24-1.479.24-.799 0-1.513-.185-2.141-.555-.628-.37-1.122-.905-1.483-1.604-.362-.699-.542-1.537-.542-2.514 0-.98.182-1.818.546-2.514.364-.699.86-1.233 1.488-1.603.628-.37 1.338-.555 2.132-.555.506 0 .977.071 1.413.213.435.142.823.351 1.163.626.341.272.621.607.84 1.004.222.394.367.844.435 1.35Zm2.567 6.028h-1.759l3.203-9.097h2.034l3.207 9.097H314.4l-2.429-7.232h-.071l-2.426 7.232Zm.058-3.567h4.797v1.324h-4.797v-1.324Zm7.825 3.567v-9.097h1.648v7.715h4.007v1.382h-5.655Z"/><g filter="url(#c)"><path fill="#fff" d="M232 366.847c0-11.514 9.333-20.847 20.847-20.847h284.306c11.514 0 20.847 9.333 20.847 20.847v41.306c0 11.514-9.333 20.847-20.847 20.847H252.847C241.333 429 232 419.667 232 408.153v-41.306Z"/></g><path fill="#4D4A4A" d="M250.769 365.701h3.302l8.156 13.158h.05v-13.158h2.977v17.861h-3.303l-8.13-13.133h-.075v13.133h-2.977v-17.861Zm26.159 10.257a4.325 4.325 0 0 0-.3-1.301 3.04 3.04 0 0 0-.651-1.076 2.81 2.81 0 0 0-1-.75 2.773 2.773 0 0 0-1.301-.301c-.5 0-.959.092-1.376.276-.4.166-.75.408-1.051.725-.283.3-.517.659-.7 1.076a3.956 3.956 0 0 0-.275 1.351h6.654Zm-6.654 1.876c0 .5.066.984.2 1.451.15.467.367.875.65 1.226.284.35.642.633 1.076.85.434.2.951.3 1.551.3.834 0 1.501-.175 2.001-.525.517-.367.901-.909 1.151-1.626h2.702c-.15.7-.409 1.326-.776 1.876a5.602 5.602 0 0 1-1.326 1.401c-.517.367-1.1.642-1.751.826-.633.2-1.301.3-2.001.3-1.017 0-1.918-.167-2.702-.501a5.698 5.698 0 0 1-2.001-1.4c-.534-.601-.942-1.318-1.226-2.152-.267-.834-.4-1.751-.4-2.752 0-.917.142-1.784.425-2.601.3-.834.717-1.56 1.251-2.177a6.047 6.047 0 0 1 1.976-1.501c.767-.367 1.635-.55 2.602-.55 1.017 0 1.926.217 2.727.65a5.858 5.858 0 0 1 2.026 1.676 6.68 6.68 0 0 1 1.151 2.427c.25.901.317 1.835.2 2.802h-9.506Zm9.998-7.205h3.027l2.526 9.656h.05l2.427-9.656h2.877l2.326 9.656h.05l2.627-9.656h2.902l-4.053 12.933h-2.927l-2.401-9.606h-.05l-2.377 9.606h-3.002l-4.002-12.933Zm28.759 8.781c.084.834.4 1.417.951 1.751.55.334 1.209.5 1.976.5.267 0 .567-.016.901-.05.35-.05.675-.133.975-.25.3-.117.542-.283.726-.5.2-.234.292-.534.275-.901a1.26 1.26 0 0 0-.4-.9c-.251-.234-.576-.417-.976-.551a7.936 7.936 0 0 0-1.326-.375c-.5-.1-1.009-.208-1.526-.325a15.337 15.337 0 0 1-1.551-.425 5.245 5.245 0 0 1-1.326-.676 3.203 3.203 0 0 1-.925-1.076c-.234-.45-.35-1-.35-1.651 0-.7.166-1.284.5-1.751.35-.483.784-.867 1.301-1.15a5.6 5.6 0 0 1 1.751-.626 10.46 10.46 0 0 1 1.851-.175c.667 0 1.301.075 1.901.225a4.858 4.858 0 0 1 1.651.676c.501.316.909.733 1.226 1.25.334.501.542 1.109.625 1.827h-2.976c-.134-.684-.451-1.143-.951-1.376-.484-.234-1.042-.351-1.676-.351-.2 0-.442.017-.726.05a3.16 3.16 0 0 0-.775.201 1.456 1.456 0 0 0-.601.4c-.166.167-.25.392-.25.675 0 .351.117.634.351.851.25.217.567.4.95.55.4.134.851.25 1.351.35.5.1 1.017.209 1.551.326.517.116 1.026.258 1.526.425.5.167.942.392 1.326.675.4.284.717.642.95 1.076.251.434.376.967.376 1.601 0 .767-.175 1.418-.526 1.951-.35.534-.808.968-1.376 1.301a6.047 6.047 0 0 1-1.851.726 9.428 9.428 0 0 1-2.026.225 8.98 8.98 0 0 1-2.276-.275 5.591 5.591 0 0 1-1.802-.826c-.5-.384-.9-.851-1.2-1.401-.284-.567-.434-1.234-.451-2.001h2.852Zm19.201-3.452a4.325 4.325 0 0 0-.3-1.301 3.053 3.053 0 0 0-.65-1.076 2.823 2.823 0 0 0-1.001-.75 2.773 2.773 0 0 0-1.301-.301c-.5 0-.959.092-1.376.276-.4.166-.75.408-1.05.725-.284.3-.517.659-.701 1.076a3.98 3.98 0 0 0-.275 1.351h6.654Zm-6.654 1.876c0 .5.067.984.2 1.451.15.467.367.875.651 1.226.283.35.642.633 1.075.85.434.2.951.3 1.551.3.834 0 1.501-.175 2.002-.525.517-.367.9-.909 1.15-1.626h2.702c-.15.7-.409 1.326-.775 1.876a5.602 5.602 0 0 1-1.326 1.401 5.662 5.662 0 0 1-1.751.826c-.634.2-1.301.3-2.002.3-1.017 0-1.918-.167-2.701-.501a5.711 5.711 0 0 1-2.002-1.4 6.223 6.223 0 0 1-1.226-2.152c-.266-.834-.4-1.751-.4-2.752 0-.917.142-1.784.425-2.601a6.85 6.85 0 0 1 1.251-2.177 6.05 6.05 0 0 1 1.977-1.501c.767-.367 1.634-.55 2.601-.55 1.018 0 1.926.217 2.727.65a5.849 5.849 0 0 1 2.026 1.676c.534.701.918 1.51 1.151 2.427.25.901.317 1.835.2 2.802h-9.506Zm11.174-7.205h2.676v2.502h.051c.083-.35.241-.692.475-1.026.25-.333.542-.634.875-.9a4.447 4.447 0 0 1 1.151-.676c.417-.167.842-.25 1.276-.25.333 0 .559.008.675.025l.401.05v2.752a6.662 6.662 0 0 0-.626-.075c-.2-.034-.4-.05-.6-.05-.484 0-.942.1-1.376.3a2.979 2.979 0 0 0-1.101.85c-.317.367-.567.826-.75 1.376-.184.551-.275 1.184-.275 1.902v6.153h-2.852v-12.933Zm7.018 0h3.102l3.277 9.932h.05l3.152-9.932h2.952l-4.628 12.933h-3.202l-4.703-12.933Zm13.823-4.928h2.852v2.702h-2.852v-2.702Zm0 4.928h2.852v12.933h-2.852v-12.933Zm14.189 4.328c-.116-.801-.442-1.401-.975-1.801-.517-.417-1.176-.626-1.977-.626-.366 0-.758.067-1.175.201-.417.116-.801.35-1.151.7-.35.334-.642.809-.876 1.426-.233.6-.35 1.392-.35 2.376 0 .534.059 1.068.175 1.601a4.78 4.78 0 0 0 .601 1.426 3.51 3.51 0 0 0 1.075 1.026c.434.25.959.375 1.576.375.834 0 1.518-.258 2.052-.775.55-.517.892-1.243 1.025-2.177h2.852c-.267 1.685-.909 2.977-1.926 3.878-1.001.884-2.335 1.326-4.003 1.326-1.017 0-1.917-.167-2.701-.501a5.975 5.975 0 0 1-1.952-1.4 6.249 6.249 0 0 1-1.225-2.127 8.49 8.49 0 0 1-.401-2.652c0-.967.134-1.876.401-2.726a6.113 6.113 0 0 1 1.2-2.202 5.473 5.473 0 0 1 1.977-1.476c.8-.367 1.734-.55 2.801-.55.751 0 1.46.1 2.127.3a5.289 5.289 0 0 1 1.801.851c.534.383.967.867 1.301 1.451.333.583.533 1.275.6 2.076h-2.852Zm13.551 1.001a4.357 4.357 0 0 0-.301-1.301 3.039 3.039 0 0 0-.65-1.076 2.815 2.815 0 0 0-1.001-.75 2.769 2.769 0 0 0-1.3-.301c-.501 0-.959.092-1.376.276a3.026 3.026 0 0 0-1.051.725c-.284.3-.517.659-.7 1.076a3.98 3.98 0 0 0-.276 1.351h6.655Zm-6.655 1.876c0 .5.067.984.201 1.451.15.467.366.875.65 1.226.283.35.642.633 1.076.85.433.2.95.3 1.551.3.833 0 1.501-.175 2.001-.525.517-.367.9-.909 1.151-1.626h2.701c-.15.7-.408 1.326-.775 1.876a5.602 5.602 0 0 1-1.326 1.401 5.662 5.662 0 0 1-1.751.826c-.634.2-1.301.3-2.001.3-1.018 0-1.918-.167-2.702-.501a5.698 5.698 0 0 1-2.001-1.4 6.192 6.192 0 0 1-1.226-2.152c-.267-.834-.4-1.751-.4-2.752 0-.917.141-1.784.425-2.601.3-.834.717-1.56 1.251-2.177a6.047 6.047 0 0 1 1.976-1.501c.767-.367 1.634-.55 2.602-.55 1.017 0 1.926.217 2.726.65a5.861 5.861 0 0 1 2.027 1.676c.533.701.917 1.51 1.15 2.427.25.901.317 1.835.2 2.802h-9.506Zm17.636-7.205h2.677v2.502h.05c.083-.35.242-.692.475-1.026.25-.333.542-.634.876-.9a4.43 4.43 0 0 1 1.151-.676c.417-.167.842-.25 1.275-.25.334 0 .559.008.676.025l.4.05v2.752a6.64 6.64 0 0 0-.625-.075c-.2-.034-.401-.05-.601-.05-.483 0-.942.1-1.376.3a2.984 2.984 0 0 0-1.1.85c-.317.367-.567.826-.751 1.376-.183.551-.275 1.184-.275 1.902v6.153h-2.852v-12.933Zm16.736 5.329a4.357 4.357 0 0 0-.301-1.301 3.053 3.053 0 0 0-.65-1.076 2.815 2.815 0 0 0-1.001-.75 2.77 2.77 0 0 0-1.301-.301c-.5 0-.958.092-1.375.276a3.026 3.026 0 0 0-1.051.725c-.284.3-.517.659-.701 1.076a4.004 4.004 0 0 0-.275 1.351h6.655Zm-6.655 1.876c0 .5.067.984.2 1.451.151.467.367.875.651 1.226.283.35.642.633 1.076.85.433.2.95.3 1.551.3.833 0 1.501-.175 2.001-.525.517-.367.9-.909 1.151-1.626h2.701c-.15.7-.408 1.326-.775 1.876a5.602 5.602 0 0 1-1.326 1.401 5.662 5.662 0 0 1-1.751.826c-.634.2-1.301.3-2.001.3-1.018 0-1.918-.167-2.702-.501a5.698 5.698 0 0 1-2.001-1.4 6.192 6.192 0 0 1-1.226-2.152c-.267-.834-.401-1.751-.401-2.752 0-.917.142-1.784.426-2.601.3-.834.717-1.56 1.251-2.177a6.047 6.047 0 0 1 1.976-1.501c.767-.367 1.634-.55 2.601-.55 1.018 0 1.927.217 2.727.65a5.861 5.861 0 0 1 2.027 1.676c.533.701.917 1.51 1.15 2.427.25.901.317 1.835.2 2.802h-9.506Zm23.357 10.507H422.9v-6.455h-.05a4.35 4.35 0 0 1-.826.926c-.316.25-.667.459-1.05.625a4.978 4.978 0 0 1-1.201.351 6.395 6.395 0 0 1-1.251.125c-.95 0-1.776-.184-2.476-.551a5.435 5.435 0 0 1-1.751-1.501 7.047 7.047 0 0 1-1.026-2.176 9.8 9.8 0 0 1-.325-2.527c0-.95.125-1.842.375-2.676.25-.834.625-1.56 1.126-2.177a5.11 5.11 0 0 1 1.876-1.476c.767-.367 1.659-.55 2.677-.55.833 0 1.609.167 2.326.5.717.317 1.276.851 1.676 1.601h.05v-1.751h2.702v17.712Zm-9.957-11.233c0 .567.059 1.126.176 1.676a4.69 4.69 0 0 0 .625 1.451c.3.417.675.759 1.126 1.026.45.267 1 .4 1.651.4 1.234 0 2.143-.417 2.727-1.251.6-.85.9-1.951.9-3.302 0-1.417-.308-2.535-.925-3.352-.601-.817-1.501-1.226-2.702-1.226-.584 0-1.101.134-1.551.401-.45.25-.826.592-1.126 1.025-.3.417-.525.901-.675 1.451a6.447 6.447 0 0 0-.226 1.701Zm23.924 6.454h-2.802v-1.801h-.05c-.35.651-.875 1.176-1.576 1.576-.684.384-1.384.576-2.101.576-1.701 0-2.935-.417-3.703-1.251-.75-.851-1.125-2.126-1.125-3.828v-8.205h2.852v7.93c0 1.134.216 1.935.65 2.402.434.467 1.042.7 1.826.7.601 0 1.101-.091 1.501-.275.4-.183.726-.425.976-.725.25-.317.425-.692.525-1.126.117-.434.175-.901.175-1.401v-7.505h2.852v12.933Zm11.388-7.604a4.386 4.386 0 0 0-.3-1.301 3.055 3.055 0 0 0-.651-1.076 2.815 2.815 0 0 0-1.001-.75 2.769 2.769 0 0 0-1.3-.301c-.501 0-.959.092-1.376.276-.4.166-.751.408-1.051.725-.283.3-.517.659-.7 1.076a3.98 3.98 0 0 0-.276 1.351h6.655Zm-6.655 1.876c0 .5.067.984.201 1.451.15.467.367.875.65 1.226.284.35.642.633 1.076.85.433.2.95.3 1.551.3.834 0 1.501-.175 2.001-.525.517-.367.901-.909 1.151-1.626h2.701c-.15.7-.408 1.326-.775 1.876a5.602 5.602 0 0 1-1.326 1.401 5.662 5.662 0 0 1-1.751.826c-.634.2-1.301.3-2.001.3-1.018 0-1.918-.167-2.702-.501a5.698 5.698 0 0 1-2.001-1.4 6.192 6.192 0 0 1-1.226-2.152c-.267-.834-.4-1.751-.4-2.752 0-.917.141-1.784.425-2.601.3-.834.717-1.56 1.251-2.177a6.047 6.047 0 0 1 1.976-1.501c.767-.367 1.634-.55 2.602-.55 1.017 0 1.926.217 2.726.65a5.852 5.852 0 0 1 2.027 1.676c.533.701.917 1.51 1.15 2.427.251.901.317 1.835.201 2.802h-9.507Zm13.326 1.576c.083.834.4 1.417.95 1.751.551.334 1.209.5 1.976.5.267 0 .568-.016.901-.05.35-.05.675-.133.976-.25.3-.117.542-.283.725-.5.2-.234.292-.534.275-.901a1.255 1.255 0 0 0-.4-.9c-.25-.234-.575-.417-.976-.551a7.896 7.896 0 0 0-1.325-.375c-.501-.1-1.009-.208-1.526-.325a15.337 15.337 0 0 1-1.551-.425 5.212 5.212 0 0 1-1.326-.676 3.205 3.205 0 0 1-.926-1.076c-.233-.45-.35-1-.35-1.651 0-.7.167-1.284.5-1.751a3.917 3.917 0 0 1 1.301-1.15 5.608 5.608 0 0 1 1.751-.626 10.478 10.478 0 0 1 1.851-.175c.668 0 1.301.075 1.902.225a4.867 4.867 0 0 1 1.651.676c.5.316.909.733 1.225 1.25.334.501.542 1.109.626 1.827h-2.977c-.133-.684-.45-1.143-.951-1.376-.483-.234-1.042-.351-1.676-.351-.2 0-.442.017-.725.05a3.156 3.156 0 0 0-.776.201 1.46 1.46 0 0 0-.6.4c-.167.167-.25.392-.25.675 0 .351.117.634.35.851.25.217.567.4.951.55.4.134.85.25 1.35.35.501.1 1.018.209 1.551.326.517.116 1.026.258 1.526.425a4.73 4.73 0 0 1 1.326.675c.401.284.717.642.951 1.076.25.434.375.967.375 1.601 0 .767-.175 1.418-.525 1.951-.35.534-.809.968-1.376 1.301a6.047 6.047 0 0 1-1.851.726 9.437 9.437 0 0 1-2.027.225 8.98 8.98 0 0 1-2.276-.275 5.586 5.586 0 0 1-1.801-.826 4.416 4.416 0 0 1-1.201-1.401c-.283-.567-.434-1.234-.45-2.001h2.852Zm9.019-8.781h2.152v-3.877h2.851v3.877h2.577v2.127H471.8v6.904c0 .3.009.559.025.776.034.216.092.4.176.55.1.15.241.267.425.35.183.067.433.1.75.1h.601c.2-.017.4-.05.6-.1v2.201c-.317.034-.625.067-.926.101-.3.033-.608.05-.925.05-.751 0-1.359-.067-1.826-.201-.451-.15-.809-.358-1.076-.625a2.404 2.404 0 0 1-.525-1.051 8.568 8.568 0 0 1-.15-1.426v-7.629h-2.152v-2.127Z"/><rect width="87.556" height="25.016" x="248.993" y="396.087" fill="#FFE4C6" rx="12.508"/><path fill="#FB8200" d="M266.568 403.159h2.017l2.7 6.592h.107l2.7-6.592h2.017v9.097h-1.581v-6.25h-.085l-2.514 6.223h-1.181l-2.514-6.236h-.085v6.263h-1.581v-9.097Zm11.336 9.097v-9.097h5.916v1.382h-4.269v2.469h3.962v1.382h-3.962v2.482h4.304v1.382h-5.951Zm10.68 0h-3.083v-9.097h3.145c.903 0 1.679.182 2.327.546a3.656 3.656 0 0 1 1.502 1.56c.349.678.524 1.489.524 2.434 0 .947-.176 1.762-.529 2.443a3.656 3.656 0 0 1-1.514 1.568c-.658.364-1.448.546-2.372.546Zm-1.435-1.426h1.355c.633 0 1.162-.115 1.585-.346.424-.234.742-.582.955-1.044.214-.465.32-1.046.32-1.741 0-.696-.106-1.274-.32-1.733a2.177 2.177 0 0 0-.946-1.035c-.414-.231-.929-.346-1.545-.346h-1.404v6.245Zm9.063-7.671v9.097h-1.647v-9.097h1.647Zm7.519 0h1.648v5.943c0 .652-.154 1.225-.462 1.719a3.113 3.113 0 0 1-1.288 1.159c-.554.276-1.201.414-1.941.414-.743 0-1.392-.138-1.945-.414a3.116 3.116 0 0 1-1.289-1.159c-.305-.494-.457-1.067-.457-1.719v-5.943h1.648v5.806c0 .379.083.716.249 1.012.168.296.405.529.71.698.305.165.666.248 1.084.248.418 0 .779-.083 1.084-.248.308-.169.545-.402.71-.698.166-.296.249-.633.249-1.012v-5.806Zm3.439 0h2.017l2.7 6.592h.107l2.701-6.592h2.016v9.097h-1.581v-6.25h-.084l-2.515 6.223h-1.181l-2.514-6.236h-.084v6.263h-1.582v-9.097Z"/><g filter="url(#d)"><path fill="#fff" d="M232 483.847c0-11.514 9.333-20.847 20.847-20.847h284.306c11.514 0 20.847 9.333 20.847 20.847v41.306c0 11.514-9.333 20.847-20.847 20.847H252.847C241.333 546 232 536.667 232 525.153v-41.306Z"/></g><path fill="#4D4A4A" d="M250.894 482.443h7.405c1.368 0 2.552.233 3.552.7 1.001.467 1.818 1.109 2.452 1.926.634.801 1.101 1.743 1.401 2.827.317 1.084.475 2.243.475 3.477 0 1.235-.158 2.394-.475 3.478-.3 1.084-.767 2.034-1.401 2.852-.634.8-1.451 1.434-2.452 1.901-1 .467-2.184.7-3.552.7h-7.405v-17.861Zm3.127 15.31h3.077c1.218 0 2.21-.159 2.977-.476.784-.333 1.393-.784 1.826-1.351a4.75 4.75 0 0 0 .901-2.026c.167-.784.25-1.626.25-2.527 0-.9-.083-1.734-.25-2.501-.15-.784-.45-1.459-.901-2.026-.433-.584-1.042-1.034-1.826-1.351-.767-.334-1.759-.501-2.977-.501h-3.077v12.759Zm14.101-15.31h2.852v2.702h-2.852v-2.702Zm0 4.928h2.852v12.933h-2.852v-12.933Zm7.611 8.781c.083.833.4 1.417.95 1.751.55.333 1.209.5 1.976.5.267 0 .567-.017.901-.05.35-.05.675-.133.976-.25.3-.117.542-.284.725-.501.2-.233.292-.533.275-.9a1.26 1.26 0 0 0-.4-.901c-.25-.233-.575-.417-.976-.55a7.896 7.896 0 0 0-1.325-.375 65.88 65.88 0 0 1-1.526-.325 15.08 15.08 0 0 1-1.551-.426 5.242 5.242 0 0 1-1.326-.675 3.215 3.215 0 0 1-.926-1.076c-.233-.45-.35-1.001-.35-1.651 0-.7.167-1.284.5-1.751a3.91 3.91 0 0 1 1.301-1.151 5.632 5.632 0 0 1 1.751-.625 10.478 10.478 0 0 1 1.851-.175c.667 0 1.301.075 1.902.225a4.845 4.845 0 0 1 1.651.675c.5.317.909.734 1.225 1.251.334.5.542 1.109.626 1.826h-2.977c-.134-.684-.45-1.142-.951-1.376-.483-.233-1.042-.35-1.676-.35-.2 0-.442.017-.725.05-.267.034-.526.1-.776.2a1.471 1.471 0 0 0-.6.401c-.167.166-.25.391-.25.675 0 .35.116.634.35.851.25.216.567.4.951.55.4.133.85.25 1.35.35.501.1 1.018.209 1.551.325.517.117 1.026.259 1.526.426.501.166.943.392 1.326.675.4.284.717.642.951 1.076.25.433.375.967.375 1.601 0 .767-.175 1.417-.525 1.951a4.124 4.124 0 0 1-1.376 1.301 6.066 6.066 0 0 1-1.851.725c-.684.15-1.36.225-2.027.225a8.935 8.935 0 0 1-2.276-.275 5.563 5.563 0 0 1-1.801-.825 4.404 4.404 0 0 1-1.201-1.401c-.284-.567-.434-1.234-.45-2.001h2.852Zm10.395-8.781h2.702v1.751h.05c.4-.75.959-1.284 1.676-1.601a5.438 5.438 0 0 1 2.326-.5c1.018 0 1.902.183 2.652.55.767.35 1.401.842 1.901 1.476a6.268 6.268 0 0 1 1.126 2.176c.25.834.375 1.726.375 2.677 0 .867-.117 1.71-.35 2.527a6.397 6.397 0 0 1-1.026 2.176 5.185 5.185 0 0 1-1.726 1.501c-.7.367-1.526.55-2.476.55a6.32 6.32 0 0 1-1.251-.125 4.932 4.932 0 0 1-1.201-.35 5.373 5.373 0 0 1-1.076-.625 3.888 3.888 0 0 1-.8-.926h-.05v6.454h-2.852v-17.711Zm9.956 6.479c0-.584-.075-1.151-.225-1.701a4.477 4.477 0 0 0-.675-1.451 3.318 3.318 0 0 0-1.126-1.026c-.45-.266-.967-.4-1.551-.4-1.201 0-2.11.417-2.727 1.251-.6.834-.9 1.943-.9 3.327 0 .65.075 1.259.225 1.826.167.551.409 1.026.725 1.426.317.4.693.717 1.126.951.45.233.967.35 1.551.35.651 0 1.201-.133 1.651-.4.45-.267.817-.609 1.101-1.026.3-.434.509-.917.625-1.451.134-.55.2-1.109.2-1.676Zm15.594 3.577c0 .351.041.601.125.751.1.15.283.225.55.225h.3c.117 0 .25-.017.4-.05v1.976c-.1.034-.233.067-.4.1-.15.05-.308.092-.475.125a4.83 4.83 0 0 1-.5.075 4.291 4.291 0 0 1-.426.025c-.583 0-1.067-.116-1.451-.35-.383-.233-.633-.642-.75-1.226-.567.551-1.268.951-2.101 1.201-.818.25-1.61.375-2.377.375a5.579 5.579 0 0 1-1.676-.25 4.503 4.503 0 0 1-1.426-.675 3.738 3.738 0 0 1-.976-1.176c-.233-.484-.35-1.042-.35-1.676 0-.801.142-1.451.425-1.951a3.387 3.387 0 0 1 1.151-1.176 5.108 5.108 0 0 1 1.601-.6 16.872 16.872 0 0 1 1.801-.301c.517-.1 1.009-.166 1.476-.2a7.35 7.35 0 0 0 1.226-.225c.367-.1.651-.25.851-.45.216-.217.325-.534.325-.951 0-.367-.092-.667-.275-.9a1.546 1.546 0 0 0-.651-.526 2.317 2.317 0 0 0-.85-.25 5.79 5.79 0 0 0-.901-.075c-.8 0-1.459.167-1.976.5-.517.334-.809.851-.876 1.551h-2.851c.05-.833.25-1.526.6-2.076s.792-.992 1.326-1.326a5.61 5.61 0 0 1 1.851-.7 10.9 10.9 0 0 1 2.101-.2 8.81 8.81 0 0 1 1.876.2c.618.133 1.168.35 1.652.65.5.3.9.692 1.2 1.176.3.467.451 1.042.451 1.726v6.654Zm-2.852-3.602c-.434.284-.968.459-1.601.525-.634.05-1.268.134-1.901.251-.301.05-.593.125-.876.225a2.254 2.254 0 0 0-.751.375c-.216.15-.391.358-.525.625-.117.25-.175.559-.175.926 0 .317.092.584.275.8.184.217.4.392.651.526.266.117.55.2.85.25.317.05.601.075.851.075.317 0 .658-.042 1.025-.125a3.255 3.255 0 0 0 1.026-.425c.334-.2.609-.451.826-.751.216-.317.325-.7.325-1.151v-2.126Zm4.119-6.454h2.151v-3.878h2.852v3.878h2.577v2.126h-2.577v6.905c0 .3.009.558.025.775.034.217.092.4.175.551.1.15.242.266.426.35.183.066.433.1.75.1h.6c.201-.017.401-.05.601-.1v2.201l-.926.1c-.3.034-.608.05-.925.05-.751 0-1.36-.066-1.827-.2-.45-.15-.808-.358-1.075-.625a2.422 2.422 0 0 1-.526-1.051 8.786 8.786 0 0 1-.15-1.426v-7.63h-2.151v-2.126Zm17.862 4.328c-.117-.801-.442-1.401-.976-1.801-.517-.417-1.176-.626-1.976-.626a3.88 3.88 0 0 0-1.176.2c-.417.117-.801.35-1.151.701-.35.333-.642.809-.875 1.426-.234.6-.351 1.392-.351 2.376 0 .534.059 1.068.176 1.601.133.534.333 1.009.6 1.426.283.417.642.759 1.076 1.026.433.25.959.375 1.576.375.833 0 1.517-.259 2.051-.776.55-.517.892-1.242 1.026-2.176h2.851c-.266 1.685-.908 2.977-1.926 3.878-1 .883-2.335 1.325-4.002 1.325-1.018 0-1.918-.166-2.702-.5a5.948 5.948 0 0 1-1.951-1.401 6.22 6.22 0 0 1-1.226-2.126 8.49 8.49 0 0 1-.4-2.652c0-.967.133-1.876.4-2.727.267-.85.667-1.584 1.201-2.201a5.438 5.438 0 0 1 1.976-1.476c.8-.367 1.734-.55 2.802-.55.75 0 1.459.1 2.126.3a5.287 5.287 0 0 1 1.801.85c.534.384.967.868 1.301 1.451.334.584.534 1.276.6 2.077h-2.851Zm4.669-9.256h2.852v6.629h.05c.35-.584.867-1.067 1.551-1.451.7-.4 1.476-.6 2.327-.6 1.417 0 2.534.367 3.352 1.1.817.734 1.225 1.835 1.225 3.303v8.88h-2.851v-8.13c-.034-1.017-.251-1.751-.651-2.201-.4-.467-1.025-.701-1.876-.701-.484 0-.917.092-1.301.275a2.626 2.626 0 0 0-.975.726c-.267.3-.476.659-.626 1.075-.15.417-.225.859-.225 1.326v7.63h-2.852v-17.861Zm22.478 13.709c.083.833.4 1.417.951 1.751.55.333 1.209.5 1.976.5.267 0 .567-.017.9-.05.351-.05.676-.133.976-.25.3-.117.542-.284.726-.501.2-.233.291-.533.275-.9a1.26 1.26 0 0 0-.401-.901c-.25-.233-.575-.417-.975-.55a7.936 7.936 0 0 0-1.326-.375c-.5-.1-1.009-.209-1.526-.325a15.08 15.08 0 0 1-1.551-.426 5.242 5.242 0 0 1-1.326-.675 3.212 3.212 0 0 1-.925-1.076c-.234-.45-.351-1.001-.351-1.651 0-.7.167-1.284.501-1.751a3.91 3.91 0 0 1 1.301-1.151 5.623 5.623 0 0 1 1.751-.625 10.46 10.46 0 0 1 1.851-.175c.667 0 1.301.075 1.901.225a4.845 4.845 0 0 1 1.651.675c.5.317.909.734 1.226 1.251.333.5.542 1.109.625 1.826h-2.977c-.133-.684-.45-1.142-.95-1.376-.484-.233-1.043-.35-1.676-.35-.2 0-.442.017-.726.05-.267.034-.525.1-.775.2a1.468 1.468 0 0 0-.601.401c-.166.166-.25.391-.25.675 0 .35.117.634.35.851.251.216.567.4.951.55.4.133.851.25 1.351.35.5.1 1.017.209 1.551.325.517.117 1.026.259 1.526.426.5.166.942.392 1.326.675.4.284.717.642.95 1.076.25.433.376.967.376 1.601 0 .767-.176 1.417-.526 1.951-.35.534-.809.967-1.376 1.301a6.046 6.046 0 0 1-1.851.725 9.435 9.435 0 0 1-2.026.225 8.948 8.948 0 0 1-2.277-.275 5.573 5.573 0 0 1-1.801-.825c-.5-.384-.9-.851-1.201-1.401-.283-.567-.433-1.234-.45-2.001h2.852Zm9.02-8.781h2.151v-3.878h2.852v3.878h2.577v2.126h-2.577v6.905c0 .3.008.558.025.775.033.217.092.4.175.551.1.15.242.266.425.35.184.066.434.1.751.1h.6c.2-.017.4-.05.601-.1v2.201l-.926.1c-.3.034-.609.05-.926.05-.75 0-1.359-.066-1.826-.2-.45-.15-.809-.358-1.076-.625a2.41 2.41 0 0 1-.525-1.051 8.786 8.786 0 0 1-.15-1.426v-7.63h-2.151v-2.126Zm19.963 10.056c0 .351.041.601.125.751.1.15.283.225.55.225h.3c.117 0 .25-.017.4-.05v1.976c-.1.034-.233.067-.4.1-.15.05-.308.092-.475.125a4.83 4.83 0 0 1-.5.075 4.291 4.291 0 0 1-.426.025c-.583 0-1.067-.116-1.451-.35-.383-.233-.633-.642-.75-1.226-.567.551-1.268.951-2.101 1.201-.818.25-1.61.375-2.377.375a5.579 5.579 0 0 1-1.676-.25 4.503 4.503 0 0 1-1.426-.675 3.738 3.738 0 0 1-.976-1.176c-.233-.484-.35-1.042-.35-1.676 0-.801.142-1.451.426-1.951.3-.501.683-.892 1.15-1.176a5.108 5.108 0 0 1 1.601-.6 16.872 16.872 0 0 1 1.801-.301c.517-.1 1.009-.166 1.476-.2a7.35 7.35 0 0 0 1.226-.225c.367-.1.651-.25.851-.45.216-.217.325-.534.325-.951 0-.367-.092-.667-.275-.9a1.546 1.546 0 0 0-.651-.526 2.317 2.317 0 0 0-.85-.25 5.79 5.79 0 0 0-.901-.075c-.8 0-1.459.167-1.976.5-.517.334-.809.851-.876 1.551h-2.851c.05-.833.25-1.526.6-2.076s.792-.992 1.326-1.326a5.61 5.61 0 0 1 1.851-.7 10.9 10.9 0 0 1 2.101-.2c.634 0 1.259.066 1.877.2.617.133 1.167.35 1.651.65.5.3.9.692 1.2 1.176.301.467.451 1.042.451 1.726v6.654Zm-2.852-3.602c-.434.284-.967.459-1.601.525-.634.05-1.268.134-1.901.251-.301.05-.592.125-.876.225a2.24 2.24 0 0 0-.75.375c-.217.15-.392.358-.526.625-.117.25-.175.559-.175.926 0 .317.092.584.275.8.184.217.4.392.651.526.266.117.55.2.85.25.317.05.601.075.851.075.317 0 .658-.042 1.025-.125a3.255 3.255 0 0 0 1.026-.425c.334-.2.609-.451.826-.751.216-.317.325-.7.325-1.151v-2.126Zm4.119-6.454h2.151v-3.878h2.852v3.878h2.577v2.126h-2.577v6.905c0 .3.009.558.025.775.034.217.092.4.175.551.1.15.242.266.426.35.183.066.433.1.75.1h.6c.201-.017.401-.05.601-.1v2.201l-.926.1c-.3.034-.608.05-.925.05-.751 0-1.36-.066-1.826-.2-.451-.15-.809-.358-1.076-.625a2.41 2.41 0 0 1-.525-1.051 8.669 8.669 0 0 1-.151-1.426v-7.63h-2.151v-2.126Zm20.488 12.933h-2.801v-1.801h-.05c-.351.65-.876 1.176-1.577 1.576-.683.384-1.384.575-2.101.575-1.701 0-2.935-.417-3.702-1.25-.751-.851-1.126-2.127-1.126-3.828v-8.205h2.852v7.93c0 1.134.217 1.935.65 2.402.434.467 1.043.7 1.826.7.601 0 1.101-.092 1.501-.275.401-.184.726-.425.976-.726a2.81 2.81 0 0 0 .525-1.125c.117-.434.176-.901.176-1.401v-7.505h2.851v12.933Zm4.659-4.152c.083.833.4 1.417.95 1.751.551.333 1.209.5 1.977.5.266 0 .567-.017.9-.05.35-.05.676-.133.976-.25.3-.117.542-.284.725-.501.2-.233.292-.533.275-.9a1.26 1.26 0 0 0-.4-.901c-.25-.233-.575-.417-.975-.55a7.936 7.936 0 0 0-1.326-.375 65.88 65.88 0 0 1-1.526-.325 15.08 15.08 0 0 1-1.551-.426 5.242 5.242 0 0 1-1.326-.675 3.215 3.215 0 0 1-.926-1.076c-.233-.45-.35-1.001-.35-1.651 0-.7.167-1.284.5-1.751a3.92 3.92 0 0 1 1.301-1.151 5.641 5.641 0 0 1 1.751-.625 10.48 10.48 0 0 1 1.852-.175c.667 0 1.3.075 1.901.225a4.845 4.845 0 0 1 1.651.675c.5.317.909.734 1.226 1.251.333.5.542 1.109.625 1.826h-2.977c-.133-.684-.45-1.142-.95-1.376-.484-.233-1.043-.35-1.677-.35-.2 0-.442.017-.725.05-.267.034-.525.1-.776.2a1.471 1.471 0 0 0-.6.401c-.167.166-.25.391-.25.675 0 .35.117.634.35.851.25.216.567.4.951.55.4.133.85.25 1.351.35.5.1 1.017.209 1.551.325a15.96 15.96 0 0 1 1.526.426c.5.166.942.392 1.325.675.401.284.718.642.951 1.076.25.433.375.967.375 1.601 0 .767-.175 1.417-.525 1.951-.35.534-.809.967-1.376 1.301a6.046 6.046 0 0 1-1.851.725 9.435 9.435 0 0 1-2.026.225 8.943 8.943 0 0 1-2.277-.275 5.563 5.563 0 0 1-1.801-.825 4.416 4.416 0 0 1-1.201-1.401c-.283-.567-.433-1.234-.45-2.001h2.852Zm16.782-8.781h2.677v2.502h.05c.084-.351.242-.693.475-1.026.251-.334.542-.634.876-.901.35-.283.734-.508 1.151-.675.417-.167.842-.25 1.276-.25.333 0 .558.008.675.025l.4.05v2.752a6.982 6.982 0 0 0-.625-.076c-.2-.033-.4-.05-.601-.05-.483 0-.942.1-1.375.301a2.979 2.979 0 0 0-1.101.85c-.317.367-.567.826-.751 1.376-.183.55-.275 1.184-.275 1.901v6.154h-2.852v-12.933Zm16.736 5.328a4.35 4.35 0 0 0-.301-1.3 3.039 3.039 0 0 0-.65-1.076 2.829 2.829 0 0 0-1.001-.751c-.383-.2-.817-.3-1.3-.3-.501 0-.959.092-1.376.275a3.042 3.042 0 0 0-1.051.726c-.283.3-.517.659-.7 1.075a3.986 3.986 0 0 0-.276 1.351h6.655Zm-6.655 1.877c0 .5.067.983.201 1.45.15.467.366.876.65 1.226.283.35.642.634 1.076.851.433.2.95.3 1.551.3.834 0 1.501-.175 2.001-.525.517-.367.901-.909 1.151-1.626h2.701a5.38 5.38 0 0 1-.775 1.876 5.602 5.602 0 0 1-1.326 1.401 5.637 5.637 0 0 1-1.751.825c-.634.2-1.301.3-2.001.3-1.018 0-1.918-.166-2.702-.5a5.688 5.688 0 0 1-2.001-1.401 6.178 6.178 0 0 1-1.226-2.151c-.267-.834-.4-1.751-.4-2.752 0-.917.141-1.784.425-2.602.3-.833.717-1.559 1.251-2.176a6.033 6.033 0 0 1 1.976-1.501c.767-.367 1.634-.55 2.602-.55 1.017 0 1.926.217 2.726.65a5.852 5.852 0 0 1 2.027 1.676 6.67 6.67 0 0 1 1.15 2.427c.251.9.317 1.834.201 2.802h-9.507Zm23.357 10.506h-2.852v-6.454h-.05c-.233.35-.509.659-.825.926a4.932 4.932 0 0 1-2.252.975 6.32 6.32 0 0 1-1.251.125c-.95 0-1.776-.183-2.476-.55a5.447 5.447 0 0 1-1.751-1.501 7.058 7.058 0 0 1-1.026-2.176 9.805 9.805 0 0 1-.325-2.527c0-.951.125-1.843.375-2.677a6.268 6.268 0 0 1 1.126-2.176 5.09 5.09 0 0 1 1.876-1.476c.767-.367 1.659-.55 2.677-.55.834 0 1.609.166 2.326.5.717.317 1.276.851 1.676 1.601h.05v-1.751h2.702v17.711Zm-9.956-11.232c0 .567.058 1.126.175 1.676.133.534.342 1.017.625 1.451.3.417.676.759 1.126 1.026.45.267 1 .4 1.651.4 1.234 0 2.143-.417 2.727-1.251.6-.85.9-1.951.9-3.302 0-1.417-.308-2.535-.925-3.352-.601-.817-1.501-1.226-2.702-1.226-.584 0-1.101.134-1.551.4-.45.251-.826.592-1.126 1.026-.3.417-.525.901-.675 1.451a6.436 6.436 0 0 0-.225 1.701Zm23.923 6.454h-2.802v-1.801h-.05c-.35.65-.875 1.176-1.576 1.576-.684.384-1.384.575-2.101.575-1.701 0-2.935-.417-3.702-1.25-.751-.851-1.126-2.127-1.126-3.828v-8.205h2.852v7.93c0 1.134.216 1.935.65 2.402.434.467 1.042.7 1.826.7.601 0 1.101-.092 1.501-.275.4-.184.726-.425.976-.726a2.81 2.81 0 0 0 .525-1.125c.117-.434.175-.901.175-1.401v-7.505h2.852v12.933Zm11.388-7.605a4.38 4.38 0 0 0-.3-1.3 3.04 3.04 0 0 0-.651-1.076 2.834 2.834 0 0 0-1-.751c-.384-.2-.818-.3-1.301-.3-.501 0-.959.092-1.376.275-.4.167-.751.409-1.051.726-.283.3-.517.659-.7 1.075a3.961 3.961 0 0 0-.275 1.351h6.654Zm-6.654 1.877c0 .5.066.983.2 1.45.15.467.367.876.65 1.226.284.35.642.634 1.076.851.433.2.95.3 1.551.3.834 0 1.501-.175 2.001-.525.517-.367.901-.909 1.151-1.626h2.702a5.401 5.401 0 0 1-.776 1.876 5.602 5.602 0 0 1-1.326 1.401c-.517.367-1.1.642-1.751.825-.634.2-1.301.3-2.001.3-1.018 0-1.918-.166-2.702-.5a5.688 5.688 0 0 1-2.001-1.401c-.534-.6-.942-1.317-1.226-2.151-.267-.834-.4-1.751-.4-2.752 0-.917.142-1.784.425-2.602.3-.833.717-1.559 1.251-2.176a6.033 6.033 0 0 1 1.976-1.501c.767-.367 1.634-.55 2.602-.55 1.017 0 1.926.217 2.727.65a5.858 5.858 0 0 1 2.026 1.676 6.689 6.689 0 0 1 1.151 2.427c.25.9.316 1.834.2 2.802h-9.506Zm13.325 1.576c.083.833.4 1.417.95 1.751.551.333 1.209.5 1.977.5.266 0 .567-.017.9-.05.35-.05.676-.133.976-.25.3-.117.542-.284.725-.501.2-.233.292-.533.275-.9a1.26 1.26 0 0 0-.4-.901c-.25-.233-.575-.417-.975-.55a7.936 7.936 0 0 0-1.326-.375 65.88 65.88 0 0 1-1.526-.325 15.08 15.08 0 0 1-1.551-.426 5.242 5.242 0 0 1-1.326-.675 3.215 3.215 0 0 1-.926-1.076c-.233-.45-.35-1.001-.35-1.651 0-.7.167-1.284.5-1.751a3.92 3.92 0 0 1 1.301-1.151 5.641 5.641 0 0 1 1.751-.625 10.48 10.48 0 0 1 1.852-.175c.667 0 1.3.075 1.901.225a4.845 4.845 0 0 1 1.651.675c.5.317.909.734 1.226 1.251.333.5.542 1.109.625 1.826h-2.977c-.133-.684-.45-1.142-.951-1.376-.483-.233-1.042-.35-1.676-.35-.2 0-.442.017-.725.05-.267.034-.525.1-.776.2a1.471 1.471 0 0 0-.6.401c-.167.166-.25.391-.25.675 0 .35.117.634.35.851.25.216.567.4.951.55.4.133.85.25 1.351.35.5.1 1.017.209 1.551.325a15.96 15.96 0 0 1 1.526.426c.5.166.942.392 1.325.675.401.284.718.642.951 1.076.25.433.375.967.375 1.601 0 .767-.175 1.417-.525 1.951-.35.534-.809.967-1.376 1.301a6.046 6.046 0 0 1-1.851.725 9.435 9.435 0 0 1-2.026.225 8.943 8.943 0 0 1-2.277-.275 5.563 5.563 0 0 1-1.801-.825 4.416 4.416 0 0 1-1.201-1.401c-.283-.567-.433-1.234-.45-2.001h2.852Zm9.019-8.781h2.152v-3.878h2.852v3.878h2.576v2.126h-2.576v6.905c0 .3.008.558.025.775.033.217.091.4.175.551.1.15.241.266.425.35.183.066.434.1.75.1h.601c.2-.017.4-.05.6-.1v2.201l-.925.1a8.24 8.24 0 0 1-.926.05c-.75 0-1.359-.066-1.826-.2-.45-.15-.809-.358-1.076-.625a2.41 2.41 0 0 1-.525-1.051 8.568 8.568 0 0 1-.15-1.426v-7.63h-2.152v-2.126Z"/><rect width="62.54" height="25.016" x="248.993" y="512.828" fill="#D6FFD7" rx="12.508"/><path fill="#00CD03" d="M266.568 528.997V519.9h1.648v7.716h4.006v1.381h-5.654Zm14.859-4.548c0 .98-.184 1.819-.551 2.518-.364.696-.862 1.229-1.492 1.599-.628.37-1.34.555-2.137.555-.796 0-1.51-.185-2.141-.555-.627-.373-1.125-.907-1.492-1.603-.364-.699-.546-1.537-.546-2.514 0-.98.182-1.818.546-2.514.367-.699.865-1.234 1.492-1.604.631-.37 1.345-.555 2.141-.555.797 0 1.509.185 2.137.555.63.37 1.128.905 1.492 1.604.367.696.551 1.534.551 2.514Zm-1.657 0c0-.69-.108-1.272-.324-1.746-.213-.477-.509-.836-.888-1.079a2.354 2.354 0 0 0-1.311-.369c-.494 0-.931.123-1.31.369-.379.243-.677.602-.893 1.079-.213.474-.32 1.056-.32 1.746s.107 1.273.32 1.75c.216.474.514.833.893 1.079.379.243.816.364 1.31.364.495 0 .932-.121 1.311-.364.379-.246.675-.605.888-1.079.216-.477.324-1.06.324-1.75Zm4.897 4.548L282.1 519.9h1.772l1.639 6.685h.085l1.75-6.685h1.612l1.754 6.69h.08l1.639-6.69h1.773l-2.568 9.097h-1.625l-1.821-6.383h-.072l-1.825 6.383h-1.626Z"/><circle cx="144.761" cy="387.748" r="14.593" fill="#FBFBFB" stroke="#FF3800" stroke-width="4.169"/><path fill="#000" d="M93.194 495.673c0 .456.077.845.233 1.168.156.322.373.589.65.8.279.2.595.351.951.451.367.089.762.133 1.184.133.456 0 .845-.05 1.168-.15.322-.111.583-.25.784-.417.2-.167.344-.356.433-.567.089-.222.134-.445.134-.667 0-.456-.106-.79-.317-1.001a1.667 1.667 0 0 0-.668-.467c-.422-.155-.917-.3-1.484-.433-.556-.145-1.245-.328-2.068-.551-.511-.133-.94-.305-1.284-.517a3.204 3.204 0 0 1-.8-.734c-.2-.266-.345-.55-.434-.85a3.636 3.636 0 0 1-.117-.917c0-.601.123-1.118.367-1.551a3.41 3.41 0 0 1 1-1.101c.412-.289.88-.5 1.402-.634a5.938 5.938 0 0 1 1.584-.217c.623 0 1.206.084 1.751.251.556.155 1.04.394 1.451.717.423.322.756.722 1.001 1.201.244.466.367 1.011.367 1.634h-2.085c-.056-.767-.317-1.307-.784-1.618-.467-.322-1.062-.483-1.784-.483a3.5 3.5 0 0 0-.75.083c-.257.044-.49.128-.701.25-.212.111-.39.267-.534.467-.133.2-.2.45-.2.751 0 .422.128.756.383 1 .267.234.612.412 1.034.534.045.011.217.061.517.15a82.441 82.441 0 0 1 2.135.567c.367.089.628.156.784.2.39.122.728.289 1.017.5.29.212.528.456.717.734.201.267.345.556.434.867.1.312.15.623.15.934 0 .667-.139 1.24-.417 1.718a3.413 3.413 0 0 1-1.067 1.151c-.445.3-.95.517-1.518.65a6.972 6.972 0 0 1-1.734.217 7.128 7.128 0 0 1-1.918-.25 4.505 4.505 0 0 1-1.568-.767 3.775 3.775 0 0 1-1.067-1.318c-.267-.545-.406-1.184-.417-1.918h2.085Zm14.666-1.767c-.078-.534-.294-.934-.65-1.201-.345-.278-.784-.417-1.318-.417-.244 0-.506.044-.783.133a1.761 1.761 0 0 0-.768.467c-.233.223-.428.539-.583.951-.156.4-.234.928-.234 1.584 0 .356.039.712.117 1.068.089.355.222.672.4.95.189.278.428.506.717.684.289.167.64.25 1.051.25.556 0 1.012-.172 1.368-.517.366-.345.594-.828.683-1.451h1.901c-.177 1.123-.605 1.985-1.284 2.585-.667.589-1.556.884-2.668.884-.678 0-1.279-.111-1.801-.333a3.982 3.982 0 0 1-1.301-.934 4.161 4.161 0 0 1-.817-1.418 5.662 5.662 0 0 1-.267-1.768c0-.645.089-1.251.267-1.818a4.086 4.086 0 0 1 .8-1.467 3.623 3.623 0 0 1 1.318-.984c.533-.245 1.156-.367 1.868-.367.5 0 .973.067 1.417.2.456.122.856.311 1.201.567.356.256.645.578.867.967.223.389.356.851.4 1.385h-1.901Zm3.113-6.171h1.902v4.419h.033c.233-.389.578-.711 1.034-.967.467-.267.984-.4 1.551-.4.945 0 1.69.245 2.235.734.544.489.817 1.223.817 2.201v5.921h-1.901v-5.421c-.023-.678-.167-1.167-.434-1.467-.267-.311-.684-.467-1.251-.467a1.99 1.99 0 0 0-.867.183 1.753 1.753 0 0 0-.65.484 2.17 2.17 0 0 0-.417.717c-.1.278-.15.573-.15.884v5.087h-1.902v-11.908Zm15.164 6.838a2.926 2.926 0 0 0-.2-.868 2.045 2.045 0 0 0-.434-.717 1.882 1.882 0 0 0-.667-.5 1.853 1.853 0 0 0-.867-.2c-.334 0-.64.061-.918.183-.266.112-.5.273-.7.484a2.49 2.49 0 0 0-.467.717 2.653 2.653 0 0 0-.183.901h4.436Zm-4.436 1.25c0 .334.044.656.133.968.1.311.245.583.434.817.189.233.428.422.717.567.289.133.633.2 1.034.2.556 0 1-.117 1.334-.35.345-.245.6-.606.767-1.084h1.801c-.1.467-.272.884-.517 1.251a3.712 3.712 0 0 1-.884.934 3.768 3.768 0 0 1-1.167.55c-.423.133-.867.2-1.334.2-.679 0-1.279-.111-1.801-.333a3.817 3.817 0 0 1-1.335-.934 4.153 4.153 0 0 1-.817-1.435 5.988 5.988 0 0 1-.267-1.834c0-.612.095-1.19.284-1.735.2-.556.478-1.039.834-1.451a4.026 4.026 0 0 1 1.317-1c.512-.245 1.09-.367 1.735-.367.678 0 1.284.144 1.817.434.545.277.996.65 1.351 1.117.356.467.612 1.006.767 1.618.167.6.212 1.223.134 1.867h-6.337Zm15.571 3.82h-1.802v-1.168h-.033a2.3 2.3 0 0 1-1.117 1.084 3.88 3.88 0 0 1-1.551.317c-.679 0-1.273-.117-1.785-.35a3.666 3.666 0 0 1-1.251-.984 4.192 4.192 0 0 1-.75-1.451 6.405 6.405 0 0 1-.25-1.818c0-.778.105-1.451.317-2.018.211-.567.489-1.034.833-1.401a3.264 3.264 0 0 1 1.201-.8 3.777 3.777 0 0 1 1.384-.267c.267 0 .54.028.818.083.278.045.544.123.8.234.256.111.489.256.701.433.222.167.405.367.55.601h.033v-4.403h1.902v11.908Zm-6.638-4.22c0 .367.044.728.133 1.084.1.356.245.673.434.951.2.278.45.5.75.667.301.167.656.25 1.068.25.422 0 .784-.089 1.084-.267.311-.178.561-.411.75-.7.2-.289.345-.612.434-.967.1-.367.15-.74.15-1.118 0-.956-.217-1.701-.65-2.235-.423-.533-1.001-.8-1.735-.8-.445 0-.823.094-1.134.283-.3.178-.55.417-.75.718a3.113 3.113 0 0 0-.417 1 5.44 5.44 0 0 0-.117 1.134Zm15.949 4.22h-1.868v-1.201h-.033a2.653 2.653 0 0 1-1.051 1.05 2.83 2.83 0 0 1-1.401.384c-1.134 0-1.957-.278-2.468-.834-.5-.567-.751-1.417-.751-2.551v-5.471h1.902v5.287c0 .756.144 1.29.433 1.601.289.311.695.467 1.218.467.4 0 .734-.061 1-.183.267-.123.484-.284.651-.484a1.87 1.87 0 0 0 .35-.75c.078-.29.117-.601.117-.934v-5.004h1.901v8.623Zm1.721-11.908h1.902v11.908h-1.902v-11.908Zm9.56 6.838a2.895 2.895 0 0 0-.2-.868 2.03 2.03 0 0 0-.434-.717 1.882 1.882 0 0 0-.667-.5 1.853 1.853 0 0 0-.867-.2c-.334 0-.639.061-.917.183a2.046 2.046 0 0 0-.701.484 2.51 2.51 0 0 0-.467.717 2.653 2.653 0 0 0-.183.901h4.436Zm-4.436 1.25c0 .334.044.656.133.968.1.311.245.583.434.817.189.233.428.422.717.567.289.133.634.2 1.034.2.556 0 1.001-.117 1.334-.35.345-.245.601-.606.767-1.084h1.801c-.1.467-.272.884-.517 1.251a3.726 3.726 0 0 1-.883.934 3.773 3.773 0 0 1-1.168.55c-.422.133-.867.2-1.334.2-.678 0-1.279-.111-1.801-.333a3.814 3.814 0 0 1-1.334-.934 4.139 4.139 0 0 1-.818-1.435 6.02 6.02 0 0 1-.266-1.834c0-.612.094-1.19.283-1.735.2-.556.478-1.039.834-1.451a4.026 4.026 0 0 1 1.317-1c.512-.245 1.09-.367 1.735-.367.678 0 1.284.144 1.818.434.545.277.995.65 1.351 1.117.355.467.611 1.006.767 1.618.167.6.211 1.223.133 1.867h-6.337Zm15.571 3.82h-1.801v-1.168h-.034c-.255.5-.628.862-1.117 1.084a3.874 3.874 0 0 1-1.551.317c-.678 0-1.273-.117-1.785-.35a3.652 3.652 0 0 1-1.25-.984 4.177 4.177 0 0 1-.751-1.451 6.405 6.405 0 0 1-.25-1.818c0-.778.106-1.451.317-2.018.211-.567.489-1.034.834-1.401a3.256 3.256 0 0 1 1.201-.8 3.773 3.773 0 0 1 1.384-.267c.267 0 .539.028.817.083.278.045.545.123.8.234.256.111.49.256.701.433.222.167.406.367.55.601h.034v-4.403h1.901v11.908Zm-6.638-4.22c0 .367.045.728.134 1.084.1.356.244.673.433.951.2.278.451.5.751.667.3.167.656.25 1.067.25.423 0 .784-.089 1.084-.267.311-.178.562-.411.751-.7.2-.289.344-.612.433-.967.1-.367.15-.74.15-1.118 0-.956-.216-1.701-.65-2.235-.423-.533-1.001-.8-1.735-.8-.444 0-.822.094-1.134.283-.3.178-.55.417-.75.718a3.113 3.113 0 0 0-.417 1 5.44 5.44 0 0 0-.117 1.134ZM90.709 511.02h1.417v-.717c0-.545.067-.984.2-1.317.134-.345.312-.606.534-.784.222-.189.473-.311.75-.367.29-.067.59-.1.901-.1.612 0 1.056.039 1.334.117v1.484a2.166 2.166 0 0 0-.4-.067 3.03 3.03 0 0 0-.484-.033c-.255 0-.478.061-.667.183-.178.123-.266.362-.266.718v.883h1.617v1.418h-1.617v7.205h-1.902v-7.205H90.71v-1.418Zm9.73 8.856c-.69 0-1.307-.111-1.851-.333a4.149 4.149 0 0 1-1.368-.951 4.19 4.19 0 0 1-.85-1.434 5.673 5.673 0 0 1-.284-1.835c0-.656.094-1.262.284-1.818a4.19 4.19 0 0 1 .85-1.434 3.95 3.95 0 0 1 1.368-.934c.544-.233 1.161-.35 1.851-.35.689 0 1.301.117 1.834.35a3.754 3.754 0 0 1 1.368.934c.378.4.661.878.85 1.434.2.556.301 1.162.301 1.818 0 .667-.101 1.279-.301 1.835a3.932 3.932 0 0 1-2.218 2.385c-.533.222-1.145.333-1.834.333Zm0-1.501c.422 0 .789-.089 1.1-.267.312-.178.567-.411.768-.7.2-.289.344-.612.433-.967a4.172 4.172 0 0 0 0-2.219 2.75 2.75 0 0 0-.433-.967 2.325 2.325 0 0 0-.768-.7c-.311-.178-.678-.267-1.1-.267-.423 0-.79.089-1.101.267a2.32 2.32 0 0 0-.767.7c-.2.278-.35.601-.45.967a4.657 4.657 0 0 0 0 2.219c.1.355.25.678.45.967.2.289.456.522.767.7.311.178.678.267 1.101.267Zm5.6-7.355h1.784v1.668h.033a2.03 2.03 0 0 1 .317-.684c.167-.222.362-.422.584-.6.233-.189.489-.339.767-.45.278-.111.562-.167.851-.167.222 0 .372.005.45.017l.267.033v1.834a5.289 5.289 0 0 0-.417-.05 2.462 2.462 0 0 0-.4-.033 2.17 2.17 0 0 0-.918.2 1.984 1.984 0 0 0-.733.567 2.694 2.694 0 0 0-.501.917 4.02 4.02 0 0 0-.183 1.268v4.103h-1.901v-8.623Zm9.887-3.285h1.901v11.908h-1.901v-11.908Zm10.861 9.99c0 .233.027.4.083.5.067.1.189.15.367.15h.2c.078 0 .167-.011.267-.033v1.317a2.329 2.329 0 0 1-.267.067 3.187 3.187 0 0 1-.934.15c-.389 0-.711-.078-.967-.233-.256-.156-.423-.428-.5-.818a3.36 3.36 0 0 1-1.401.801 5.396 5.396 0 0 1-1.585.25 3.73 3.73 0 0 1-1.117-.167c-.356-.1-.673-.25-.951-.45a2.495 2.495 0 0 1-.65-.784 2.535 2.535 0 0 1-.234-1.117c0-.534.095-.968.284-1.301.2-.334.456-.595.767-.784a3.428 3.428 0 0 1 1.067-.4c.401-.089.801-.156 1.201-.2.345-.067.673-.111.984-.134a4.81 4.81 0 0 0 .817-.15c.245-.066.434-.167.567-.3.145-.145.217-.356.217-.634 0-.244-.061-.444-.183-.6a1.027 1.027 0 0 0-.434-.35 1.531 1.531 0 0 0-.567-.167 3.893 3.893 0 0 0-.6-.05c-.534 0-.973.111-1.318.333-.344.223-.539.567-.583 1.034h-1.902c.034-.555.167-1.017.401-1.384.233-.367.528-.661.883-.884a3.756 3.756 0 0 1 1.235-.467 7.279 7.279 0 0 1 1.4-.133c.423 0 .84.044 1.251.133.412.089.779.234 1.101.434.334.2.6.461.801.784.2.311.3.695.3 1.151v4.436Zm-1.902-2.402c-.289.189-.644.306-1.067.35-.422.034-.845.089-1.267.167-.2.034-.395.084-.584.15a1.515 1.515 0 0 0-.5.25 1.08 1.08 0 0 0-.351.417 1.47 1.47 0 0 0-.116.617c0 .212.061.39.183.534.122.145.267.261.434.35.178.078.367.134.567.167.211.033.4.05.567.05.211 0 .439-.028.684-.083a2.17 2.17 0 0 0 .683-.284c.223-.133.406-.3.551-.5.144-.211.216-.467.216-.767v-1.418Zm2.747-4.303h1.434v-2.585h1.901v2.585h1.718v1.418h-1.718v4.603c0 .2.006.372.017.517.022.144.061.267.117.367a.65.65 0 0 0 .283.233c.122.045.289.067.5.067h.401c.133-.011.266-.033.4-.067v1.468c-.211.022-.417.044-.617.067-.2.022-.406.033-.617.033-.501 0-.906-.045-1.218-.133a1.81 1.81 0 0 1-.717-.417 1.606 1.606 0 0 1-.35-.701 5.75 5.75 0 0 1-.1-.95v-5.087h-1.434v-1.418Zm12.007 3.553a2.895 2.895 0 0 0-.2-.868 2.028 2.028 0 0 0-.433-.717 1.89 1.89 0 0 0-.667-.5 1.854 1.854 0 0 0-.868-.2c-.333 0-.639.061-.917.183-.267.112-.5.273-.7.484a2.49 2.49 0 0 0-.467.717 2.654 2.654 0 0 0-.184.901h4.436Zm-4.436 1.25c0 .334.045.656.134.968.1.311.244.583.433.817.189.233.428.422.717.567.29.133.634.2 1.034.2.556 0 1.001-.117 1.335-.35.344-.245.6-.606.767-1.084h1.801c-.1.467-.272.884-.517 1.251a3.73 3.73 0 0 1-.884.934 3.779 3.779 0 0 1-1.167.55c-.423.133-.868.2-1.335.2-.678 0-1.278-.111-1.801-.333a3.823 3.823 0 0 1-1.334-.934 4.137 4.137 0 0 1-.817-1.435 5.988 5.988 0 0 1-.267-1.834c0-.612.095-1.19.284-1.735.2-.556.478-1.039.833-1.451a4.03 4.03 0 0 1 1.318-1c.511-.245 1.09-.367 1.734-.367.679 0 1.285.144 1.818.434.545.277.995.65 1.351 1.117.356.467.612 1.006.767 1.618.167.6.211 1.223.134 1.867h-6.338Zm7.449-4.803h1.785v1.668h.033c.056-.233.161-.461.317-.684.167-.222.361-.422.584-.6.233-.189.489-.339.767-.45.278-.111.561-.167.851-.167.222 0 .372.005.45.017l.267.033v1.834a5.289 5.289 0 0 0-.417-.05 2.465 2.465 0 0 0-.401-.033 2.17 2.17 0 0 0-.917.2 1.996 1.996 0 0 0-.734.567 2.693 2.693 0 0 0-.5.917 4.02 4.02 0 0 0-.183 1.268v4.103h-1.902v-8.623Zm-6.848-174.032-1.017 1.134-1.735-1.518c-.444.256-.906.44-1.384.551a6.257 6.257 0 0 1-1.418.167c-.889 0-1.689-.162-2.401-.484a5.393 5.393 0 0 1-1.785-1.351 6.122 6.122 0 0 1-1.134-1.985 7.516 7.516 0 0 1-.383-2.418c0-.845.128-1.645.383-2.401a6.132 6.132 0 0 1 1.134-1.985 5.393 5.393 0 0 1 1.785-1.351c.712-.333 1.512-.5 2.401-.5.89 0 1.685.167 2.385.5a5.336 5.336 0 0 1 1.801 1.351c.49.567.862 1.229 1.118 1.985.267.756.4 1.556.4 2.401 0 .412-.033.829-.1 1.251a7.903 7.903 0 0 1-.3 1.218c-.134.4-.306.783-.517 1.15a4.23 4.23 0 0 1-.767.951l1.534 1.334Zm-5.42-2.702 1.001-1.15 1.45 1.267c.378-.456.645-.973.801-1.551a6.753 6.753 0 0 0 .233-1.768c0-.567-.072-1.123-.216-1.667a4.403 4.403 0 0 0-.634-1.451 3.16 3.16 0 0 0-1.134-1.034c-.456-.256-1.001-.384-1.635-.384-.633 0-1.184.128-1.651.384a3.21 3.21 0 0 0-1.117 1.034 4.646 4.646 0 0 0-.65 1.451 6.946 6.946 0 0 0-.201 1.667c0 .567.067 1.123.201 1.668.144.545.361 1.034.65 1.468.289.422.662.761 1.117 1.017.467.256 1.018.384 1.651.384.223 0 .445-.023.668-.067a2.8 2.8 0 0 0 .667-.217l-1.201-1.051Zm14.439 2.752h-1.868v-1.201h-.034a2.646 2.646 0 0 1-1.05 1.051 2.83 2.83 0 0 1-1.401.384c-1.134 0-1.957-.278-2.468-.834-.501-.567-.751-1.418-.751-2.552v-5.47h1.901v5.287c0 .756.145 1.289.434 1.601.289.311.695.467 1.217.467.401 0 .734-.062 1.001-.184a1.8 1.8 0 0 0 .65-.483c.167-.212.284-.462.351-.751.077-.289.116-.6.116-.934v-5.003h1.902v8.622Zm7.591-5.07a2.896 2.896 0 0 0-.2-.867 2.028 2.028 0 0 0-.433-.717 1.89 1.89 0 0 0-.667-.5 1.842 1.842 0 0 0-.868-.201c-.333 0-.639.062-.917.184-.267.111-.5.272-.7.483-.189.201-.345.44-.467.718a2.63 2.63 0 0 0-.184.9h4.436Zm-4.436 1.251c0 .334.045.656.134.967.1.312.244.584.433.817.189.234.428.423.717.567.289.134.634.201 1.034.201.556 0 1.001-.117 1.335-.351.344-.244.6-.606.767-1.084h1.801c-.1.467-.273.884-.517 1.251a3.73 3.73 0 0 1-.884.934 3.756 3.756 0 0 1-1.167.55 4.394 4.394 0 0 1-1.335.201c-.678 0-1.278-.112-1.801-.334a3.81 3.81 0 0 1-1.334-.934 4.123 4.123 0 0 1-.817-1.434 5.995 5.995 0 0 1-.267-1.835c0-.611.094-1.189.284-1.734.2-.556.478-1.04.833-1.451a4.022 4.022 0 0 1 1.318-1.001c.511-.244 1.089-.367 1.734-.367.679 0 1.284.145 1.818.434.545.278.995.65 1.351 1.117.356.467.612 1.007.767 1.618.167.601.211 1.223.134 1.868h-6.338Zm15.021 3.819h-1.868v-1.201h-.033a2.655 2.655 0 0 1-1.051 1.051 2.83 2.83 0 0 1-1.401.384c-1.134 0-1.957-.278-2.468-.834-.5-.567-.751-1.418-.751-2.552v-5.47h1.902v5.287c0 .756.144 1.289.433 1.601.289.311.695.467 1.218.467.4 0 .733-.062 1-.184s.484-.283.651-.483c.166-.212.283-.462.35-.751.078-.289.117-.6.117-.934v-5.003h1.901v8.622Zm7.592-5.07a2.927 2.927 0 0 0-.2-.867 2.03 2.03 0 0 0-.434-.717 1.882 1.882 0 0 0-.667-.5 1.841 1.841 0 0 0-.867-.201c-.334 0-.64.062-.918.184-.266.111-.5.272-.7.483-.189.201-.345.44-.467.718a2.653 2.653 0 0 0-.183.9h4.436Zm-4.436 1.251c0 .334.044.656.133.967.1.312.245.584.434.817.189.234.428.423.717.567.289.134.633.201 1.034.201.556 0 1-.117 1.334-.351.345-.244.6-.606.767-1.084h1.801c-.1.467-.272.884-.517 1.251a3.712 3.712 0 0 1-.884.934 3.745 3.745 0 0 1-1.167.55 4.388 4.388 0 0 1-1.334.201c-.679 0-1.279-.112-1.801-.334a3.805 3.805 0 0 1-1.335-.934 4.139 4.139 0 0 1-.817-1.434 5.995 5.995 0 0 1-.267-1.835c0-.611.095-1.189.284-1.734.2-.556.478-1.04.834-1.451a4.029 4.029 0 0 1 1.317-1.001c.512-.244 1.09-.367 1.735-.367.678 0 1.284.145 1.817.434.545.278.996.65 1.351 1.117.356.467.612 1.007.768 1.618.166.601.211 1.223.133 1.868h-6.337Zm15.571 3.819h-1.802v-1.167h-.033c-.256.5-.628.861-1.117 1.084a3.88 3.88 0 0 1-1.551.317c-.679 0-1.273-.117-1.785-.351a3.642 3.642 0 0 1-1.251-.984 4.192 4.192 0 0 1-.75-1.451 6.403 6.403 0 0 1-.25-1.817c0-.779.105-1.451.317-2.018.211-.567.489-1.034.834-1.401a3.255 3.255 0 0 1 1.2-.801 3.781 3.781 0 0 1 1.384-.267c.267 0 .54.028.818.084.278.044.544.122.8.233.256.111.489.256.701.434.222.167.405.367.55.6h.033v-4.403h1.902v11.908Zm-6.638-4.219c0 .367.044.728.133 1.084.1.356.245.672.434.95.2.278.45.501.75.667.301.167.656.251 1.068.251.422 0 .784-.089 1.084-.267.311-.178.561-.412.75-.701.2-.289.345-.611.434-.967.1-.367.15-.739.15-1.117 0-.957-.217-1.701-.65-2.235-.423-.534-1.001-.801-1.735-.801-.445 0-.823.095-1.134.284-.3.178-.55.417-.75.717a3.119 3.119 0 0 0-.417 1.001 5.44 5.44 0 0 0-.117 1.134Zm11.835-4.403h1.418v-.717c0-.545.066-.984.2-1.318.133-.344.311-.606.533-.784.223-.189.473-.311.751-.366.289-.067.589-.101.9-.101.612 0 1.057.039 1.335.117v1.484a2.18 2.18 0 0 0-.401-.066 3.003 3.003 0 0 0-.483-.034c-.256 0-.478.062-.667.184-.178.122-.267.361-.267.717v.884h1.618v1.417h-1.618v7.205h-1.901v-7.205h-1.418v-1.417Zm9.73 8.856c-.689 0-1.306-.112-1.851-.334a4.118 4.118 0 0 1-1.368-.951 4.19 4.19 0 0 1-.85-1.434 5.667 5.667 0 0 1-.284-1.834c0-.656.095-1.262.284-1.818a4.19 4.19 0 0 1 .85-1.434 3.922 3.922 0 0 1 1.368-.934c.545-.234 1.162-.351 1.851-.351.689 0 1.301.117 1.835.351.544.222 1 .533 1.367.934.378.4.662.878.851 1.434.2.556.3 1.162.3 1.818 0 .667-.1 1.278-.3 1.834a3.872 3.872 0 0 1-.851 1.434 3.91 3.91 0 0 1-1.367.951c-.534.222-1.146.334-1.835.334Zm0-1.501c.423 0 .789-.089 1.101-.267.311-.178.567-.412.767-.701.2-.289.345-.611.434-.967a4.172 4.172 0 0 0 0-2.218 2.743 2.743 0 0 0-.434-.967 2.324 2.324 0 0 0-.767-.701c-.312-.178-.678-.267-1.101-.267-.422 0-.789.089-1.101.267a2.324 2.324 0 0 0-.767.701c-.2.278-.35.6-.45.967a4.656 4.656 0 0 0 0 2.218c.1.356.25.678.45.967.2.289.456.523.767.701.312.178.679.267 1.101.267Zm5.6-7.355h1.784v1.668h.034c.055-.234.161-.462.317-.684.166-.222.361-.423.583-.601a2.96 2.96 0 0 1 .767-.45c.278-.111.562-.167.851-.167a3.883 3.883 0 0 1 .717.05v1.835a4.761 4.761 0 0 0-.417-.05 2.453 2.453 0 0 0-.4-.033c-.323 0-.628.066-.917.2a1.977 1.977 0 0 0-.734.567c-.211.244-.378.55-.5.917a3.983 3.983 0 0 0-.184 1.267v4.103h-1.901v-8.622Zm-73.887 16.714h2.218l4.586 11.908h-2.234l-1.118-3.152h-4.753l-1.117 3.152h-2.152l4.57-11.908Zm-.734 7.172h3.636l-1.785-5.12h-.05l-1.801 5.12Zm13.892-1.001c-.078-.534-.294-.934-.65-1.201-.345-.278-.784-.417-1.318-.417-.244 0-.506.045-.784.134a1.749 1.749 0 0 0-.767.467c-.233.222-.428.539-.583.95-.156.401-.234.929-.234 1.585 0 .356.039.711.117 1.067.089.356.222.673.4.951.189.278.428.506.717.683.289.167.64.251 1.051.251.556 0 1.012-.173 1.367-.517.367-.345.595-.829.684-1.451h1.901c-.177 1.123-.606 1.984-1.284 2.585-.667.589-1.556.884-2.668.884-.678 0-1.279-.112-1.801-.334a3.967 3.967 0 0 1-1.301-.934 4.156 4.156 0 0 1-.817-1.417 5.666 5.666 0 0 1-.267-1.768c0-.645.089-1.251.267-1.818a4.084 4.084 0 0 1 .8-1.468c.356-.422.795-.75 1.318-.984.533-.244 1.156-.367 1.868-.367.5 0 .972.067 1.417.201.456.122.856.311 1.201.567.356.255.645.578.867.967.223.389.356.85.4 1.384h-1.901Zm2.246-2.885h1.434v-2.585h1.902v2.585h1.717v1.417h-1.717v4.603c0 .201.005.373.016.517.022.145.061.267.117.367.067.1.161.178.283.234.123.044.29.067.501.067h.4c.133-.012.267-.034.4-.067v1.467l-.617.067c-.2.022-.406.033-.617.033-.5 0-.906-.044-1.217-.133-.3-.1-.54-.239-.717-.417a1.604 1.604 0 0 1-.351-.7 5.862 5.862 0 0 1-.1-.951v-5.087h-1.434v-1.417Zm6.137-3.286h1.902v1.802h-1.902v-1.802Zm0 3.286h1.902v8.622h-1.902v-8.622Zm7.592 8.856c-.689 0-1.306-.112-1.851-.334a4.118 4.118 0 0 1-1.368-.951c-.366-.4-.65-.878-.85-1.434a5.667 5.667 0 0 1-.284-1.834c0-.656.095-1.262.284-1.818.2-.556.484-1.034.85-1.434a3.922 3.922 0 0 1 1.368-.934c.545-.234 1.162-.351 1.851-.351.689 0 1.301.117 1.835.351.544.222 1 .533 1.367.934.378.4.662.878.851 1.434.2.556.3 1.162.3 1.818 0 .667-.1 1.278-.3 1.834a3.872 3.872 0 0 1-.851 1.434 3.91 3.91 0 0 1-1.367.951c-.534.222-1.146.334-1.835.334Zm0-1.501c.423 0 .79-.089 1.101-.267.311-.178.567-.412.767-.701.2-.289.345-.611.434-.967a4.172 4.172 0 0 0 0-2.218 2.743 2.743 0 0 0-.434-.967 2.324 2.324 0 0 0-.767-.701c-.311-.178-.678-.267-1.101-.267-.422 0-.789.089-1.101.267a2.324 2.324 0 0 0-.767.701c-.2.278-.35.6-.45.967a4.656 4.656 0 0 0 0 2.218c.1.356.25.678.45.967.2.289.456.523.767.701.312.178.679.267 1.101.267Zm5.6-7.355h1.801v1.267l.033.034c.29-.478.668-.851 1.135-1.118a2.97 2.97 0 0 1 1.55-.417c.946 0 1.69.245 2.235.734.545.489.817 1.223.817 2.202v5.92h-1.901v-5.42c-.022-.678-.167-1.167-.433-1.468-.267-.311-.684-.467-1.251-.467-.323 0-.612.062-.867.184a1.751 1.751 0 0 0-.651.483c-.178.201-.317.44-.417.718-.1.278-.15.572-.15.884v5.086h-1.901v-8.622Zm45.468-315.138h2.085v11.907h-2.085V33.278Zm4.042 3.285h1.801v1.2h.05c.144-.21.3-.405.467-.583a2.62 2.62 0 0 1 .55-.45c.211-.122.45-.217.717-.284.267-.077.573-.116.917-.116a3.07 3.07 0 0 1 1.451.35c.456.233.779.595.968 1.084a3.838 3.838 0 0 1 1.117-1.05c.423-.256.951-.384 1.584-.384.912 0 1.618.222 2.118.667.512.444.768 1.19.768 2.234v5.954h-1.902V40.15c0-.345-.011-.656-.033-.934a1.779 1.779 0 0 0-.2-.734 1.037 1.037 0 0 0-.467-.484c-.211-.11-.5-.166-.867-.166-.645 0-1.112.2-1.401.6-.289.4-.434.967-.434 1.701v5.053h-1.901v-5.537c0-.6-.111-1.05-.334-1.35-.211-.312-.606-.467-1.184-.467-.244 0-.483.05-.717.15-.222.1-.422.244-.6.433a2.379 2.379 0 0 0-.417.7c-.1.279-.15.596-.15.951v5.12h-1.901v-8.622Zm14.177 0h1.801v1.2h.05c.145-.21.301-.405.467-.583.167-.178.351-.328.551-.45.211-.122.45-.217.717-.284a3.28 3.28 0 0 1 .917-.116c.523 0 1.006.116 1.451.35.456.233.778.595.967 1.084a3.84 3.84 0 0 1 1.118-1.05c.422-.256.95-.384 1.584-.384.912 0 1.618.222 2.118.667.511.444.767 1.19.767 2.234v5.954h-1.901V40.15c0-.345-.011-.656-.033-.934a1.794 1.794 0 0 0-.2-.734 1.042 1.042 0 0 0-.467-.484c-.212-.11-.501-.166-.868-.166-.645 0-1.111.2-1.401.6-.289.4-.433.967-.433 1.701v5.053h-1.901v-5.537c0-.6-.112-1.05-.334-1.35-.211-.312-.606-.467-1.184-.467a1.8 1.8 0 0 0-.717.15c-.223.1-.423.244-.601.433a2.399 2.399 0 0 0-.416.7 2.773 2.773 0 0 0-.151.951v5.12h-1.901v-8.622Zm20.098 3.552a2.896 2.896 0 0 0-.2-.867 2.031 2.031 0 0 0-.433-.717 1.893 1.893 0 0 0-.667-.5 1.85 1.85 0 0 0-.868-.2c-.333 0-.639.06-.917.183-.267.111-.5.272-.7.484a2.49 2.49 0 0 0-.467.717 2.63 2.63 0 0 0-.184.9h4.436Zm-4.436 1.251c0 .334.045.656.134.968.1.31.244.583.433.817.189.233.428.422.717.567.289.133.634.2 1.034.2.556 0 1.001-.117 1.335-.35.344-.245.6-.606.767-1.084h1.801a3.6 3.6 0 0 1-.517 1.25 3.725 3.725 0 0 1-.884.934 3.773 3.773 0 0 1-1.167.55c-.423.134-.868.2-1.335.2-.678 0-1.278-.11-1.801-.333a3.81 3.81 0 0 1-1.334-.934 4.127 4.127 0 0 1-.817-1.434 5.992 5.992 0 0 1-.267-1.834c0-.612.094-1.19.283-1.735.201-.556.479-1.04.834-1.45a4.023 4.023 0 0 1 1.318-1.002c.511-.244 1.089-.366 1.734-.366.679 0 1.284.144 1.818.433a3.9 3.9 0 0 1 1.351 1.118c.356.467.611 1.006.767 1.617.167.6.211 1.223.134 1.868h-6.338Zm15.571 3.82h-1.801v-1.168h-.033c-.256.5-.628.862-1.118 1.084a3.869 3.869 0 0 1-1.551.317c-.678 0-1.273-.117-1.784-.35a3.656 3.656 0 0 1-1.251-.984 4.18 4.18 0 0 1-.75-1.451 6.406 6.406 0 0 1-.251-1.818c0-.778.106-1.451.317-2.018.212-.567.489-1.034.834-1.401a3.256 3.256 0 0 1 1.201-.8 3.779 3.779 0 0 1 1.384-.267c.267 0 .539.027.817.083.278.045.545.122.801.234.256.11.489.255.7.433.223.167.406.367.551.6h.033v-4.402h1.901v11.907Zm-6.637-4.22c0 .367.044.728.133 1.084.1.356.245.673.434.95.2.279.45.5.75.668.3.166.656.25 1.067.25.423 0 .784-.09 1.085-.267.311-.178.561-.411.75-.7.2-.29.345-.612.434-.968.1-.367.15-.74.15-1.117 0-.956-.217-1.701-.651-2.235-.422-.534-1-.8-1.734-.8-.445 0-.823.094-1.134.283-.3.178-.551.417-.751.717-.189.29-.328.623-.417 1a5.507 5.507 0 0 0-.116 1.135Zm8.427-7.688h1.901v1.8h-1.901v-1.8Zm0 3.285h1.901v8.622h-1.901v-8.622Zm10.861 6.704c0 .234.027.4.083.5.067.1.189.15.367.15h.2c.078 0 .167-.01.267-.032v1.317a2.337 2.337 0 0 1-.267.067c-.1.033-.206.06-.317.083a3.445 3.445 0 0 1-.617.067c-.389 0-.711-.078-.967-.234-.256-.155-.423-.428-.501-.817a3.354 3.354 0 0 1-1.4.8 5.403 5.403 0 0 1-1.585.25c-.389 0-.761-.055-1.117-.166-.356-.1-.673-.25-.951-.45a2.48 2.48 0 0 1-.65-.784 2.536 2.536 0 0 1-.234-1.117c0-.534.095-.968.284-1.301.2-.334.456-.595.767-.784a3.414 3.414 0 0 1 1.067-.4c.401-.09.801-.156 1.201-.2.345-.067.673-.112.984-.134.311-.033.584-.083.817-.15.245-.067.434-.167.567-.3.145-.145.217-.356.217-.634 0-.245-.061-.445-.183-.6a1.03 1.03 0 0 0-.434-.35 1.539 1.539 0 0 0-.567-.167 3.856 3.856 0 0 0-.6-.05c-.534 0-.973.11-1.318.333-.345.222-.539.567-.584 1.034h-1.901c.034-.556.167-1.017.4-1.384a2.81 2.81 0 0 1 .884-.884 3.747 3.747 0 0 1 1.235-.467 7.279 7.279 0 0 1 1.4-.133c.423 0 .84.044 1.251.133a3.45 3.45 0 0 1 1.101.434c.333.2.6.461.8.784.201.31.301.694.301 1.15v4.436Zm-1.902-2.401c-.289.189-.644.306-1.067.35a12.21 12.21 0 0 0-1.267.167 3.436 3.436 0 0 0-.584.15 1.504 1.504 0 0 0-.5.25c-.145.1-.262.24-.351.417a1.452 1.452 0 0 0-.116.617.8.8 0 0 0 .183.534c.122.144.267.261.434.35.178.078.367.133.567.167.211.033.4.05.567.05.211 0 .439-.028.683-.084.245-.055.473-.15.684-.283.223-.134.406-.3.551-.5a1.33 1.33 0 0 0 .216-.768v-1.417Zm2.747-4.303h1.434v-2.585h1.901v2.585h1.718v1.418h-1.718v4.603c0 .2.006.372.017.517.022.144.061.267.116.367.067.1.162.177.284.233.122.044.289.067.5.067h.401a2.55 2.55 0 0 0 .4-.067v1.468l-.617.066a5.57 5.57 0 0 1-.617.034c-.501 0-.906-.045-1.218-.134-.3-.1-.539-.239-.717-.417a1.604 1.604 0 0 1-.35-.7 5.75 5.75 0 0 1-.1-.95V37.98h-1.434v-1.418Zm12.007 3.552a2.896 2.896 0 0 0-.2-.867 2.031 2.031 0 0 0-.433-.717 1.893 1.893 0 0 0-.667-.5 1.85 1.85 0 0 0-.868-.2c-.333 0-.639.06-.917.183-.267.111-.5.272-.7.484a2.49 2.49 0 0 0-.467.717 2.63 2.63 0 0 0-.184.9h4.436Zm-4.436 1.251c0 .334.045.656.134.968.1.31.244.583.433.817.189.233.428.422.717.567.289.133.634.2 1.034.2.556 0 1.001-.117 1.335-.35.344-.245.6-.606.767-1.084h1.801a3.6 3.6 0 0 1-.517 1.25 3.725 3.725 0 0 1-.884.934 3.773 3.773 0 0 1-1.167.55c-.423.134-.868.2-1.335.2-.678 0-1.278-.11-1.801-.333a3.81 3.81 0 0 1-1.334-.934 4.127 4.127 0 0 1-.817-1.434 5.992 5.992 0 0 1-.267-1.834c0-.612.094-1.19.283-1.735.201-.556.479-1.04.834-1.45a4.023 4.023 0 0 1 1.318-1.002c.511-.244 1.089-.366 1.734-.366.679 0 1.284.144 1.818.433a3.9 3.9 0 0 1 1.351 1.118c.356.467.611 1.006.767 1.617.167.6.211 1.223.134 1.868h-6.338Zm18.979 1.901c0 .234.028.4.083.5.067.1.189.15.367.15h.2c.078 0 .167-.01.267-.032v1.317a2.337 2.337 0 0 1-.267.067c-.1.033-.206.06-.317.083a3.445 3.445 0 0 1-.617.067c-.389 0-.711-.078-.967-.234-.256-.155-.423-.428-.5-.817a3.358 3.358 0 0 1-1.401.8 5.403 5.403 0 0 1-1.585.25c-.389 0-.761-.055-1.117-.166-.356-.1-.673-.25-.951-.45a2.493 2.493 0 0 1-.65-.784 2.536 2.536 0 0 1-.234-1.117c0-.534.095-.968.284-1.301.2-.334.456-.595.767-.784a3.424 3.424 0 0 1 1.067-.4c.401-.09.801-.156 1.201-.2.345-.067.673-.112.984-.134a4.86 4.86 0 0 0 .817-.15c.245-.067.434-.167.567-.3.145-.145.217-.356.217-.634 0-.245-.061-.445-.183-.6a1.03 1.03 0 0 0-.434-.35 1.539 1.539 0 0 0-.567-.167 3.856 3.856 0 0 0-.6-.05c-.534 0-.973.11-1.318.333-.344.222-.539.567-.583 1.034h-1.902c.034-.556.167-1.017.401-1.384.233-.367.528-.662.883-.884a3.747 3.747 0 0 1 1.235-.467 7.282 7.282 0 0 1 1.401-.133c.422 0 .839.044 1.25.133.412.089.779.233 1.101.434.334.2.6.461.801.784.2.31.3.694.3 1.15v4.436Zm-1.901-2.401c-.29.189-.645.306-1.068.35a12.21 12.21 0 0 0-1.267.167 3.46 3.46 0 0 0-.584.15 1.504 1.504 0 0 0-.5.25c-.145.1-.262.24-.351.417a1.468 1.468 0 0 0-.116.617.8.8 0 0 0 .183.534c.122.144.267.261.434.35.178.078.367.133.567.167.211.033.4.05.567.05.211 0 .439-.028.684-.084.244-.055.472-.15.683-.283.223-.134.406-.3.551-.5a1.33 1.33 0 0 0 .217-.768v-1.417Zm9.433-1.418c-.078-.533-.294-.934-.65-1.2-.345-.278-.784-.417-1.318-.417-.244 0-.506.044-.783.133a1.755 1.755 0 0 0-.768.467c-.233.222-.428.54-.583.95-.156.4-.234.929-.234 1.585 0 .356.039.712.117 1.067.089.356.222.673.4.95.189.279.428.507.717.685.289.166.64.25 1.051.25.556 0 1.012-.172 1.368-.517.366-.345.594-.829.683-1.451h1.901c-.177 1.123-.605 1.984-1.284 2.585-.667.59-1.556.884-2.668.884-.678 0-1.279-.111-1.801-.334a3.971 3.971 0 0 1-1.301-.934 4.153 4.153 0 0 1-.817-1.417 5.66 5.66 0 0 1-.267-1.768c0-.645.089-1.25.267-1.818a4.092 4.092 0 0 1 .8-1.468c.356-.422.795-.75 1.318-.983.533-.245 1.156-.367 1.868-.367.5 0 .973.066 1.417.2.456.122.856.311 1.201.567.356.255.645.578.867.967.223.39.356.85.4 1.384h-1.901Zm2.246-2.885h1.434v-2.585h1.902v2.585h1.717v1.418h-1.717v4.603c0 .2.005.372.016.517.022.144.061.267.117.367a.66.66 0 0 0 .284.233c.122.044.289.067.5.067h.4a2.53 2.53 0 0 0 .4-.067v1.468l-.617.066a5.57 5.57 0 0 1-.617.034c-.5 0-.906-.045-1.217-.134-.3-.1-.539-.239-.717-.417a1.606 1.606 0 0 1-.351-.7 5.859 5.859 0 0 1-.1-.95V37.98h-1.434v-1.418Zm6.137-3.285h1.902v1.8h-1.902v-1.8Zm0 3.285h1.902v8.622h-1.902v-8.622Zm7.592 8.856c-.689 0-1.306-.111-1.851-.334a4.133 4.133 0 0 1-1.368-.95 4.21 4.21 0 0 1-.85-1.435 5.669 5.669 0 0 1-.284-1.834c0-.656.095-1.262.284-1.818a4.21 4.21 0 0 1 .85-1.434c.378-.4.834-.712 1.368-.934.545-.234 1.162-.35 1.851-.35.69 0 1.301.116 1.835.35.544.222 1 .534 1.367.934.378.4.662.878.851 1.434.2.556.3 1.162.3 1.818 0 .667-.1 1.279-.3 1.834a3.924 3.924 0 0 1-2.218 2.385c-.534.223-1.145.334-1.835.334Zm0-1.501c.423 0 .79-.09 1.101-.267a2.32 2.32 0 0 0 .767-.7c.2-.29.345-.612.434-.968a4.17 4.17 0 0 0 0-2.218 2.745 2.745 0 0 0-.434-.967 2.32 2.32 0 0 0-.767-.7c-.311-.178-.678-.267-1.101-.267-.422 0-.789.088-1.101.266a2.32 2.32 0 0 0-.767.7c-.2.279-.35.601-.45.968a4.654 4.654 0 0 0 0 2.218c.1.356.25.678.45.968.2.289.456.522.767.7.312.178.679.267 1.101.267Zm5.6-7.355h1.801v1.268l.034.033a3.12 3.12 0 0 1 1.134-1.117 2.975 2.975 0 0 1 1.551-.417c.945 0 1.69.244 2.234.733.545.49.818 1.223.818 2.202v5.92h-1.902v-5.42c-.022-.678-.166-1.167-.433-1.467-.267-.312-.684-.467-1.251-.467a1.98 1.98 0 0 0-.867.183 1.75 1.75 0 0 0-.651.484 2.17 2.17 0 0 0-.417.717c-.1.278-.15.572-.15.884v5.086h-1.901v-8.622Zm-118.872 20h1.785v1.668h.033a2 2 0 0 1 .317-.684c.167-.222.361-.422.584-.6a2.95 2.95 0 0 1 .767-.45 2.27 2.27 0 0 1 .851-.167c.222 0 .372.005.45.016l.267.034v1.834a4.815 4.815 0 0 0-.417-.05 2.444 2.444 0 0 0-.401-.033c-.322 0-.628.066-.917.2a1.99 1.99 0 0 0-.734.567c-.211.245-.378.55-.5.917s-.183.79-.183 1.268v4.102H208.3v-8.622Zm11.157 3.552a2.896 2.896 0 0 0-.2-.867 2.031 2.031 0 0 0-.433-.717 1.888 1.888 0 0 0-.668-.5 1.842 1.842 0 0 0-.867-.2c-.333 0-.639.06-.917.183-.267.111-.5.272-.7.484a2.49 2.49 0 0 0-.467.717 2.63 2.63 0 0 0-.184.9h4.436Zm-4.436 1.251c0 .334.045.656.134.968.1.31.244.583.433.817.189.233.428.422.717.567.289.133.634.2 1.034.2.556 0 1.001-.117 1.334-.35.345-.245.601-.606.768-1.084h1.801a3.6 3.6 0 0 1-.517 1.25 3.725 3.725 0 0 1-.884.934 3.767 3.767 0 0 1-1.168.55c-.422.134-.867.2-1.334.2-.678 0-1.278-.11-1.801-.333a3.81 3.81 0 0 1-1.334-.934 4.127 4.127 0 0 1-.817-1.434 5.992 5.992 0 0 1-.267-1.834c0-.612.094-1.19.283-1.735.201-.556.479-1.04.834-1.45a4.023 4.023 0 0 1 1.318-1.002c.511-.244 1.089-.366 1.734-.366.678 0 1.284.144 1.818.433a3.9 3.9 0 0 1 1.351 1.118c.356.467.611 1.006.767 1.617.167.6.211 1.223.134 1.868h-6.338Zm15.571 7.005h-1.901v-4.303h-.033c-.156.233-.34.44-.551.617a3.138 3.138 0 0 1-.7.417 3.319 3.319 0 0 1-.801.233 4.243 4.243 0 0 1-.834.084c-.633 0-1.184-.123-1.651-.367a3.626 3.626 0 0 1-1.167-1 4.733 4.733 0 0 1-.684-1.452 6.564 6.564 0 0 1-.217-1.684c0-.634.084-1.229.251-1.785.166-.556.416-1.04.75-1.45a3.4 3.4 0 0 1 1.251-.984c.511-.245 1.106-.367 1.784-.367.556 0 1.073.11 1.551.333.478.211.851.567 1.118 1.068h.033v-1.168h1.801v11.808Zm-6.637-7.488c0 .378.039.75.116 1.117.089.356.228.678.417.967.2.278.451.506.751.684.3.178.667.267 1.1.267.823 0 1.429-.278 1.818-.834.401-.567.601-1.3.601-2.201 0-.946-.206-1.69-.617-2.235-.401-.545-1.001-.817-1.802-.817a1.99 1.99 0 0 0-1.034.266c-.3.167-.55.395-.75.684-.2.278-.35.6-.45.968-.1.366-.15.744-.15 1.134Zm15.949 4.302h-1.868v-1.2h-.034a2.647 2.647 0 0 1-1.05 1.05 2.832 2.832 0 0 1-1.401.384c-1.134 0-1.957-.278-2.468-.834-.501-.567-.751-1.418-.751-2.552v-5.47h1.901v5.287c0 .756.145 1.29.434 1.6.289.312.695.468 1.217.468.401 0 .734-.061 1.001-.184a1.8 1.8 0 0 0 .65-.483c.167-.212.284-.462.351-.75.077-.29.116-.601.116-.935v-5.003h1.902v8.622Zm1.721-11.907h1.901v1.8h-1.901v-1.8Zm0 3.285h1.901v8.622h-1.901v-8.622Zm3.639 0h1.785v1.668h.033a2 2 0 0 1 .317-.684c.167-.222.361-.422.584-.6a2.95 2.95 0 0 1 .767-.45 2.27 2.27 0 0 1 .85-.167c.223 0 .373.005.451.016l.266.034v1.834a4.723 4.723 0 0 0-.417-.05 2.423 2.423 0 0 0-.4-.033c-.322 0-.628.066-.917.2a1.983 1.983 0 0 0-.734.567c-.211.245-.378.55-.5.917s-.184.79-.184 1.268v4.102h-1.901v-8.622Zm11.157 3.552a2.896 2.896 0 0 0-.2-.867 2.033 2.033 0 0 0-.434-.717 1.884 1.884 0 0 0-.667-.5 1.848 1.848 0 0 0-.867-.2 2.25 2.25 0 0 0-.917.183 2.028 2.028 0 0 0-.701.484 2.51 2.51 0 0 0-.467.717 2.654 2.654 0 0 0-.183.9h4.436Zm-4.436 1.251c0 .334.044.656.133.968.1.31.245.583.434.817.189.233.428.422.717.567.289.133.634.2 1.034.2.556 0 1.001-.117 1.334-.35.345-.245.601-.606.767-1.084h1.802a3.615 3.615 0 0 1-1.401 2.184 3.767 3.767 0 0 1-1.168.55c-.422.134-.867.2-1.334.2-.678 0-1.279-.11-1.801-.333a3.8 3.8 0 0 1-1.334-.934 4.145 4.145 0 0 1-.818-1.434 6.023 6.023 0 0 1-.266-1.834c0-.612.094-1.19.283-1.735.2-.556.478-1.04.834-1.45a4.023 4.023 0 0 1 1.318-1.002c.511-.244 1.089-.366 1.734-.366.678 0 1.284.144 1.818.433a3.9 3.9 0 0 1 1.351 1.118c.355.467.611 1.006.767 1.617.167.6.211 1.223.133 1.868h-6.337Zm15.571 3.82h-1.801v-1.168h-.034c-.255.5-.628.862-1.117 1.084a3.869 3.869 0 0 1-1.551.317c-.678 0-1.273-.117-1.784-.35a3.637 3.637 0 0 1-1.251-.984 4.181 4.181 0 0 1-.751-1.451 6.406 6.406 0 0 1-.25-1.818c0-.778.106-1.451.317-2.018.211-.567.489-1.034.834-1.401a3.256 3.256 0 0 1 1.201-.8 3.775 3.775 0 0 1 1.384-.267c.267 0 .539.027.817.083.278.045.545.122.801.234.255.11.489.255.7.433.222.167.406.367.55.6h.034v-4.402h1.901v11.907Zm-6.638-4.22c0 .367.045.728.134 1.084.1.356.244.673.433.95.2.279.451.5.751.668.3.166.656.25 1.067.25.423 0 .784-.09 1.084-.267a2.16 2.16 0 0 0 .751-.7c.2-.29.344-.612.433-.968.1-.367.15-.74.15-1.117 0-.956-.216-1.701-.65-2.235-.423-.534-1.001-.8-1.734-.8-.445 0-.823.094-1.135.283-.3.178-.55.417-.75.717-.189.29-.328.623-.417 1a5.439 5.439 0 0 0-.117 1.135Z"/><circle cx="186.454" cy="533.674" r="14.593" fill="#FBFBFB" stroke="#FF3800" stroke-width="4.169"/><circle cx="176.03" cy="50.032" r="14.593" fill="#FBFBFB" stroke="#FF3800" stroke-width="4.169"/><defs><filter id="a" width="392.709" height="133.032" x="227.831" y="104.661" color-interpolation-filters="sRGB" filterUnits="userSpaceOnUse"><feFlood flood-opacity="0" result="BackgroundImageFix"/><feColorMatrix in="SourceAlpha" result="hardAlpha" values="0 0 0 0 0 0 0 0 0 0 0 0 0 0 0 0 0 0 127 0"/><feOffset dx="4.169"/><feGaussianBlur stdDeviation="4.169"/><feColorMatrix values="0 0 0 0 0.411765 0 0 0 0 0.411765 0 0 0 0 0.411765 0 0 0 0.05 0"/><feBlend in2="BackgroundImageFix" result="effect1_dropShadow_139_21893"/><feColorMatrix in="SourceAlpha" result="hardAlpha" values="0 0 0 0 0 0 0 0 0 0 0 0 0 0 0 0 0 0 127 0"/><feOffset dx="12.508" dy="4.169"/><feGaussianBlur stdDeviation="6.254"/><feColorMatrix values="0 0 0 0 0.411765 0 0 0 0 0.411765 0 0 0 0 0.411765 0 0 0 0.04 0"/><feBlend in2="effect1_dropShadow_139_21893" result="effect2_dropShadow_139_21893"/><feColorMatrix in="SourceAlpha" result="hardAlpha" values="0 0 0 0 0 0 0 0 0 0 0 0 0 0 0 0 0 0 127 0"/><feOffset dx="25.016" dy="12.508"/><feGaussianBlur stdDeviation="8.339"/><feColorMatrix values="0 0 0 0 0.411765 0 0 0 0 0.411765 0 0 0 0 0.411765 0 0 0 0.03 0"/><feBlend in2="effect2_dropShadow_139_21893" result="effect3_dropShadow_139_21893"/><feColorMatrix in="SourceAlpha" result="hardAlpha" values="0 0 0 0 0 0 0 0 0 0 0 0 0 0 0 0 0 0 127 0"/><feOffset dx="41.693" dy="20.847"/><feGaussianBlur stdDeviation="10.423"/><feColorMatrix values="0 0 0 0 0.411765 0 0 0 0 0.411765 0 0 0 0 0.411765 0 0 0 0.01 0"/><feBlend in2="effect3_dropShadow_139_21893" result="effect4_dropShadow_139_21893"/><feBlend in="SourceGraphic" in2="effect4_dropShadow_139_21893" result="shape"/></filter><filter id="b" width="392.709" height="134.032" x="227.831" y="220.661" color-interpolation-filters="sRGB" filterUnits="userSpaceOnUse"><feFlood flood-opacity="0" result="BackgroundImageFix"/><feColorMatrix in="SourceAlpha" result="hardAlpha" values="0 0 0 0 0 0 0 0 0 0 0 0 0 0 0 0 0 0 127 0"/><feOffset dx="4.169"/><feGaussianBlur stdDeviation="4.169"/><feColorMatrix values="0 0 0 0 0.411765 0 0 0 0 0.411765 0 0 0 0 0.411765 0 0 0 0.05 0"/><feBlend in2="BackgroundImageFix" result="effect1_dropShadow_139_21893"/><feColorMatrix in="SourceAlpha" result="hardAlpha" values="0 0 0 0 0 0 0 0 0 0 0 0 0 0 0 0 0 0 127 0"/><feOffset dx="12.508" dy="4.169"/><feGaussianBlur stdDeviation="6.254"/><feColorMatrix values="0 0 0 0 0.411765 0 0 0 0 0.411765 0 0 0 0 0.411765 0 0 0 0.04 0"/><feBlend in2="effect1_dropShadow_139_21893" result="effect2_dropShadow_139_21893"/><feColorMatrix in="SourceAlpha" result="hardAlpha" values="0 0 0 0 0 0 0 0 0 0 0 0 0 0 0 0 0 0 127 0"/><feOffset dx="25.016" dy="12.508"/><feGaussianBlur stdDeviation="8.339"/><feColorMatrix values="0 0 0 0 0.411765 0 0 0 0 0.411765 0 0 0 0 0.411765 0 0 0 0.03 0"/><feBlend in2="effect2_dropShadow_139_21893" result="effect3_dropShadow_139_21893"/><feColorMatrix in="SourceAlpha" result="hardAlpha" values="0 0 0 0 0 0 0 0 0 0 0 0 0 0 0 0 0 0 127 0"/><feOffset dx="41.693" dy="20.847"/><feGaussianBlur stdDeviation="10.423"/><feColorMatrix values="0 0 0 0 0.411765 0 0 0 0 0.411765 0 0 0 0 0.411765 0 0 0 0.01 0"/><feBlend in2="effect3_dropShadow_139_21893" result="effect4_dropShadow_139_21893"/><feBlend in="SourceGraphic" in2="effect4_dropShadow_139_21893" result="shape"/></filter><filter id="c" width="392.709" height="133.032" x="227.831" y="337.661" color-interpolation-filters="sRGB" filterUnits="userSpaceOnUse"><feFlood flood-opacity="0" result="BackgroundImageFix"/><feColorMatrix in="SourceAlpha" result="hardAlpha" values="0 0 0 0 0 0 0 0 0 0 0 0 0 0 0 0 0 0 127 0"/><feOffset dx="4.169"/><feGaussianBlur stdDeviation="4.169"/><feColorMatrix values="0 0 0 0 0.411765 0 0 0 0 0.411765 0 0 0 0 0.411765 0 0 0 0.05 0"/><feBlend in2="BackgroundImageFix" result="effect1_dropShadow_139_21893"/><feColorMatrix in="SourceAlpha" result="hardAlpha" values="0 0 0 0 0 0 0 0 0 0 0 0 0 0 0 0 0 0 127 0"/><feOffset dx="12.508" dy="4.169"/><feGaussianBlur stdDeviation="6.254"/><feColorMatrix values="0 0 0 0 0.411765 0 0 0 0 0.411765 0 0 0 0 0.411765 0 0 0 0.04 0"/><feBlend in2="effect1_dropShadow_139_21893" result="effect2_dropShadow_139_21893"/><feColorMatrix in="SourceAlpha" result="hardAlpha" values="0 0 0 0 0 0 0 0 0 0 0 0 0 0 0 0 0 0 127 0"/><feOffset dx="25.016" dy="12.508"/><feGaussianBlur stdDeviation="8.339"/><feColorMatrix values="0 0 0 0 0.411765 0 0 0 0 0.411765 0 0 0 0 0.411765 0 0 0 0.03 0"/><feBlend in2="effect2_dropShadow_139_21893" result="effect3_dropShadow_139_21893"/><feColorMatrix in="SourceAlpha" result="hardAlpha" values="0 0 0 0 0 0 0 0 0 0 0 0 0 0 0 0 0 0 127 0"/><feOffset dx="41.693" dy="20.847"/><feGaussianBlur stdDeviation="10.423"/><feColorMatrix values="0 0 0 0 0.411765 0 0 0 0 0.411765 0 0 0 0 0.411765 0 0 0 0.01 0"/><feBlend in2="effect3_dropShadow_139_21893" result="effect4_dropShadow_139_21893"/><feBlend in="SourceGraphic" in2="effect4_dropShadow_139_21893" result="shape"/></filter><filter id="d" width="392.709" height="133.032" x="227.831" y="454.661" color-interpolation-filters="sRGB" filterUnits="userSpaceOnUse"><feFlood flood-opacity="0" result="BackgroundImageFix"/><feColorMatrix in="SourceAlpha" result="hardAlpha" values="0 0 0 0 0 0 0 0 0 0 0 0 0 0 0 0 0 0 127 0"/><feOffset dx="4.169"/><feGaussianBlur stdDeviation="4.169"/><feColorMatrix values="0 0 0 0 0.411765 0 0 0 0 0.411765 0 0 0 0 0.411765 0 0 0 0.05 0"/><feBlend in2="BackgroundImageFix" result="effect1_dropShadow_139_21893"/><feColorMatrix in="SourceAlpha" result="hardAlpha" values="0 0 0 0 0 0 0 0 0 0 0 0 0 0 0 0 0 0 127 0"/><feOffset dx="12.508" dy="4.169"/><feGaussianBlur stdDeviation="6.254"/><feColorMatrix values="0 0 0 0 0.411765 0 0 0 0 0.411765 0 0 0 0 0.411765 0 0 0 0.04 0"/><feBlend in2="effect1_dropShadow_139_21893" result="effect2_dropShadow_139_21893"/><feColorMatrix in="SourceAlpha" result="hardAlpha" values="0 0 0 0 0 0 0 0 0 0 0 0 0 0 0 0 0 0 127 0"/><feOffset dx="25.016" dy="12.508"/><feGaussianBlur stdDeviation="8.339"/><feColorMatrix values="0 0 0 0 0.411765 0 0 0 0 0.411765 0 0 0 0 0.411765 0 0 0 0.03 0"/><feBlend in2="effect2_dropShadow_139_21893" result="effect3_dropShadow_139_21893"/><feColorMatrix in="SourceAlpha" result="hardAlpha" values="0 0 0 0 0 0 0 0 0 0 0 0 0 0 0 0 0 0 127 0"/><feOffset dx="41.693" dy="20.847"/><feGaussianBlur stdDeviation="10.423"/><feColorMatrix values="0 0 0 0 0.411765 0 0 0 0 0.411765 0 0 0 0 0.411765 0 0 0 0.01 0"/><feBlend in2="effect3_dropShadow_139_21893" result="effect4_dropShadow_139_21893"/><feBlend in="SourceGraphic" in2="effect4_dropShadow_139_21893" result="shape"/></filter></defs></svg>