<svg xmlns="http://www.w3.org/2000/svg" width="595" height="586" fill="none"><path stroke="#A1A1A1" stroke-width="2.107" d="M201.393 220.107h25.285c13.965 0 25.286-11.321 25.286-25.286v-75.857"/><path stroke="#A1A1A1" stroke-width="2.107" d="M207.714 357.071h40.036c13.964 0 25.285-11.32 25.285-25.285V112.643M380.5 399.214v-10.535c0-13.965-11.321-25.286-25.286-25.286H336.25c-13.965 0-25.286-11.321-25.286-25.286V121.071"/><path stroke="#A1A1A1" stroke-width="2.107" d="M214.036 502.465h52.679c13.965 0 25.285-11.321 25.285-25.286v-354m126.429 128.535V232.75c0-13.965-11.321-25.286-25.286-25.286h-35.821c-13.965 0-25.286-11.321-25.286-25.286v-65.321"/><g filter="url(#a)"><path fill="#FB2F00" d="M144.5 62.072C144.5 50.434 153.934 41 165.571 41h248.643c11.638 0 21.072 9.434 21.072 21.071v42.143c0 11.638-9.434 21.072-21.072 21.072H165.571c-11.637 0-21.071-9.434-21.071-21.072V62.072Z"/><path stroke="url(#b)" stroke-width="4.214" d="M165.571 43.107h248.644c10.473 0 18.964 8.49 18.964 18.964v42.143c0 10.473-8.491 18.964-18.964 18.965H165.571c-10.473 0-18.964-8.491-18.964-18.965V62.071c.001-10.473 8.491-18.963 18.964-18.964Z"/></g><path fill="#fff" d="M226.088 79.091a4.176 4.176 0 0 0-.607-1.652 5.116 5.116 0 0 0-2.798-2.225 5.118 5.118 0 0 0-1.854-.337c-1.192 0-2.203.236-3.035.708a5.532 5.532 0 0 0-2.022 1.854c-.517.764-.899 1.64-1.147 2.63a13.846 13.846 0 0 0-.337 3.068c0 1.011.113 2 .337 2.966.248.945.63 1.799 1.147 2.563a5.948 5.948 0 0 0 2.022 1.854c.832.45 1.843.674 3.035.674 1.618 0 2.877-.494 3.776-1.483.921-.989 1.483-2.293 1.685-3.91h5.125c-.135 1.505-.483 2.865-1.045 4.078-.562 1.214-1.304 2.248-2.225 3.102a9.466 9.466 0 0 1-3.237 1.956c-1.236.45-2.596.674-4.079.674-1.843 0-3.507-.315-4.99-.944-1.461-.652-2.697-1.54-3.709-2.663-1.011-1.124-1.786-2.44-2.326-3.945-.539-1.528-.809-3.17-.809-4.922 0-1.798.27-3.462.809-4.99.54-1.55 1.315-2.9 2.326-4.046 1.012-1.146 2.248-2.045 3.709-2.697 1.483-.652 3.147-.978 4.99-.978 1.326 0 2.573.191 3.742.573a9.748 9.748 0 0 1 3.169 1.686 8.706 8.706 0 0 1 2.326 2.697c.607 1.08.989 2.315 1.147 3.709h-5.125ZM234.355 71h5.293v9.237h9.744V71h5.293v24.072h-5.293V84.686h-9.744v10.385h-5.293V70.999Zm24.315 0h18.004v4.45h-12.71v5.158h11.665v4.113h-11.665v5.9h12.98v4.45H258.67V71Zm37.236 8.091a4.176 4.176 0 0 0-.607-1.652 5.127 5.127 0 0 0-2.798-2.225 5.127 5.127 0 0 0-1.855-.337c-1.191 0-2.202.236-3.034.708a5.527 5.527 0 0 0-2.023 1.854c-.517.764-.899 1.64-1.146 2.63a13.787 13.787 0 0 0-.337 3.068c0 1.011.112 2 .337 2.966a8.268 8.268 0 0 0 1.146 2.563 5.942 5.942 0 0 0 2.023 1.854c.832.45 1.843.674 3.034.674 1.619 0 2.877-.494 3.776-1.483.922-.989 1.484-2.293 1.686-3.91h5.125c-.135 1.505-.484 2.865-1.046 4.078-.561 1.214-1.303 2.248-2.225 3.102-.921.854-2 1.506-3.236 1.956-1.236.45-2.596.674-4.08.674-1.843 0-3.506-.315-4.989-.944-1.461-.652-2.698-1.54-3.709-2.663-1.011-1.124-1.787-2.44-2.326-3.945-.54-1.528-.809-3.17-.809-4.922 0-1.798.269-3.462.809-4.99.539-1.55 1.315-2.9 2.326-4.046 1.011-1.146 2.248-2.045 3.709-2.697 1.483-.652 3.146-.978 4.989-.978 1.326 0 2.574.191 3.743.573a9.758 9.758 0 0 1 3.169 1.686 8.72 8.72 0 0 1 2.326 2.697c.607 1.08.989 2.315 1.146 3.709h-5.124ZM304.173 71h5.293v9.979l9.406-9.98h6.608l-9.406 9.508 10.317 14.564h-6.642L312.5 84.25l-3.034 3.068v7.755h-5.293V70.999Zm32.366 0h5.293v24.072h-5.293V70.999Zm9.268 0h5.26l10.047 16.149h.067v-16.15h4.956v24.073h-5.293l-10.013-16.116h-.068v16.115h-4.956V71Z"/><g filter="url(#c)"><path fill="#fff" d="M56 192.715c0-11.638 9.434-21.072 21.071-21.072H203.5c11.637 0 21.071 9.434 21.071 21.071v42.143c0 11.638-9.434 21.072-21.071 21.072H77.072c-11.638 0-21.072-9.434-21.072-21.072v-42.142Z"/></g><path fill="#4D4A4A" d="m86.379 203.229-1.157 1.29-1.972-1.726a5.78 5.78 0 0 1-1.574.626 7.127 7.127 0 0 1-1.612.19c-1.012 0-1.922-.184-2.731-.55a6.13 6.13 0 0 1-2.03-1.537 6.96 6.96 0 0 1-1.289-2.256 8.533 8.533 0 0 1-.436-2.75c0-.961.145-1.871.436-2.731a6.965 6.965 0 0 1 1.29-2.257 6.113 6.113 0 0 1 2.029-1.536c.81-.379 1.72-.569 2.73-.569 1.012 0 1.916.19 2.713.569a6.06 6.06 0 0 1 2.048 1.536 6.7 6.7 0 0 1 1.27 2.257c.304.86.456 1.77.456 2.731a8.884 8.884 0 0 1-.455 2.807 7.136 7.136 0 0 1-.588 1.308c-.24.405-.531.765-.873 1.081l1.745 1.517Zm-6.163-3.072 1.137-1.309 1.65 1.442c.43-.519.734-1.106.91-1.764a7.693 7.693 0 0 0 .266-2.01c0-.645-.082-1.277-.246-1.897a4.994 4.994 0 0 0-.721-1.649 3.6 3.6 0 0 0-1.29-1.176c-.518-.291-1.138-.436-1.858-.436-.72 0-1.347.145-1.878.436a3.648 3.648 0 0 0-1.27 1.176 5.298 5.298 0 0 0-.74 1.649 7.95 7.95 0 0 0-.227 1.897c0 .645.076 1.277.227 1.896.165.62.411 1.176.74 1.669a3.72 3.72 0 0 0 1.27 1.157c.531.291 1.157.436 1.878.436.253 0 .506-.025.758-.076a3.1 3.1 0 0 0 .759-.246l-1.365-1.195Zm16.418 3.129H94.51v-1.365h-.038c-.265.493-.663.891-1.194 1.194a3.217 3.217 0 0 1-1.594.437c-1.29 0-2.225-.316-2.806-.949-.57-.644-.854-1.612-.854-2.901v-6.22h2.162v6.011c0 .86.165 1.467.493 1.821.33.354.79.531 1.385.531.455 0 .834-.07 1.138-.209.303-.139.55-.322.74-.55.189-.24.322-.524.398-.853.088-.329.132-.683.132-1.062v-5.689h2.162v9.804Zm6.395.266c-.784 0-1.485-.127-2.105-.38a4.682 4.682 0 0 1-1.555-1.081 4.766 4.766 0 0 1-.967-1.631 6.444 6.444 0 0 1-.322-2.086c0-.746.107-1.435.322-2.067.228-.632.55-1.176.967-1.631a4.48 4.48 0 0 1 1.555-1.062c.62-.265 1.321-.398 2.105-.398s1.48.133 2.086.398c.62.253 1.138.607 1.555 1.062.43.455.753.999.968 1.631.227.632.341 1.321.341 2.067a6.13 6.13 0 0 1-.341 2.086 4.399 4.399 0 0 1-.968 1.631 4.433 4.433 0 0 1-1.555 1.081c-.606.253-1.302.38-2.086.38Zm0-1.707c.481 0 .898-.101 1.252-.304.354-.202.645-.467.872-.796.228-.329.392-.695.493-1.1a4.726 4.726 0 0 0 0-2.522 3.109 3.109 0 0 0-.493-1.1 2.637 2.637 0 0 0-.872-.797c-.354-.202-.771-.303-1.252-.303-.48 0-.897.101-1.251.303a2.65 2.65 0 0 0-.873.797 3.407 3.407 0 0 0-.512 1.1 5.382 5.382 0 0 0 0 2.522c.114.405.285.771.512 1.1.228.329.519.594.873.796.354.203.771.304 1.251.304Zm5.382-8.363h1.631v-2.94h2.162v2.94h1.953v1.612h-1.953v5.234c0 .227.006.423.019.588.025.164.069.303.132.417a.747.747 0 0 0 .323.265c.139.051.329.076.569.076h.455a2.77 2.77 0 0 0 .455-.076v1.669l-.702.076a6.404 6.404 0 0 1-.701.038c-.569 0-1.031-.051-1.385-.152-.341-.114-.613-.272-.815-.474a1.81 1.81 0 0 1-.398-.796 6.453 6.453 0 0 1-.114-1.081v-5.784h-1.631v-1.612Zm13.654 4.039a3.3 3.3 0 0 0-.227-.986 2.32 2.32 0 0 0-.493-.816 2.16 2.16 0 0 0-.759-.569 2.107 2.107 0 0 0-.986-.227c-.379 0-.727.069-1.043.208-.304.127-.569.31-.797.55-.215.228-.392.5-.531.816a3.008 3.008 0 0 0-.208 1.024h5.044Zm-5.044 1.422c0 .38.05.746.152 1.1.113.354.278.664.493.929.215.266.486.481.815.645.329.152.721.228 1.176.228.632 0 1.138-.133 1.517-.398.392-.279.683-.689.872-1.233h2.048a4.06 4.06 0 0 1-.587 1.422 4.26 4.26 0 0 1-1.006 1.062 4.27 4.27 0 0 1-1.327.626c-.48.152-.986.228-1.517.228-.771 0-1.454-.127-2.048-.38a4.322 4.322 0 0 1-1.517-1.062 4.685 4.685 0 0 1-.93-1.631 6.822 6.822 0 0 1-.303-2.086c0-.695.107-1.352.322-1.972a5.193 5.193 0 0 1 .948-1.65c.418-.48.917-.86 1.499-1.138.581-.278 1.239-.417 1.972-.417.771 0 1.46.164 2.067.493.62.316 1.132.74 1.536 1.271a5.05 5.05 0 0 1 .873 1.839c.189.683.24 1.391.151 2.124h-7.206Zm13.426-9.197h2.162v2.048h-2.162v-2.048Zm0 3.736h2.162v9.804h-2.162v-9.804Zm13.374 9.804h-2.048v-1.327h-.038a2.612 2.612 0 0 1-1.271 1.232 4.386 4.386 0 0 1-1.763.361c-.772 0-1.448-.133-2.029-.399a4.144 4.144 0 0 1-1.423-1.119 4.741 4.741 0 0 1-.853-1.649 7.284 7.284 0 0 1-.285-2.068c0-.885.12-1.649.361-2.294.24-.645.556-1.176.948-1.593.404-.417.86-.721 1.365-.91a4.286 4.286 0 0 1 1.574-.304c.304 0 .614.032.93.095.316.05.619.139.91.265.291.127.556.291.796.493.253.19.462.418.626.683h.038v-5.006h2.162v13.54Zm-7.548-4.798c0 .417.051.828.152 1.233.114.404.278.765.493 1.081.228.316.512.569.853.758.342.19.746.285 1.214.285.481 0 .891-.101 1.233-.304.354-.202.638-.467.853-.796.228-.329.392-.695.493-1.1a4.8 4.8 0 0 0 .171-1.271c0-1.087-.247-1.934-.74-2.541-.48-.607-1.137-.91-1.972-.91-.506 0-.935.107-1.289.322a2.628 2.628 0 0 0-.854.816 3.53 3.53 0 0 0-.474 1.138 6.229 6.229 0 0 0-.133 1.289Zm9.583-8.742h2.162v13.54h-2.162v-13.54Zm10.871 7.775a3.27 3.27 0 0 0-.228-.986 2.305 2.305 0 0 0-.493-.816 2.155 2.155 0 0 0-.758-.569 2.11 2.11 0 0 0-.986-.227c-.38 0-.727.069-1.043.208-.304.127-.569.31-.797.55-.215.228-.392.5-.531.816a3.033 3.033 0 0 0-.209 1.024h5.045Zm-5.045 1.422c0 .38.051.746.152 1.1.114.354.278.664.493.929.215.266.487.481.816.645.328.152.72.228 1.176.228.632 0 1.137-.133 1.517-.398.392-.279.682-.689.872-1.233h2.048a4.08 4.08 0 0 1-.588 1.422 4.238 4.238 0 0 1-1.005 1.062 4.282 4.282 0 0 1-1.327.626 5.002 5.002 0 0 1-1.517.228c-.772 0-1.454-.127-2.049-.38a4.33 4.33 0 0 1-1.517-1.062 4.699 4.699 0 0 1-.929-1.631 6.822 6.822 0 0 1-.303-2.086c0-.695.107-1.352.322-1.972a5.193 5.193 0 0 1 .948-1.65c.417-.48.917-.86 1.498-1.138.582-.278 1.239-.417 1.973-.417.771 0 1.46.164 2.067.493.619.316 1.131.74 1.536 1.271.404.531.695 1.144.872 1.839.19.683.24 1.391.152 2.124h-7.207Zm12.896-8.932h9.084v1.802a23.008 23.008 0 0 0-1.897 2.446 17.774 17.774 0 0 0-1.498 2.674 18.43 18.43 0 0 0-1.024 2.977 19.752 19.752 0 0 0-.531 3.376h-2.37a16.2 16.2 0 0 1 .531-3.11c.29-1.024.657-2.017 1.1-2.977.455-.961.979-1.884 1.574-2.769a23.548 23.548 0 0 1 1.915-2.485h-6.884v-1.934Zm19.868 13.275h-2.048v-1.327h-.038a2.612 2.612 0 0 1-1.271 1.232 4.386 4.386 0 0 1-1.763.361c-.771 0-1.448-.133-2.029-.399a4.153 4.153 0 0 1-1.423-1.119 4.758 4.758 0 0 1-.853-1.649 7.284 7.284 0 0 1-.285-2.068c0-.885.121-1.649.361-2.294s.556-1.176.948-1.593c.405-.417.86-.721 1.365-.91a4.286 4.286 0 0 1 1.574-.304c.304 0 .614.032.93.095.316.05.619.139.91.265.291.127.556.291.796.493.253.19.462.418.626.683h.038v-5.006h2.162v13.54Zm-7.548-4.798c0 .417.051.828.152 1.233.114.404.278.765.493 1.081.228.316.512.569.854.758.341.19.745.285 1.213.285.481 0 .892-.101 1.233-.304.354-.202.638-.467.853-.796.228-.329.392-.695.493-1.1a4.8 4.8 0 0 0 .171-1.271c0-1.087-.246-1.934-.74-2.541-.48-.607-1.137-.91-1.972-.91-.506 0-.935.107-1.289.322a2.628 2.628 0 0 0-.854.816 3.53 3.53 0 0 0-.474 1.138 6.229 6.229 0 0 0-.133 1.289Z"/><rect width="88.5" height="25.286" x="72.857" y="222.214" fill="#FFB8A7" rx="12.643"/><path fill="#FB2F00" d="M96.016 238.429h-1.778l3.237-9.195h2.057l3.241 9.195h-1.778l-2.455-7.309h-.072l-2.452 7.309Zm.059-3.605h4.849v1.337h-4.85v-1.337Zm15.348-2.488h-1.679a2.113 2.113 0 0 0-.265-.732 1.963 1.963 0 0 0-1.136-.884 2.558 2.558 0 0 0-.786-.117c-.5 0-.943.126-1.329.377-.386.249-.688.614-.907 1.096-.218.479-.328 1.064-.328 1.755 0 .704.11 1.296.328 1.778.222.479.524.841.907 1.087.386.242.828.363 1.325.363.275 0 .532-.036.772-.107.242-.075.459-.184.651-.328a1.995 1.995 0 0 0 .768-1.248l1.679.009a3.607 3.607 0 0 1-.409 1.23 3.618 3.618 0 0 1-.813 1.015c-.335.29-.727.517-1.176.682a4.378 4.378 0 0 1-1.495.242c-.808 0-1.529-.187-2.164-.561-.634-.374-1.134-.914-1.499-1.621-.366-.706-.548-1.553-.548-2.541 0-.99.184-1.837.552-2.541.368-.706.87-1.246 1.504-1.621.635-.374 1.353-.561 2.155-.561.512 0 .988.072 1.428.216.44.143.832.354 1.176.633.344.275.627.613.849 1.014.224.398.371.853.44 1.365Zm1.121-1.706v-1.396h7.336v1.396h-2.842v7.799h-1.652v-7.799h-2.842Zm10.416-1.396v9.195h-1.666v-9.195h1.666Zm3.034 0 2.393 7.237h.094l2.389-7.237h1.831l-3.241 9.195h-2.056l-3.237-9.195h1.827Zm7.918 9.195v-9.195h5.981v1.396h-4.315v2.496h4.005v1.397h-4.005v2.509h4.351v1.397h-6.017Z"/><g filter="url(#d)"><path fill="#fff" d="M359.429 267.357c0-11.637 9.434-21.071 21.071-21.071h126.429c11.637 0 21.071 9.434 21.071 21.071V309.5c0 11.637-9.434 21.071-21.071 21.071H380.5c-11.637 0-21.071-9.434-21.071-21.071v-42.143Z"/></g><path fill="#4D4A4A" d="M381.478 268.934a4.274 4.274 0 0 0-.371-.961 2.685 2.685 0 0 0-.607-.759 2.586 2.586 0 0 0-.877-.489 3.24 3.24 0 0 0-1.146-.185c-.641 0-1.197.129-1.669.388a3.232 3.232 0 0 0-1.129 1.045 4.72 4.72 0 0 0-.658 1.466 7.059 7.059 0 0 0-.202 1.686c0 .573.067 1.135.202 1.686.146.55.366 1.045.658 1.483a3.3 3.3 0 0 0 1.129 1.028c.472.259 1.028.388 1.669.388.472 0 .888-.078 1.247-.236.36-.168.669-.393.928-.674.258-.292.46-.629.606-1.012.147-.382.242-.792.287-1.23h2.057a5.598 5.598 0 0 1-.472 1.972 4.833 4.833 0 0 1-1.062 1.551c-.45.427-.978.759-1.585.995a5.493 5.493 0 0 1-2.006.354c-.899 0-1.708-.163-2.427-.489a5.438 5.438 0 0 1-1.804-1.366 6.157 6.157 0 0 1-1.146-2.006 7.563 7.563 0 0 1-.388-2.444c0-.854.129-1.663.388-2.427a6.157 6.157 0 0 1 1.146-2.006 5.424 5.424 0 0 1 1.804-1.366c.719-.337 1.528-.506 2.427-.506.674 0 1.309.096 1.905.287.595.18 1.118.45 1.568.809.46.349.831.776 1.112 1.281a4.5 4.5 0 0 1 .523 1.737h-2.107Zm3.433-3.827h1.922v4.467h.033c.236-.393.585-.719 1.046-.978a3.108 3.108 0 0 1 1.567-.404c.956 0 1.709.247 2.259.742.551.494.826 1.236.826 2.225v5.984h-1.922v-5.479c-.022-.685-.168-1.18-.438-1.483-.27-.315-.691-.472-1.264-.472-.326 0-.618.062-.877.185a1.787 1.787 0 0 0-.657.489c-.18.203-.32.444-.422.725a2.623 2.623 0 0 0-.151.894v5.141h-1.922v-12.036Zm16.642 10.097c0 .236.028.405.084.506.067.101.191.152.371.152h.202c.079 0 .169-.011.27-.034v1.332a2.35 2.35 0 0 1-.27.067 2.717 2.717 0 0 1-.32.085 3.606 3.606 0 0 1-.624.067c-.393 0-.719-.079-.978-.236-.258-.157-.427-.433-.505-.826a3.386 3.386 0 0 1-1.416.809 5.451 5.451 0 0 1-1.602.253c-.393 0-.77-.056-1.129-.169a3.013 3.013 0 0 1-.961-.455 2.484 2.484 0 0 1-.657-.792 2.558 2.558 0 0 1-.236-1.129c0-.54.095-.978.286-1.315.202-.337.461-.601.776-.793a3.455 3.455 0 0 1 1.078-.404c.405-.09.81-.157 1.214-.202.349-.068.68-.113.995-.135.314-.034.59-.085.826-.152.247-.067.438-.169.573-.303.146-.146.219-.36.219-.641 0-.247-.062-.449-.185-.607a1.05 1.05 0 0 0-.439-.354 1.533 1.533 0 0 0-.573-.168 3.863 3.863 0 0 0-.607-.051c-.539 0-.983.112-1.331.337-.349.225-.545.573-.59 1.045h-1.922c.034-.562.168-1.028.404-1.399.236-.371.534-.668.894-.893a3.784 3.784 0 0 1 1.247-.472c.461-.09.933-.135 1.416-.135.427 0 .849.045 1.265.135.415.09.786.236 1.112.438.337.202.607.466.809.792.203.315.304.703.304 1.163v4.484Zm-1.922-2.427c-.292.191-.652.309-1.079.354-.427.034-.854.09-1.281.169a3.473 3.473 0 0 0-.59.151c-.191.057-.36.141-.506.253a1.096 1.096 0 0 0-.354.422 1.476 1.476 0 0 0-.118.623c0 .214.062.394.186.54.123.146.269.264.438.354.18.078.371.135.573.168.214.034.405.051.573.051.214 0 .444-.028.691-.084.248-.057.478-.152.692-.287.224-.135.41-.303.556-.506.146-.213.219-.472.219-.775v-1.433Zm3.652-4.349h1.821v1.214h.05a4.98 4.98 0 0 1 .472-.59c.169-.18.354-.332.557-.456.213-.123.455-.219.725-.286.269-.079.578-.118.927-.118.528 0 1.017.118 1.466.354.461.236.787.601.978 1.096.326-.45.702-.804 1.129-1.062.428-.259.961-.388 1.602-.388.921 0 1.635.225 2.141.674.517.45.775 1.203.775 2.259v6.018h-1.922v-5.091c0-.348-.011-.663-.033-.944a1.803 1.803 0 0 0-.203-.742 1.043 1.043 0 0 0-.472-.488c-.213-.113-.505-.169-.876-.169-.652 0-1.124.202-1.416.607-.292.404-.438.978-.438 1.719v5.108h-1.922v-5.597c0-.606-.112-1.062-.337-1.365-.214-.315-.613-.472-1.197-.472-.247 0-.489.051-.725.152a1.899 1.899 0 0 0-.607.438 2.416 2.416 0 0 0-.421.708 2.83 2.83 0 0 0-.152.961v5.175h-1.922v-8.715Zm14.381 0h1.821v1.18h.034c.269-.506.646-.865 1.129-1.079a3.668 3.668 0 0 1 1.568-.337c.685 0 1.281.124 1.787.371.517.236.944.567 1.281.994.337.416.59.905.758 1.467.169.562.253 1.163.253 1.804 0 .584-.078 1.152-.236 1.702a4.298 4.298 0 0 1-.691 1.467 3.483 3.483 0 0 1-1.163 1.011c-.472.247-1.028.371-1.669.371-.281 0-.562-.028-.843-.084a3.372 3.372 0 0 1-.809-.236 3.621 3.621 0 0 1-.725-.422 2.588 2.588 0 0 1-.539-.623h-.034v4.349h-1.922v-11.935Zm6.71 4.366c0-.393-.051-.776-.152-1.146a3.016 3.016 0 0 0-.455-.978 2.23 2.23 0 0 0-.759-.691 2.008 2.008 0 0 0-1.045-.27c-.809 0-1.422.281-1.837.843-.405.562-.607 1.309-.607 2.242 0 .438.05.848.151 1.23.113.371.276.692.489.961.214.27.467.484.759.641.303.157.652.236 1.045.236.438 0 .809-.09 1.113-.27.303-.18.55-.41.741-.691.203-.292.343-.618.422-.978a4.77 4.77 0 0 0 .135-1.129Zm3.259-7.687h1.921v1.821h-1.921v-1.821Zm0 3.321h1.921v8.715h-1.921v-8.715Zm7.673 8.951c-.697 0-1.32-.112-1.871-.337-.539-.236-1-.556-1.382-.961a4.243 4.243 0 0 1-.86-1.45 5.731 5.731 0 0 1-.287-1.854c0-.663.096-1.275.287-1.837a4.233 4.233 0 0 1 .86-1.45 3.98 3.98 0 0 1 1.382-.944c.551-.236 1.174-.354 1.871-.354.697 0 1.315.118 1.854.354a3.782 3.782 0 0 1 1.383.944c.382.404.668.888.859 1.45.203.562.304 1.174.304 1.837 0 .674-.101 1.292-.304 1.854a3.958 3.958 0 0 1-2.242 2.411c-.539.225-1.157.337-1.854.337Zm0-1.517c.427 0 .798-.09 1.113-.27a2.35 2.35 0 0 0 .775-.708c.202-.292.349-.618.438-.978a4.232 4.232 0 0 0 0-2.242 2.763 2.763 0 0 0-.438-.977 2.35 2.35 0 0 0-.775-.708c-.315-.18-.686-.27-1.113-.27-.427 0-.798.09-1.112.27-.315.18-.574.416-.776.708a3.02 3.02 0 0 0-.455.977 4.706 4.706 0 0 0 0 2.242c.101.36.253.686.455.978.202.292.461.528.776.708.314.18.685.27 1.112.27Zm5.66-7.434h1.821v1.281l.034.034c.292-.483.674-.86 1.146-1.13a3.005 3.005 0 0 1 1.568-.421c.955 0 1.708.247 2.258.742.551.494.826 1.236.826 2.225v5.984h-1.921v-5.479c-.023-.685-.169-1.18-.439-1.483-.269-.315-.691-.472-1.264-.472-.326 0-.618.062-.876.185a1.783 1.783 0 0 0-.658.489c-.18.203-.32.444-.421.725a2.623 2.623 0 0 0-.152.894v5.141h-1.922v-8.715Zm13.748-3.321h1.922v12.036h-1.922v-12.036Zm9.663 6.911a2.927 2.927 0 0 0-.203-.876 2.05 2.05 0 0 0-.438-.725 1.914 1.914 0 0 0-.674-.506 1.868 1.868 0 0 0-.877-.202c-.337 0-.646.062-.927.185-.27.113-.506.276-.708.489a2.544 2.544 0 0 0-.472.725 2.687 2.687 0 0 0-.185.91h4.484Zm-4.484 1.265c0 .337.045.663.135.977.101.315.247.59.438.826s.432.428.725.574c.292.134.64.202 1.045.202.562 0 1.011-.118 1.348-.354.349-.247.607-.613.776-1.096h1.82a3.616 3.616 0 0 1-.522 1.264 3.741 3.741 0 0 1-.894.944 3.786 3.786 0 0 1-1.18.557 4.443 4.443 0 0 1-1.348.202c-.686 0-1.293-.112-1.821-.337a3.858 3.858 0 0 1-1.348-.944 4.174 4.174 0 0 1-.826-1.45 6.053 6.053 0 0 1-.27-1.854c0-.618.095-1.203.287-1.753a4.604 4.604 0 0 1 .842-1.467 4.067 4.067 0 0 1 1.332-1.011c.517-.247 1.101-.371 1.753-.371.686 0 1.298.146 1.838.438.55.281 1.005.658 1.365 1.13a4.5 4.5 0 0 1 .776 1.635c.168.607.213 1.236.134 1.888h-6.405Zm6.669-4.855h1.433v-.725c0-.551.068-.995.203-1.332.134-.348.314-.612.539-.792.225-.191.478-.315.759-.371.292-.067.595-.101.91-.101.618 0 1.067.039 1.348.118v1.5a2.197 2.197 0 0 0-.404-.067 2.97 2.97 0 0 0-.489-.034 1.21 1.21 0 0 0-.674.186c-.18.123-.27.365-.27.724v.894h1.635v1.433h-1.635v7.282h-1.922v-7.282h-1.433v-1.433Zm4.964 0h1.449v-2.613h1.922v2.613h1.736v1.433h-1.736v4.652c0 .203.006.377.017.523.022.146.062.27.118.371.067.101.163.18.287.236.123.045.292.067.505.067h.405a2.56 2.56 0 0 0 .404-.067v1.483l-.623.068c-.203.022-.41.033-.624.033-.506 0-.916-.045-1.231-.135a1.808 1.808 0 0 1-.724-.421 1.611 1.611 0 0 1-.354-.708 5.855 5.855 0 0 1-.102-.961v-5.141h-1.449v-1.433Zm16.39 2.916c-.078-.539-.297-.944-.657-1.214-.348-.28-.792-.421-1.332-.421-.247 0-.511.045-.792.135a1.77 1.77 0 0 0-.775.472c-.236.225-.433.545-.59.961-.158.404-.236.938-.236 1.601 0 .36.039.719.118 1.079.089.36.224.68.404.961.191.281.433.511.725.691.292.169.646.253 1.062.253.562 0 1.023-.174 1.382-.523.371-.348.601-.837.691-1.466h1.922c-.18 1.135-.612 2.006-1.298 2.613-.674.595-1.573.893-2.697.893-.686 0-1.292-.112-1.821-.337a4.012 4.012 0 0 1-1.314-.944 4.197 4.197 0 0 1-.826-1.433 5.72 5.72 0 0 1-.27-1.787c0-.652.09-1.264.27-1.837a4.11 4.11 0 0 1 .809-1.484 3.667 3.667 0 0 1 1.331-.994c.54-.247 1.169-.371 1.888-.371.506 0 .984.067 1.433.202.461.124.866.315 1.214.573.36.259.652.585.877.978.224.393.359.86.404 1.399h-1.922Zm7.142 6.035c-.697 0-1.32-.112-1.871-.337-.539-.236-1-.556-1.382-.961a4.243 4.243 0 0 1-.86-1.45 5.731 5.731 0 0 1-.287-1.854c0-.663.096-1.275.287-1.837a4.233 4.233 0 0 1 .86-1.45 3.98 3.98 0 0 1 1.382-.944c.551-.236 1.174-.354 1.871-.354.697 0 1.315.118 1.854.354a3.782 3.782 0 0 1 1.383.944c.382.404.668.888.859 1.45.203.562.304 1.174.304 1.837 0 .674-.101 1.292-.304 1.854a3.958 3.958 0 0 1-2.242 2.411c-.539.225-1.157.337-1.854.337Zm0-1.517c.427 0 .798-.09 1.113-.27a2.35 2.35 0 0 0 .775-.708c.202-.292.349-.618.438-.978a4.232 4.232 0 0 0 0-2.242 2.763 2.763 0 0 0-.438-.977 2.35 2.35 0 0 0-.775-.708c-.315-.18-.686-.27-1.113-.27-.427 0-.798.09-1.112.27-.315.18-.574.416-.776.708a3.02 3.02 0 0 0-.455.977 4.706 4.706 0 0 0 0 2.242c.101.36.253.686.455.978.202.292.461.528.776.708.314.18.685.27 1.112.27Zm5.812-.995h2.343v2.276h-2.343v-2.276Z"/><rect width="88.5" height="25.286" x="367.857" y="293.857" fill="#FFB8A7" rx="12.643"/><path fill="#FB2F00" d="M391.016 310.071h-1.778l3.238-9.195h2.056l3.241 9.195h-1.778l-2.455-7.309h-.072l-2.452 7.309Zm.059-3.605h4.849v1.338h-4.849v-1.338Zm15.348-2.487h-1.679a2.106 2.106 0 0 0-.265-.732 1.981 1.981 0 0 0-.481-.548 1.994 1.994 0 0 0-.655-.336 2.558 2.558 0 0 0-.786-.117c-.5 0-.943.126-1.329.377-.386.248-.688.614-.907 1.095-.218.479-.328 1.064-.328 1.756 0 .703.11 1.296.328 1.778.222.479.524.841.907 1.086.386.243.828.364 1.325.364.275 0 .532-.036.772-.108.242-.075.459-.184.651-.328a2 2 0 0 0 .768-1.248l1.679.009a3.607 3.607 0 0 1-.409 1.23 3.59 3.59 0 0 1-.813 1.015c-.335.29-.727.518-1.176.683a4.402 4.402 0 0 1-1.495.242c-.808 0-1.529-.187-2.164-.561-.634-.374-1.134-.915-1.499-1.621-.366-.706-.548-1.553-.548-2.541 0-.991.184-1.838.552-2.541.368-.707.87-1.247 1.504-1.621.635-.374 1.353-.561 2.155-.561.512 0 .988.072 1.428.215.44.144.832.355 1.176.633.344.276.627.614.849 1.015.224.398.371.853.44 1.365Zm1.121-1.706v-1.397h7.336v1.397h-2.842v7.798h-1.652v-7.798h-2.842Zm10.416-1.397v9.195h-1.666v-9.195h1.666Zm3.034 0 2.393 7.238h.094l2.389-7.238h1.831l-3.241 9.195h-2.056l-3.237-9.195h1.827Zm7.918 9.195v-9.195h5.981v1.397h-4.315v2.496h4.005v1.396h-4.005v2.51h4.351v1.396h-6.017Z"/><g filter="url(#e)"><path fill="#fff" d="M56 336c0-11.637 9.434-21.071 21.071-21.071H203.5c11.637 0 21.071 9.434 21.071 21.071v42.143c0 11.637-9.434 21.071-21.071 21.071H77.072C65.433 399.214 56 389.78 56 378.143V336Z"/></g><path fill="#4D4A4A" d="M74.204 333.031h2.503l6.183 9.975h.037v-9.975h2.257v13.54h-2.503l-6.163-9.956h-.057v9.956h-2.257v-13.54Zm17.593 13.806c-.784 0-1.486-.127-2.105-.379a4.713 4.713 0 0 1-1.555-1.081 4.785 4.785 0 0 1-.968-1.631 6.453 6.453 0 0 1-.322-2.086c0-.746.108-1.435.322-2.068.228-.632.55-1.175.968-1.63.43-.456.948-.81 1.555-1.063.62-.265 1.32-.398 2.105-.398.784 0 1.479.133 2.086.398.62.253 1.138.607 1.555 1.063a4.4 4.4 0 0 1 .967 1.63c.228.633.341 1.322.341 2.068 0 .758-.113 1.453-.341 2.086a4.466 4.466 0 0 1-2.522 2.712c-.607.252-1.303.379-2.086.379Zm0-1.707c.48 0 .897-.101 1.251-.303a2.65 2.65 0 0 0 .873-.797c.227-.329.392-.695.493-1.1a4.735 4.735 0 0 0 0-2.522 3.12 3.12 0 0 0-.493-1.1 2.644 2.644 0 0 0-.873-.797c-.354-.202-.77-.303-1.251-.303-.48 0-.898.101-1.252.303a2.643 2.643 0 0 0-.872.797 3.391 3.391 0 0 0-.512 1.1 5.295 5.295 0 0 0 0 2.522c.113.405.284.771.512 1.1.227.329.518.594.872.797.354.202.771.303 1.252.303Zm10.28-8.363h1.631v-2.94h2.162v2.94h1.953v1.612h-1.953v5.234c0 .227.006.423.019.588.025.164.069.303.133.417a.744.744 0 0 0 .322.265c.139.051.329.076.569.076h.455c.152-.012.304-.038.455-.076v1.669l-.701.076a6.436 6.436 0 0 1-.702.038c-.569 0-1.03-.05-1.384-.152-.342-.113-.614-.271-.816-.474a1.82 1.82 0 0 1-.398-.796 6.67 6.67 0 0 1-.114-1.081v-5.784h-1.631v-1.612Zm11.417 10.07c-.784 0-1.486-.127-2.105-.379a4.703 4.703 0 0 1-1.555-1.081 4.78 4.78 0 0 1-.968-1.631 6.477 6.477 0 0 1-.322-2.086c0-.746.108-1.435.322-2.068.228-.632.55-1.175.968-1.63.429-.456.948-.81 1.555-1.063.619-.265 1.321-.398 2.105-.398s1.479.133 2.086.398a4.251 4.251 0 0 1 1.555 1.063 4.4 4.4 0 0 1 .967 1.63c.228.633.341 1.322.341 2.068 0 .758-.113 1.453-.341 2.086a4.468 4.468 0 0 1-2.522 2.712c-.607.252-1.302.379-2.086.379Zm0-1.707c.48 0 .897-.101 1.251-.303a2.65 2.65 0 0 0 .873-.797c.227-.329.392-.695.493-1.1a4.727 4.727 0 0 0 0-2.522 3.126 3.126 0 0 0-.493-1.1 2.65 2.65 0 0 0-.873-.797c-.354-.202-.771-.303-1.251-.303-.481 0-.898.101-1.252.303a2.637 2.637 0 0 0-.872.797 3.366 3.366 0 0 0-.512 1.1 5.3 5.3 0 0 0 0 2.522c.113.405.284.771.512 1.1.227.329.518.594.872.797.354.202.771.303 1.252.303Zm14.977 1.441h-2.124v-1.365h-.038c-.265.493-.663.891-1.194 1.195a3.23 3.23 0 0 1-1.593.436c-1.29 0-2.226-.316-2.807-.948-.569-.645-.854-1.612-.854-2.902v-6.22h2.162v6.011c0 .86.165 1.467.493 1.821.329.354.791.531 1.385.531.455 0 .834-.07 1.138-.209.303-.139.55-.322.739-.55.19-.24.323-.524.399-.853.088-.329.132-.683.132-1.062v-5.689h2.162v9.804Zm8.519-6.523c-.088-.607-.335-1.062-.739-1.366-.392-.316-.892-.474-1.498-.474-.279 0-.576.051-.892.152a1.977 1.977 0 0 0-.872.531c-.266.253-.487.613-.664 1.081-.177.455-.265 1.055-.265 1.801 0 .405.044.809.132 1.214.102.405.253.765.456 1.081.214.316.486.575.815.778.329.189.727.284 1.195.284.632 0 1.15-.196 1.555-.588.417-.392.676-.942.777-1.65h2.162c-.202 1.277-.689 2.257-1.46 2.94-.759.67-1.77 1.005-3.034 1.005-.771 0-1.454-.127-2.048-.379a4.538 4.538 0 0 1-1.48-1.062 4.751 4.751 0 0 1-.929-1.612 6.455 6.455 0 0 1-.303-2.011c0-.733.101-1.422.303-2.067a4.643 4.643 0 0 1 .91-1.669c.405-.48.904-.853 1.499-1.119.606-.278 1.314-.417 2.124-.417.569 0 1.106.076 1.612.228.518.139.973.354 1.365.645.405.29.733.657.986 1.1.253.442.405.967.455 1.574h-2.162Zm3.54-7.017h2.162v5.025h.038c.266-.442.658-.809 1.176-1.1a3.497 3.497 0 0 1 1.764-.455c1.074 0 1.921.278 2.541.835.619.556.929 1.39.929 2.503v6.732h-2.162v-6.163c-.025-.771-.189-1.328-.493-1.669-.303-.354-.777-.531-1.422-.531-.367 0-.696.07-.986.209a1.976 1.976 0 0 0-.74.55c-.202.227-.36.499-.474.815a2.939 2.939 0 0 0-.171 1.005v5.784h-2.162v-13.54Zm16.396 8.685h4.02v-5.841h-.038l-3.982 5.841Zm7.775 1.707h-1.707v3.148h-2.048v-3.148h-5.689v-2.143l5.689-7.984h2.048v8.42h1.707v1.707Zm2.592-10.127h6.865v1.935h-5.253l-.683 3.375.038.038a2.69 2.69 0 0 1 1.1-.739 3.697 3.697 0 0 1 1.346-.266c.658 0 1.246.114 1.764.341.518.215.955.525 1.309.93.354.392.619.859.796 1.403.19.544.285 1.132.285 1.764 0 .531-.089 1.081-.266 1.65a4.403 4.403 0 0 1-.815 1.536 4.431 4.431 0 0 1-1.423 1.138c-.581.29-1.277.436-2.086.436a5.905 5.905 0 0 1-1.801-.266 4.14 4.14 0 0 1-1.442-.758 3.904 3.904 0 0 1-1.005-1.252c-.24-.506-.373-1.094-.398-1.764h2.162c.063.721.31 1.277.739 1.669.43.38.999.569 1.707.569.455 0 .841-.076 1.157-.227.316-.152.569-.361.759-.626.202-.266.341-.575.417-.929.088-.354.133-.734.133-1.138 0-.367-.051-.715-.152-1.043a2.586 2.586 0 0 0-.455-.892 2.163 2.163 0 0 0-.797-.607c-.316-.151-.689-.227-1.119-.227-.455 0-.885.088-1.289.265-.392.165-.677.481-.854.949h-2.162l1.423-7.264Zm18.199 13.275h-2.048v-1.327h-.038c-.291.569-.714.98-1.271 1.232a4.386 4.386 0 0 1-1.763.361c-.771 0-1.448-.133-2.029-.398a4.177 4.177 0 0 1-1.423-1.119 4.772 4.772 0 0 1-.853-1.65 7.282 7.282 0 0 1-.285-2.067c0-.885.121-1.65.361-2.295s.556-1.176.948-1.593c.405-.417.86-.721 1.365-.91a4.286 4.286 0 0 1 1.574-.304c.304 0 .614.032.93.095.316.051.619.139.91.266.291.126.556.29.796.493.253.189.462.417.626.682h.038v-5.006h2.162v13.54Zm-7.548-4.798c0 .418.051.828.152 1.233.114.405.278.765.493 1.081.228.316.512.569.854.759.341.189.745.284 1.213.284.481 0 .892-.101 1.233-.303.354-.203.638-.468.853-.797.228-.329.392-.695.493-1.1.114-.417.171-.841.171-1.27 0-1.088-.246-1.935-.74-2.542-.48-.607-1.137-.91-1.972-.91-.506 0-.935.108-1.289.322a2.638 2.638 0 0 0-.854.816 3.54 3.54 0 0 0-.474 1.138 6.229 6.229 0 0 0-.133 1.289Z"/><rect width="88.5" height="25.286" x="72.857" y="365.5" fill="#DDD" rx="12.643"/><path fill="#363636" d="M88.073 372.52v9.194h-1.666v-9.194h1.666Zm9.36 0v9.194H95.95l-4.333-6.263h-.076v6.263h-1.666v-9.194h1.49l4.329 6.267h.08v-6.267h1.657Zm2.995 9.194H98.65l3.237-9.194h2.056l3.242 9.194h-1.778l-2.456-7.309h-.072l-2.451 7.309Zm.058-3.605h4.849v1.338h-4.849v-1.338Zm15.348-2.487h-1.679a2.093 2.093 0 0 0-.265-.732 1.978 1.978 0 0 0-.48-.548 1.999 1.999 0 0 0-.656-.336 2.547 2.547 0 0 0-.785-.117c-.5 0-.943.126-1.329.377-.386.248-.689.614-.907 1.095-.219.479-.328 1.065-.328 1.756 0 .703.109 1.296.328 1.778.221.479.524.841.907 1.086.386.243.827.364 1.324.364.276 0 .533-.036.772-.108.243-.075.46-.184.651-.327a1.999 1.999 0 0 0 .768-1.249l1.679.009a3.64 3.64 0 0 1-.408 1.231 3.635 3.635 0 0 1-.813 1.014 3.739 3.739 0 0 1-1.176.683 4.402 4.402 0 0 1-1.495.242c-.808 0-1.53-.187-2.164-.561-.635-.374-1.135-.915-1.5-1.621s-.547-1.553-.547-2.541c0-.991.184-1.838.552-2.541.368-.707.869-1.247 1.504-1.621.634-.374 1.353-.561 2.155-.561.512 0 .988.072 1.428.215.44.144.832.355 1.176.633.344.276.627.614.848 1.015.225.398.371.853.44 1.365Zm1.122-1.706v-1.396h7.336v1.396h-2.842v7.798h-1.652v-7.798h-2.842Zm10.416-1.396v9.194h-1.666v-9.194h1.666Zm3.033 0 2.393 7.237h.095l2.388-7.237h1.832l-3.241 9.194h-2.057l-3.237-9.194h1.827Zm7.919 9.194v-9.194h5.98v1.396h-4.314v2.496h4.005v1.396h-4.005v2.51h4.35v1.396h-6.016Z"/><g filter="url(#f)"><path fill="#fff" d="M334 408.071c0-11.637 9.434-21.071 21.071-21.071h154.858c11.637 0 21.071 9.434 21.071 21.071v41.858c0 11.637-9.434 21.071-21.071 21.071H355.071C343.434 471 334 461.566 334 449.929v-41.858Z"/></g><path fill="#4D4A4A" d="M353.286 404.674h2.371v11.492h6.884v2.048h-9.255v-13.54Zm14.701 13.806c-.783 0-1.485-.127-2.105-.379a4.723 4.723 0 0 1-1.555-1.081 4.794 4.794 0 0 1-.967-1.631 6.446 6.446 0 0 1-.322-2.086c0-.746.107-1.435.322-2.068a4.78 4.78 0 0 1 .967-1.63c.43-.456.949-.81 1.555-1.062.62-.266 1.322-.399 2.105-.399.784 0 1.48.133 2.087.399a4.245 4.245 0 0 1 1.555 1.062c.429.455.752.998.967 1.63.227.633.341 1.322.341 2.068 0 .758-.114 1.454-.341 2.086a4.427 4.427 0 0 1-.967 1.631 4.478 4.478 0 0 1-1.555 1.081c-.607.252-1.303.379-2.087.379Zm0-1.707c.481 0 .898-.101 1.252-.303.354-.203.645-.468.872-.797.228-.329.392-.695.494-1.1a4.767 4.767 0 0 0 0-2.522 3.128 3.128 0 0 0-.494-1.1 2.623 2.623 0 0 0-.872-.796c-.354-.203-.771-.304-1.252-.304-.48 0-.897.101-1.251.304a2.636 2.636 0 0 0-.873.796 3.407 3.407 0 0 0-.512 1.1 5.299 5.299 0 0 0 0 2.522c.114.405.285.771.512 1.1.228.329.519.594.873.797.354.202.771.303 1.251.303Zm7.999-1.707c.063.632.304 1.075.721 1.328.417.253.916.379 1.498.379.202 0 .43-.013.683-.038.265-.038.512-.101.739-.19.228-.088.411-.214.55-.379.152-.177.221-.404.209-.683a.954.954 0 0 0-.304-.682 1.981 1.981 0 0 0-.739-.417 6 6 0 0 0-1.005-.285c-.38-.076-.765-.158-1.157-.246a11.397 11.397 0 0 1-1.176-.323 3.933 3.933 0 0 1-1.005-.512 2.439 2.439 0 0 1-.702-.815c-.177-.342-.265-.759-.265-1.252 0-.531.126-.973.379-1.327.266-.367.594-.658.986-.873a4.29 4.29 0 0 1 1.328-.474 8.004 8.004 0 0 1 1.403-.133c.506 0 .986.057 1.441.171.468.101.885.272 1.252.512.379.24.689.556.929.948.253.38.411.841.474 1.385h-2.256c-.102-.519-.342-.866-.721-1.043-.367-.177-.79-.266-1.271-.266a4.9 4.9 0 0 0-.55.038 2.339 2.339 0 0 0-.587.152 1.115 1.115 0 0 0-.456.303c-.126.127-.189.297-.189.512 0 .266.088.481.265.645.19.164.43.303.721.417.303.101.645.19 1.024.266a74.9 74.9 0 0 1 1.176.246c.392.089.777.196 1.157.323.379.126.714.297 1.005.512.303.215.543.486.72.815.19.329.285.733.285 1.214 0 .581-.133 1.074-.398 1.479a3.123 3.123 0 0 1-1.044.986 4.582 4.582 0 0 1-1.403.55 7.13 7.13 0 0 1-3.262-.038 4.212 4.212 0 0 1-1.365-.626 3.318 3.318 0 0 1-.91-1.062c-.215-.429-.329-.935-.342-1.517h2.162Zm6.838-6.656h1.631v-2.94h2.162v2.94h1.953v1.612h-1.953v5.234c0 .227.006.423.019.588.025.164.069.303.132.417a.756.756 0 0 0 .323.266c.139.05.328.075.569.075h.455c.152-.012.303-.038.455-.075v1.668l-.702.076a6.165 6.165 0 0 1-.701.038c-.569 0-1.031-.05-1.385-.152-.341-.113-.613-.271-.815-.474a1.821 1.821 0 0 1-.399-.796 6.567 6.567 0 0 1-.113-1.081v-5.784h-1.631v-1.612Zm21.056 9.804h-2.048v-1.327h-.038c-.29.569-.714.98-1.27 1.233-.557.24-1.144.36-1.764.36-.771 0-1.448-.133-2.029-.398a4.164 4.164 0 0 1-1.422-1.119 4.756 4.756 0 0 1-.854-1.65 7.282 7.282 0 0 1-.284-2.067c0-.885.12-1.65.36-2.295s.556-1.176.948-1.593c.405-.417.86-.721 1.366-.91a4.283 4.283 0 0 1 1.574-.304c.303 0 .613.032.929.095.316.051.619.139.91.266.291.126.556.29.797.493.253.189.461.417.626.682h.037v-5.006h2.162v13.54Zm-7.547-4.798c0 .418.05.828.151 1.233.114.405.278.765.493 1.081.228.316.512.569.854.759.341.189.746.284 1.213.284.481 0 .892-.101 1.233-.303.354-.203.639-.468.854-.797.227-.329.391-.695.493-1.1a4.84 4.84 0 0 0 .17-1.27c0-1.088-.246-1.935-.739-2.542-.481-.606-1.138-.91-1.973-.91-.505 0-.935.108-1.289.322a2.638 2.638 0 0 0-.854.816 3.562 3.562 0 0 0-.474 1.138 6.229 6.229 0 0 0-.132 1.289Zm16.258-.967a3.3 3.3 0 0 0-.227-.986 2.321 2.321 0 0 0-.493-.815 2.144 2.144 0 0 0-.759-.569 2.098 2.098 0 0 0-.986-.228c-.379 0-.727.07-1.043.209a2.294 2.294 0 0 0-.797.55 2.829 2.829 0 0 0-.531.815 3.013 3.013 0 0 0-.208 1.024h5.044Zm-5.044 1.423c0 .379.05.745.151 1.099.114.354.279.664.493.93.215.265.487.48.816.644.329.152.721.228 1.176.228.632 0 1.138-.133 1.517-.398.392-.278.683-.689.872-1.233h2.048a4.042 4.042 0 0 1-.588 1.422 4.204 4.204 0 0 1-1.005 1.062 4.26 4.26 0 0 1-1.327.626 5.002 5.002 0 0 1-1.517.228c-.771 0-1.454-.127-2.048-.379a4.335 4.335 0 0 1-1.518-1.062 4.717 4.717 0 0 1-.929-1.631 6.831 6.831 0 0 1-.303-2.086c0-.696.107-1.353.322-1.973a5.193 5.193 0 0 1 .948-1.65c.418-.48.917-.859 1.499-1.137.581-.279 1.239-.418 1.972-.418.771 0 1.46.165 2.067.493.619.316 1.131.74 1.536 1.271.405.531.695 1.144.872 1.84.19.682.241 1.39.152 2.124h-7.206Zm16.682 2.161c0 .266.032.456.095.569.076.114.215.171.417.171h.228c.088 0 .189-.013.303-.038v1.498a2.446 2.446 0 0 1-.303.076c-.114.038-.234.07-.361.095a4.128 4.128 0 0 1-.701.076c-.443 0-.81-.089-1.1-.266-.291-.177-.481-.486-.569-.929-.43.417-.961.721-1.593.91-.62.19-1.22.285-1.802.285-.442 0-.866-.063-1.271-.19a3.425 3.425 0 0 1-1.081-.512 2.826 2.826 0 0 1-.739-.891c-.177-.367-.266-.79-.266-1.271 0-.607.108-1.1.323-1.479a2.56 2.56 0 0 1 .872-.891 3.875 3.875 0 0 1 1.214-.455 12.7 12.7 0 0 1 1.365-.228 9.568 9.568 0 0 1 1.119-.152c.354-.038.664-.095.929-.17.279-.076.493-.19.645-.342.165-.164.247-.404.247-.72 0-.279-.07-.506-.209-.683a1.166 1.166 0 0 0-.493-.398 1.728 1.728 0 0 0-.645-.19 4.375 4.375 0 0 0-.682-.057c-.607 0-1.107.127-1.499.379-.392.253-.613.645-.663 1.176h-2.162c.038-.632.189-1.157.455-1.574.265-.417.6-.752 1.005-1.005.417-.253.885-.43 1.403-.531a8.32 8.32 0 0 1 1.593-.152c.481 0 .955.051 1.423.152.467.101.885.266 1.251.493.38.228.683.525.911.891.227.354.341.791.341 1.309v5.044Zm-2.162-2.73c-.329.215-.733.347-1.214.398-.48.038-.961.101-1.441.189a3.921 3.921 0 0 0-.664.171 1.71 1.71 0 0 0-.569.285 1.222 1.222 0 0 0-.398.474 1.657 1.657 0 0 0-.133.701c0 .241.07.443.209.607.139.165.303.297.493.399.202.088.417.151.645.189.24.038.455.057.645.057.24 0 .499-.032.777-.095a2.47 2.47 0 0 0 .778-.322c.252-.152.461-.342.625-.569.165-.24.247-.531.247-.872v-1.612Zm4.166-8.629h2.162v13.54h-2.162v-13.54Zm15.39 3.622c-.051-.544-.247-.98-.588-1.309-.329-.341-.778-.512-1.346-.512-.392 0-.734.076-1.025.228a2.245 2.245 0 0 0-.72.569c-.19.24-.348.518-.474.834a7.2 7.2 0 0 0-.285.968 9.303 9.303 0 0 0-.17 1.024c-.026.328-.051.638-.076.929l.038.038c.29-.531.689-.923 1.194-1.176a3.618 3.618 0 0 1 1.669-.398c.658 0 1.246.114 1.764.341.518.228.954.544 1.308.948.367.392.645.86.835 1.404.19.543.284 1.131.284 1.763 0 .645-.107 1.246-.322 1.802a4.232 4.232 0 0 1-.891 1.441c-.392.405-.86.721-1.404.948a4.61 4.61 0 0 1-1.801.342c-.974 0-1.777-.177-2.409-.531a4.159 4.159 0 0 1-1.479-1.479c-.354-.633-.601-1.366-.74-2.2a16.888 16.888 0 0 1-.208-2.731c0-.797.082-1.599.246-2.409a7.307 7.307 0 0 1 .854-2.199 4.87 4.87 0 0 1 1.536-1.631c.645-.418 1.435-.626 2.37-.626.531 0 1.031.088 1.499.265.467.177.878.424 1.232.74.367.316.664.695.892 1.138.227.442.354.935.379 1.479h-2.162Zm-2.086 8.382c.392 0 .733-.076 1.024-.227.291-.165.531-.373.721-.626.202-.253.347-.544.436-.873.101-.341.151-.689.151-1.043s-.05-.695-.151-1.024a2.2 2.2 0 0 0-.436-.853 2.107 2.107 0 0 0-.721-.607c-.291-.152-.632-.227-1.024-.227s-.74.075-1.043.227a2.086 2.086 0 0 0-.74.588 2.41 2.41 0 0 0-.455.853 3.536 3.536 0 0 0-.152 1.043c0 .367.051.715.152 1.043.101.329.253.626.455.892.202.253.449.455.74.607a2.31 2.31 0 0 0 1.043.227Zm10.026-12.004c.948 0 1.719.221 2.313.664a4.289 4.289 0 0 1 1.404 1.668 7.02 7.02 0 0 1 .682 2.219c.127.809.19 1.593.19 2.352 0 .758-.063 1.542-.19 2.351a7.224 7.224 0 0 1-.682 2.238 4.478 4.478 0 0 1-1.404 1.669c-.594.43-1.365.645-2.313.645-.949 0-1.726-.215-2.333-.645a4.72 4.72 0 0 1-1.403-1.669 7.933 7.933 0 0 1-.683-2.238 16.852 16.852 0 0 1-.171-2.351c0-.759.057-1.543.171-2.352a7.698 7.698 0 0 1 .683-2.219 4.509 4.509 0 0 1 1.403-1.668c.607-.443 1.384-.664 2.333-.664Zm0 12.004c.467 0 .859-.133 1.175-.398.316-.278.563-.645.74-1.1a6.41 6.41 0 0 0 .398-1.631c.076-.619.114-1.277.114-1.972 0-.696-.038-1.347-.114-1.953a6.4 6.4 0 0 0-.398-1.631c-.177-.468-.424-.835-.74-1.1-.316-.278-.708-.418-1.175-.418-.481 0-.879.14-1.195.418-.304.265-.55.632-.74 1.1a7.03 7.03 0 0 0-.379 1.631 15.726 15.726 0 0 0-.114 1.953c0 .695.038 1.353.114 1.972.076.62.202 1.163.379 1.631.19.455.436.822.74 1.1.316.265.714.398 1.195.398Zm15.259 1.536h-2.048v-1.327h-.038c-.29.569-.714.98-1.27 1.233-.557.24-1.144.36-1.764.36-.771 0-1.448-.133-2.029-.398a4.164 4.164 0 0 1-1.422-1.119 4.756 4.756 0 0 1-.854-1.65 7.318 7.318 0 0 1-.284-2.067c0-.885.12-1.65.36-2.295s.556-1.176.948-1.593c.405-.417.86-.721 1.366-.91a4.283 4.283 0 0 1 1.574-.304c.303 0 .613.032.929.095.316.051.619.139.91.266.291.126.557.29.797.493.253.189.461.417.626.682h.037v-5.006h2.162v13.54Zm-7.547-4.798c0 .418.05.828.151 1.233.114.405.278.765.493 1.081.228.316.512.569.854.759.341.189.746.284 1.214.284.48 0 .891-.101 1.232-.303.354-.203.639-.468.854-.797.227-.329.392-.695.493-1.1a4.84 4.84 0 0 0 .17-1.27c0-1.088-.246-1.935-.739-2.542-.481-.606-1.138-.91-1.973-.91-.505 0-.935.108-1.289.322a2.648 2.648 0 0 0-.854.816 3.585 3.585 0 0 0-.474 1.138 6.229 6.229 0 0 0-.132 1.289Zm22.636 2.617c0 .266.032.456.095.569.076.114.215.171.417.171h.228c.088 0 .19-.013.303-.038v1.498a2.4 2.4 0 0 1-.303.076c-.114.038-.234.07-.36.095a4.15 4.15 0 0 1-.702.076c-.443 0-.809-.089-1.1-.266-.291-.177-.48-.486-.569-.929-.43.417-.961.721-1.593.91a6.13 6.13 0 0 1-1.802.285c-.442 0-.866-.063-1.27-.19a3.404 3.404 0 0 1-1.081-.512 2.815 2.815 0 0 1-.74-.891c-.177-.367-.265-.79-.265-1.271 0-.607.107-1.1.322-1.479a2.57 2.57 0 0 1 .873-.891 3.869 3.869 0 0 1 1.213-.455c.455-.102.911-.177 1.366-.228a9.568 9.568 0 0 1 1.119-.152c.354-.038.663-.095.929-.17.278-.076.493-.19.645-.342.164-.164.246-.404.246-.72 0-.279-.069-.506-.208-.683a1.169 1.169 0 0 0-.494-.398 1.717 1.717 0 0 0-.644-.19 4.388 4.388 0 0 0-.683-.057c-.607 0-1.106.127-1.498.379-.392.253-.613.645-.664 1.176h-2.162c.038-.632.19-1.157.455-1.574a3.193 3.193 0 0 1 1.005-1.005c.418-.253.885-.43 1.404-.531a8.305 8.305 0 0 1 1.593-.152c.48 0 .954.051 1.422.152.468.101.885.266 1.252.493.379.228.682.525.91.891.228.354.341.791.341 1.309v5.044Zm-2.162-2.73c-.328.215-.733.347-1.213.398a14.23 14.23 0 0 0-1.442.189 3.935 3.935 0 0 0-.663.171 1.7 1.7 0 0 0-.569.285 1.224 1.224 0 0 0-.399.474 1.658 1.658 0 0 0-.132.701c0 .241.069.443.208.607.139.165.304.297.493.399.203.088.418.151.645.189.24.038.455.057.645.057.24 0 .499-.032.778-.095.278-.063.537-.17.777-.322a2.09 2.09 0 0 0 .626-.569c.164-.24.246-.531.246-.872v-1.612Zm13.174 4.399c0 1.48-.417 2.579-1.251 3.3-.822.733-2.011 1.1-3.566 1.1-.493 0-.992-.051-1.498-.152a4.546 4.546 0 0 1-1.365-.512 3.318 3.318 0 0 1-1.024-.948c-.279-.392-.443-.872-.493-1.441h2.161c.064.303.171.55.323.739.152.19.329.335.531.437.215.113.449.183.702.208.252.038.518.057.796.057.872 0 1.511-.215 1.915-.645.405-.43.607-1.049.607-1.858v-1.498h-.038c-.303.543-.72.967-1.251 1.27a3.279 3.279 0 0 1-1.688.455c-.784 0-1.454-.132-2.01-.398a4.06 4.06 0 0 1-1.366-1.119 4.83 4.83 0 0 1-.777-1.65 7.708 7.708 0 0 1-.247-1.991c0-.657.101-1.283.304-1.877a4.663 4.663 0 0 1 .872-1.555 4.135 4.135 0 0 1 1.384-1.081c.557-.266 1.182-.399 1.878-.399.619 0 1.188.133 1.707.399.518.252.916.657 1.194 1.213h.038v-1.346h2.162v9.292Zm-4.798-1.194c.481 0 .885-.095 1.214-.285.341-.202.613-.461.815-.777.215-.329.367-.696.456-1.1.101-.418.151-.835.151-1.252 0-.417-.05-.822-.151-1.214a3.167 3.167 0 0 0-.475-1.043 2.149 2.149 0 0 0-.815-.72c-.329-.177-.727-.266-1.195-.266-.48 0-.885.101-1.213.304a2.389 2.389 0 0 0-.797.796 3.283 3.283 0 0 0-.436 1.1 5.636 5.636 0 0 0-.133 1.214c0 .404.051.802.152 1.194.101.38.253.721.455 1.024.215.304.48.55.796.74.329.19.721.285 1.176.285Zm11.09 1.972c-.784 0-1.485-.127-2.105-.379a4.713 4.713 0 0 1-1.555-1.081 4.779 4.779 0 0 1-.967-1.631 6.446 6.446 0 0 1-.323-2.086c0-.746.108-1.435.323-2.068.227-.632.55-1.175.967-1.63.43-.456.948-.81 1.555-1.062.62-.266 1.321-.399 2.105-.399s1.479.133 2.086.399c.62.252 1.138.606 1.555 1.062a4.4 4.4 0 0 1 .967 1.63c.228.633.342 1.322.342 2.068a6.11 6.11 0 0 1-.342 2.086 4.46 4.46 0 0 1-2.522 2.712c-.607.252-1.302.379-2.086.379Zm0-1.707c.48 0 .898-.101 1.252-.303.354-.203.644-.468.872-.797.228-.329.392-.695.493-1.1a4.727 4.727 0 0 0 0-2.522 3.109 3.109 0 0 0-.493-1.1 2.633 2.633 0 0 0-.872-.796c-.354-.203-.772-.304-1.252-.304s-.898.101-1.252.304a2.633 2.633 0 0 0-.872.796 3.387 3.387 0 0 0-.512 1.1 5.3 5.3 0 0 0 0 2.522c.114.405.284.771.512 1.1.228.329.518.594.872.797.354.202.772.303 1.252.303Z"/><rect width="92.925" height="25.286" x="351.845" y="437.143" fill="#DDD" rx="12.643"/><path fill="#363636" d="M367.69 444.162v9.195h-1.666v-9.195h1.666Zm9.36 0v9.195h-1.482l-4.333-6.263h-.076v6.263h-1.666v-9.195h1.491l4.328 6.268h.081v-6.268h1.657Zm2.995 9.195h-1.778l3.237-9.195h2.057l3.241 9.195h-1.778l-2.456-7.309h-.071l-2.452 7.309Zm.059-3.605h4.848v1.338h-4.848v-1.338Zm15.348-2.488h-1.68a2.08 2.08 0 0 0-.264-.731 1.967 1.967 0 0 0-1.136-.885 2.558 2.558 0 0 0-.786-.117c-.5 0-.943.126-1.329.378-.386.248-.688.613-.907 1.095-.218.479-.328 1.064-.328 1.756 0 .703.11 1.296.328 1.777.222.479.524.841.907 1.087.386.242.828.364 1.324.364.276 0 .533-.036.773-.108.242-.075.459-.184.651-.328.194-.144.357-.32.489-.53.135-.209.228-.449.278-.718l1.68.009c-.063.437-.2.847-.409 1.23a3.635 3.635 0 0 1-.813 1.015c-.335.29-.727.518-1.176.682a4.378 4.378 0 0 1-1.495.243c-.808 0-1.529-.187-2.164-.562-.635-.374-1.134-.914-1.5-1.62-.365-.707-.547-1.554-.547-2.541 0-.991.184-1.838.552-2.542.368-.706.869-1.246 1.504-1.62.634-.375 1.353-.562 2.155-.562.512 0 .988.072 1.428.216.44.144.832.355 1.176.633.344.275.627.614.849 1.015.224.398.371.853.44 1.364Zm1.121-1.706v-1.396h7.336v1.396h-2.842v7.799h-1.652v-7.799h-2.842Zm10.416-1.396v9.195h-1.666v-9.195h1.666Zm3.034 0 2.393 7.237h.094l2.388-7.237h1.832l-3.241 9.195h-2.057l-3.237-9.195h1.828Zm7.918 9.195v-9.195h5.981v1.396h-4.315v2.497h4.005v1.396h-4.005v2.51h4.35v1.396h-6.016Z"/><g filter="url(#g)"><path fill="#fff" d="M86 479.071C86 467.434 95.434 458 107.071 458h146.858c11.637 0 21.071 9.434 21.071 21.071v42.858c0 11.637-9.434 21.071-21.071 21.071H107.071C95.434 543 86 533.566 86 521.929v-42.858Z"/></g><path fill="#4D4A4A" d="M108.87 476.316h6.467c1.492 0 2.611.323 3.357.968.745.644 1.118 1.542 1.118 2.693 0 .644-.094 1.182-.284 1.612-.19.417-.411.758-.664 1.024a2.641 2.641 0 0 1-.758.55 5.747 5.747 0 0 1-.531.227v.038c.202.025.417.089.644.19.241.101.462.265.664.493.202.215.367.499.493.853.139.354.209.797.209 1.328 0 .796.057 1.523.171 2.181.126.644.316 1.106.568 1.384h-2.541a2.31 2.31 0 0 1-.322-.967 14.571 14.571 0 0 1-.038-1.024 9.56 9.56 0 0 0-.114-1.593c-.076-.455-.215-.828-.417-1.119a1.737 1.737 0 0 0-.835-.664c-.341-.139-.783-.209-1.327-.209h-3.489v5.576h-2.371v-13.541Zm2.371 6.164h3.887c.759 0 1.334-.177 1.726-.531.392-.367.588-.91.588-1.631 0-.43-.063-.778-.19-1.043a1.493 1.493 0 0 0-.531-.645 1.834 1.834 0 0 0-.758-.303 4.84 4.84 0 0 0-.873-.076h-3.849v4.229Zm17.031 1.612a3.293 3.293 0 0 0-.227-.986 2.32 2.32 0 0 0-.493-.816 2.147 2.147 0 0 0-.759-.569 2.107 2.107 0 0 0-.986-.227c-.379 0-.727.069-1.043.208a2.33 2.33 0 0 0-.797.55 2.89 2.89 0 0 0-.531.816 3.032 3.032 0 0 0-.208 1.024h5.044Zm-5.044 1.422c0 .379.05.746.152 1.1.113.354.278.664.493.929.215.266.486.481.815.645.329.152.721.228 1.176.228.632 0 1.138-.133 1.517-.399.392-.278.683-.689.872-1.232h2.049a4.08 4.08 0 0 1-.588 1.422 4.238 4.238 0 0 1-1.005 1.062 4.287 4.287 0 0 1-1.328.626c-.48.152-.986.227-1.517.227-.771 0-1.454-.126-2.048-.379a4.33 4.33 0 0 1-1.517-1.062 4.694 4.694 0 0 1-.93-1.631 6.822 6.822 0 0 1-.303-2.086c0-.695.107-1.353.322-1.972a5.177 5.177 0 0 1 .949-1.65c.417-.48.916-.86 1.498-1.138.581-.278 1.239-.417 1.972-.417.771 0 1.46.164 2.067.493.62.316 1.132.74 1.536 1.271a5.05 5.05 0 0 1 .873 1.839c.189.683.24 1.391.151 2.124h-7.206Zm8.471-5.462h2.048v1.442l.038.038a3.536 3.536 0 0 1 1.289-1.271 3.385 3.385 0 0 1 1.764-.474c1.075 0 1.922.278 2.541.834.62.557.929 1.391.929 2.504v6.732h-2.162v-6.163c-.025-.772-.189-1.328-.493-1.669-.303-.354-.777-.531-1.422-.531-.367 0-.695.069-.986.208-.291.127-.537.31-.74.55-.202.228-.36.5-.474.816a2.939 2.939 0 0 0-.171 1.005v5.784h-2.161v-9.805Zm9.524 0h1.631v-2.939h2.162v2.939h1.953v1.612h-1.953v5.235c0 .227.006.423.019.587.025.165.069.304.132.418a.754.754 0 0 0 .323.265c.139.051.328.076.569.076h.455c.152-.013.303-.038.455-.076v1.669l-.702.076a6.404 6.404 0 0 1-.701.038c-.569 0-1.031-.051-1.385-.152-.341-.114-.613-.272-.815-.474a1.82 1.82 0 0 1-.399-.797 6.555 6.555 0 0 1-.113-1.081v-5.784h-1.631v-1.612Zm15.133 7.624c0 .266.032.455.095.569.076.114.215.171.417.171h.228c.089 0 .19-.013.303-.038v1.498c-.075.025-.177.05-.303.076a3.153 3.153 0 0 1-.36.095 3.826 3.826 0 0 1-.702.075c-.442 0-.809-.088-1.1-.265-.291-.177-.48-.487-.569-.929-.43.417-.961.72-1.593.91-.619.19-1.22.284-1.801.284a4.25 4.25 0 0 1-1.271-.189 3.426 3.426 0 0 1-1.081-.512 2.832 2.832 0 0 1-.74-.892c-.177-.366-.265-.79-.265-1.27 0-.607.107-1.1.322-1.479.228-.38.519-.677.873-.892a3.894 3.894 0 0 1 1.213-.455c.456-.101.911-.177 1.366-.227a9.36 9.36 0 0 1 1.119-.152c.354-.038.663-.095.929-.171.278-.076.493-.189.645-.341.164-.165.246-.405.246-.721 0-.278-.069-.506-.208-.683a1.18 1.18 0 0 0-.493-.398 1.746 1.746 0 0 0-.645-.189 4.378 4.378 0 0 0-.683-.057c-.607 0-1.106.126-1.498.379-.392.253-.613.645-.664 1.176h-2.162c.038-.632.19-1.157.455-1.574a3.183 3.183 0 0 1 1.005-1.005c.418-.253.885-.43 1.404-.531a8.226 8.226 0 0 1 1.593-.152c.48 0 .954.05 1.422.152.468.101.885.265 1.252.493.379.227.683.524.91.891.228.354.341.79.341 1.309v5.044Zm-2.161-2.731c-.329.215-.734.348-1.214.398-.481.038-.961.102-1.441.19a3.921 3.921 0 0 0-.664.171 1.717 1.717 0 0 0-.569.284 1.228 1.228 0 0 0-.398.474 1.65 1.65 0 0 0-.133.702c0 .24.069.443.208.607.14.164.304.297.494.398.202.089.417.152.644.19.241.038.455.057.645.057.24 0 .499-.032.778-.095.278-.063.537-.171.777-.323.253-.151.462-.341.626-.568.164-.241.247-.531.247-.873v-1.612Zm4.165-8.629h2.162v13.541h-2.162v-13.541Zm15.77 7.776a3.294 3.294 0 0 0-.228-.986 2.32 2.32 0 0 0-.493-.816 2.138 2.138 0 0 0-.759-.569 2.104 2.104 0 0 0-.986-.227c-.379 0-.727.069-1.043.208-.303.127-.569.31-.796.55-.215.228-.392.5-.531.816a3.009 3.009 0 0 0-.209 1.024h5.045Zm-5.045 1.422c0 .379.051.746.152 1.1.114.354.278.664.493.929.215.266.487.481.815.645.329.152.721.228 1.176.228.632 0 1.138-.133 1.517-.399.392-.278.683-.689.873-1.232h2.048a4.08 4.08 0 0 1-.588 1.422 4.238 4.238 0 0 1-1.005 1.062 4.287 4.287 0 0 1-1.328.626c-.48.152-.986.227-1.517.227-.771 0-1.454-.126-2.048-.379a4.33 4.33 0 0 1-1.517-1.062 4.692 4.692 0 0 1-.929-1.631 6.791 6.791 0 0 1-.304-2.086c0-.695.108-1.353.323-1.972a5.156 5.156 0 0 1 .948-1.65c.417-.48.916-.86 1.498-1.138.582-.278 1.239-.417 1.972-.417.772 0 1.461.164 2.067.493.62.316 1.132.74 1.537 1.271.404.531.695 1.144.872 1.839.19.683.24 1.391.152 2.124h-7.207Zm8.471-5.462h2.048v1.442l.038.038a3.543 3.543 0 0 1 1.289-1.271 3.385 3.385 0 0 1 1.764-.474c1.075 0 1.922.278 2.541.834.62.557.93 1.391.93 2.504v6.732h-2.162v-6.163c-.026-.772-.19-1.328-.493-1.669-.304-.354-.778-.531-1.423-.531a2.26 2.26 0 0 0-.986.208c-.291.127-.537.31-.739.55-.203.228-.361.5-.475.816-.113.316-.17.651-.17 1.005v5.784h-2.162v-9.805Zm19.746 9.805h-2.048v-1.328h-.038c-.291.569-.715.98-1.271 1.233-.556.24-1.144.36-1.764.36-.771 0-1.447-.132-2.029-.398a4.14 4.14 0 0 1-1.422-1.119 4.737 4.737 0 0 1-.853-1.65 7.272 7.272 0 0 1-.285-2.067c0-.885.12-1.65.36-2.294.241-.645.557-1.176.949-1.593a3.69 3.69 0 0 1 1.365-.911 4.302 4.302 0 0 1 1.574-.303c.304 0 .613.032.929.095.316.05.62.139.911.265.29.127.556.291.796.493.253.19.462.418.626.683h.038v-5.007h2.162v13.541Zm-7.548-4.798c0 .417.051.828.152 1.233.114.404.278.765.493 1.081.227.316.512.569.853.758.342.19.746.285 1.214.285.48 0 .891-.101 1.233-.304.354-.202.638-.468.853-.796.228-.329.392-.696.493-1.1a4.8 4.8 0 0 0 .171-1.271c0-1.087-.247-1.934-.74-2.541-.48-.607-1.138-.91-1.972-.91-.506 0-.936.107-1.29.322a2.614 2.614 0 0 0-.853.816 3.534 3.534 0 0 0-.474 1.137 6.17 6.17 0 0 0-.133 1.29Zm11.157 1.65c.063.632.304 1.075.721 1.327.417.253.917.38 1.498.38.202 0 .43-.013.683-.038.265-.038.512-.101.739-.19.228-.088.411-.215.55-.379.152-.177.222-.405.209-.683a.96.96 0 0 0-.303-.683 1.994 1.994 0 0 0-.74-.417 6.004 6.004 0 0 0-1.005-.284 46.655 46.655 0 0 1-1.157-.247 11.464 11.464 0 0 1-1.176-.322 4 4 0 0 1-1.005-.512 2.432 2.432 0 0 1-.702-.816c-.177-.341-.265-.758-.265-1.251 0-.531.126-.974.379-1.328.266-.367.594-.657.986-.872a4.24 4.24 0 0 1 1.328-.474 7.909 7.909 0 0 1 1.403-.133c.506 0 .986.057 1.442.171.467.101.885.271 1.251.512.379.24.689.556.929.948.253.379.411.841.475 1.384h-2.257c-.101-.518-.342-.866-.721-1.043-.367-.177-.79-.265-1.27-.265-.152 0-.336.012-.55.038a2.333 2.333 0 0 0-.588.151 1.118 1.118 0 0 0-.455.304c-.127.126-.19.297-.19.512 0 .265.088.48.265.645.19.164.43.303.721.417.303.101.645.189 1.024.265.379.076.771.158 1.176.247.392.088.777.196 1.157.322.379.127.714.297 1.005.512.303.215.543.487.72.816.19.328.285.733.285 1.213 0 .582-.133 1.075-.398 1.48a3.139 3.139 0 0 1-1.043.986 4.588 4.588 0 0 1-1.404.55c-.518.114-1.03.17-1.536.17a6.804 6.804 0 0 1-1.726-.208 4.233 4.233 0 0 1-1.365-.626 3.34 3.34 0 0 1-.91-1.062c-.215-.43-.329-.936-.342-1.517h2.162Zm12.59-7.927a7.62 7.62 0 0 0 1.328-.114c.43-.076.815-.202 1.156-.379.354-.177.652-.405.892-.683.253-.278.417-.619.493-1.024h1.764v13.275h-2.371v-9.368h-3.262v-1.707Zm11.486-2.2h6.865v1.934h-5.253l-.683 3.376.038.038a2.7 2.7 0 0 1 1.1-.74 3.696 3.696 0 0 1 1.347-.265c.657 0 1.245.114 1.763.341.519.215.955.525 1.309.929.354.392.619.86.796 1.404.19.543.285 1.131.285 1.763 0 .531-.089 1.081-.266 1.65a4.385 4.385 0 0 1-2.237 2.674c-.582.291-1.277.436-2.086.436a5.911 5.911 0 0 1-1.802-.265 4.12 4.12 0 0 1-1.441-.759 3.863 3.863 0 0 1-1.005-1.251c-.241-.506-.373-1.094-.399-1.764h2.162c.063.721.31 1.277.74 1.669.43.379.999.569 1.707.569.455 0 .84-.076 1.156-.228.317-.151.569-.36.759-.626a2.31 2.31 0 0 0 .417-.929c.089-.354.133-.733.133-1.138 0-.366-.051-.714-.152-1.043a2.59 2.59 0 0 0-.455-.891 2.159 2.159 0 0 0-.796-.607c-.316-.152-.689-.227-1.119-.227-.455 0-.885.088-1.29.265-.392.164-.676.48-.853.948h-2.162l1.422-7.263Zm18.2 13.275h-2.049v-1.328h-.038c-.29.569-.714.98-1.27 1.233-.556.24-1.144.36-1.764.36-.771 0-1.447-.132-2.029-.398a4.14 4.14 0 0 1-1.422-1.119 4.739 4.739 0 0 1-.854-1.65 7.307 7.307 0 0 1-.284-2.067c0-.885.12-1.65.36-2.294.24-.645.556-1.176.948-1.593.405-.418.86-.721 1.366-.911a4.302 4.302 0 0 1 1.574-.303c.303 0 .613.032.929.095.316.05.62.139.91.265.291.127.557.291.797.493.253.19.461.418.626.683h.038v-5.007h2.162v13.541Zm-7.548-4.798c0 .417.05.828.151 1.233.114.404.279.765.494 1.081.227.316.512.569.853.758.341.19.746.285 1.214.285.48 0 .891-.101 1.232-.304.354-.202.639-.468.854-.796.227-.329.392-.696.493-1.1a4.8 4.8 0 0 0 .17-1.271c0-1.087-.246-1.934-.739-2.541-.481-.607-1.138-.91-1.972-.91-.506 0-.936.107-1.29.322a2.614 2.614 0 0 0-.853.816 3.558 3.558 0 0 0-.475 1.137 6.238 6.238 0 0 0-.132 1.29Z"/><rect width="88.5" height="25.286" x="107.429" y="508.786" fill="#FFB8A7" rx="12.643"/><path fill="#FB2F00" d="M130.588 525h-1.778l3.237-9.195h2.056l3.242 9.195h-1.778l-2.456-7.309h-.072L130.588 525Zm.058-3.605h4.849v1.338h-4.849v-1.338Zm15.348-2.487h-1.679a2.079 2.079 0 0 0-.265-.732 1.98 1.98 0 0 0-.48-.548 2.01 2.01 0 0 0-.656-.337 2.549 2.549 0 0 0-.786-.116c-.5 0-.942.125-1.329.377-.386.248-.688.613-.907 1.095-.218.479-.327 1.064-.327 1.756 0 .703.109 1.296.327 1.777.222.479.524.842.907 1.087.387.242.828.364 1.325.364.275 0 .533-.036.772-.108.243-.075.46-.184.651-.328a1.995 1.995 0 0 0 .768-1.248l1.679.009a3.607 3.607 0 0 1-.409 1.23 3.618 3.618 0 0 1-.812 1.015c-.335.29-.728.518-1.177.682a4.378 4.378 0 0 1-1.495.243c-.808 0-1.529-.187-2.164-.561-.634-.375-1.134-.915-1.499-1.621-.365-.707-.548-1.554-.548-2.541 0-.991.184-1.838.552-2.542.368-.706.87-1.246 1.504-1.62.635-.374 1.353-.562 2.155-.562.512 0 .988.072 1.428.216.44.144.832.355 1.176.633.345.275.627.614.849 1.015.224.398.371.853.44 1.365Zm1.121-1.707v-1.396h7.336v1.396h-2.842V525h-1.652v-7.799h-2.842Zm10.416-1.396V525h-1.665v-9.195h1.665Zm3.034 0 2.393 7.238h.094l2.389-7.238h1.832L164.031 525h-2.056l-3.237-9.195h1.827Zm7.919 9.195v-9.195h5.98v1.396h-4.315v2.497h4.005v1.396h-4.005v2.51h4.351V525h-6.016Z"/><defs><filter id="a" width="413" height="181.214" x="140.286" y="32.571" color-interpolation-filters="sRGB" filterUnits="userSpaceOnUse"><feFlood flood-opacity="0" result="BackgroundImageFix"/><feColorMatrix in="SourceAlpha" result="hardAlpha" values="0 0 0 0 0 0 0 0 0 0 0 0 0 0 0 0 0 0 127 0"/><feOffset dx="4.214" dy="4.214"/><feGaussianBlur stdDeviation="4.214"/><feColorMatrix values="0 0 0 0 0.411765 0 0 0 0 0.411765 0 0 0 0 0.411765 0 0 0 0.37 0"/><feBlend in2="BackgroundImageFix" result="effect1_dropShadow_150_39"/><feColorMatrix in="SourceAlpha" result="hardAlpha" values="0 0 0 0 0 0 0 0 0 0 0 0 0 0 0 0 0 0 127 0"/><feOffset dx="12.643" dy="8.429"/><feGaussianBlur stdDeviation="8.429"/><feColorMatrix values="0 0 0 0 0.411765 0 0 0 0 0.411765 0 0 0 0 0.411765 0 0 0 0.32 0"/><feBlend in2="effect1_dropShadow_150_39" result="effect2_dropShadow_150_39"/><feColorMatrix in="SourceAlpha" result="hardAlpha" values="0 0 0 0 0 0 0 0 0 0 0 0 0 0 0 0 0 0 127 0"/><feOffset dx="33.714" dy="21.071"/><feGaussianBlur stdDeviation="10.536"/><feColorMatrix values="0 0 0 0 0.411765 0 0 0 0 0.411765 0 0 0 0 0.411765 0 0 0 0.19 0"/><feBlend in2="effect2_dropShadow_150_39" result="effect3_dropShadow_150_39"/><feColorMatrix in="SourceAlpha" result="hardAlpha" values="0 0 0 0 0 0 0 0 0 0 0 0 0 0 0 0 0 0 127 0"/><feOffset dx="54.786" dy="37.929"/><feGaussianBlur stdDeviation="12.643"/><feColorMatrix values="0 0 0 0 0.411765 0 0 0 0 0.411765 0 0 0 0 0.411765 0 0 0 0.06 0"/><feBlend in2="effect3_dropShadow_150_39" result="effect4_dropShadow_150_39"/><feColorMatrix in="SourceAlpha" result="hardAlpha" values="0 0 0 0 0 0 0 0 0 0 0 0 0 0 0 0 0 0 127 0"/><feOffset dx="88.5" dy="59"/><feGaussianBlur stdDeviation="14.75"/><feColorMatrix values="0 0 0 0 0.411765 0 0 0 0 0.411765 0 0 0 0 0.411765 0 0 0 0.01 0"/><feBlend in2="effect4_dropShadow_150_39" result="effect5_dropShadow_150_39"/><feBlend in="SourceGraphic" in2="effect5_dropShadow_150_39" result="shape"/></filter><filter id="c" width="236" height="134.857" x="51.786" y="163.214" color-interpolation-filters="sRGB" filterUnits="userSpaceOnUse"><feFlood flood-opacity="0" result="BackgroundImageFix"/><feColorMatrix in="SourceAlpha" result="hardAlpha" values="0 0 0 0 0 0 0 0 0 0 0 0 0 0 0 0 0 0 127 0"/><feOffset dx="4.214"/><feGaussianBlur stdDeviation="4.214"/><feColorMatrix values="0 0 0 0 0.411765 0 0 0 0 0.411765 0 0 0 0 0.411765 0 0 0 0.05 0"/><feBlend in2="BackgroundImageFix" result="effect1_dropShadow_150_39"/><feColorMatrix in="SourceAlpha" result="hardAlpha" values="0 0 0 0 0 0 0 0 0 0 0 0 0 0 0 0 0 0 127 0"/><feOffset dx="12.643" dy="4.214"/><feGaussianBlur stdDeviation="6.321"/><feColorMatrix values="0 0 0 0 0.411765 0 0 0 0 0.411765 0 0 0 0 0.411765 0 0 0 0.04 0"/><feBlend in2="effect1_dropShadow_150_39" result="effect2_dropShadow_150_39"/><feColorMatrix in="SourceAlpha" result="hardAlpha" values="0 0 0 0 0 0 0 0 0 0 0 0 0 0 0 0 0 0 127 0"/><feOffset dx="25.286" dy="12.643"/><feGaussianBlur stdDeviation="8.429"/><feColorMatrix values="0 0 0 0 0.411765 0 0 0 0 0.411765 0 0 0 0 0.411765 0 0 0 0.03 0"/><feBlend in2="effect2_dropShadow_150_39" result="effect3_dropShadow_150_39"/><feColorMatrix in="SourceAlpha" result="hardAlpha" values="0 0 0 0 0 0 0 0 0 0 0 0 0 0 0 0 0 0 127 0"/><feOffset dx="42.143" dy="21.071"/><feGaussianBlur stdDeviation="10.536"/><feColorMatrix values="0 0 0 0 0.411765 0 0 0 0 0.411765 0 0 0 0 0.411765 0 0 0 0.01 0"/><feBlend in2="effect3_dropShadow_150_39" result="effect4_dropShadow_150_39"/><feBlend in="SourceGraphic" in2="effect4_dropShadow_150_39" result="shape"/></filter><filter id="d" width="236" height="134.857" x="355.214" y="237.857" color-interpolation-filters="sRGB" filterUnits="userSpaceOnUse"><feFlood flood-opacity="0" result="BackgroundImageFix"/><feColorMatrix in="SourceAlpha" result="hardAlpha" values="0 0 0 0 0 0 0 0 0 0 0 0 0 0 0 0 0 0 127 0"/><feOffset dx="4.214"/><feGaussianBlur stdDeviation="4.214"/><feColorMatrix values="0 0 0 0 0.411765 0 0 0 0 0.411765 0 0 0 0 0.411765 0 0 0 0.05 0"/><feBlend in2="BackgroundImageFix" result="effect1_dropShadow_150_39"/><feColorMatrix in="SourceAlpha" result="hardAlpha" values="0 0 0 0 0 0 0 0 0 0 0 0 0 0 0 0 0 0 127 0"/><feOffset dx="12.643" dy="4.214"/><feGaussianBlur stdDeviation="6.321"/><feColorMatrix values="0 0 0 0 0.411765 0 0 0 0 0.411765 0 0 0 0 0.411765 0 0 0 0.04 0"/><feBlend in2="effect1_dropShadow_150_39" result="effect2_dropShadow_150_39"/><feColorMatrix in="SourceAlpha" result="hardAlpha" values="0 0 0 0 0 0 0 0 0 0 0 0 0 0 0 0 0 0 127 0"/><feOffset dx="25.286" dy="12.643"/><feGaussianBlur stdDeviation="8.429"/><feColorMatrix values="0 0 0 0 0.411765 0 0 0 0 0.411765 0 0 0 0 0.411765 0 0 0 0.03 0"/><feBlend in2="effect2_dropShadow_150_39" result="effect3_dropShadow_150_39"/><feColorMatrix in="SourceAlpha" result="hardAlpha" values="0 0 0 0 0 0 0 0 0 0 0 0 0 0 0 0 0 0 127 0"/><feOffset dx="42.143" dy="21.071"/><feGaussianBlur stdDeviation="10.536"/><feColorMatrix values="0 0 0 0 0.411765 0 0 0 0 0.411765 0 0 0 0 0.411765 0 0 0 0.01 0"/><feBlend in2="effect3_dropShadow_150_39" result="effect4_dropShadow_150_39"/><feBlend in="SourceGraphic" in2="effect4_dropShadow_150_39" result="shape"/></filter><filter id="e" width="236" height="134.857" x="51.786" y="306.5" color-interpolation-filters="sRGB" filterUnits="userSpaceOnUse"><feFlood flood-opacity="0" result="BackgroundImageFix"/><feColorMatrix in="SourceAlpha" result="hardAlpha" values="0 0 0 0 0 0 0 0 0 0 0 0 0 0 0 0 0 0 127 0"/><feOffset dx="4.214"/><feGaussianBlur stdDeviation="4.214"/><feColorMatrix values="0 0 0 0 0.411765 0 0 0 0 0.411765 0 0 0 0 0.411765 0 0 0 0.05 0"/><feBlend in2="BackgroundImageFix" result="effect1_dropShadow_150_39"/><feColorMatrix in="SourceAlpha" result="hardAlpha" values="0 0 0 0 0 0 0 0 0 0 0 0 0 0 0 0 0 0 127 0"/><feOffset dx="12.643" dy="4.214"/><feGaussianBlur stdDeviation="6.321"/><feColorMatrix values="0 0 0 0 0.411765 0 0 0 0 0.411765 0 0 0 0 0.411765 0 0 0 0.04 0"/><feBlend in2="effect1_dropShadow_150_39" result="effect2_dropShadow_150_39"/><feColorMatrix in="SourceAlpha" result="hardAlpha" values="0 0 0 0 0 0 0 0 0 0 0 0 0 0 0 0 0 0 127 0"/><feOffset dx="25.286" dy="12.643"/><feGaussianBlur stdDeviation="8.429"/><feColorMatrix values="0 0 0 0 0.411765 0 0 0 0 0.411765 0 0 0 0 0.411765 0 0 0 0.03 0"/><feBlend in2="effect2_dropShadow_150_39" result="effect3_dropShadow_150_39"/><feColorMatrix in="SourceAlpha" result="hardAlpha" values="0 0 0 0 0 0 0 0 0 0 0 0 0 0 0 0 0 0 127 0"/><feOffset dx="42.143" dy="21.071"/><feGaussianBlur stdDeviation="10.536"/><feColorMatrix values="0 0 0 0 0.411765 0 0 0 0 0.411765 0 0 0 0 0.411765 0 0 0 0.01 0"/><feBlend in2="effect3_dropShadow_150_39" result="effect4_dropShadow_150_39"/><feBlend in="SourceGraphic" in2="effect4_dropShadow_150_39" result="shape"/></filter><filter id="f" width="264.429" height="134.571" x="329.786" y="378.571" color-interpolation-filters="sRGB" filterUnits="userSpaceOnUse"><feFlood flood-opacity="0" result="BackgroundImageFix"/><feColorMatrix in="SourceAlpha" result="hardAlpha" values="0 0 0 0 0 0 0 0 0 0 0 0 0 0 0 0 0 0 127 0"/><feOffset dx="4.214"/><feGaussianBlur stdDeviation="4.214"/><feColorMatrix values="0 0 0 0 0.411765 0 0 0 0 0.411765 0 0 0 0 0.411765 0 0 0 0.05 0"/><feBlend in2="BackgroundImageFix" result="effect1_dropShadow_150_39"/><feColorMatrix in="SourceAlpha" result="hardAlpha" values="0 0 0 0 0 0 0 0 0 0 0 0 0 0 0 0 0 0 127 0"/><feOffset dx="12.643" dy="4.214"/><feGaussianBlur stdDeviation="6.321"/><feColorMatrix values="0 0 0 0 0.411765 0 0 0 0 0.411765 0 0 0 0 0.411765 0 0 0 0.04 0"/><feBlend in2="effect1_dropShadow_150_39" result="effect2_dropShadow_150_39"/><feColorMatrix in="SourceAlpha" result="hardAlpha" values="0 0 0 0 0 0 0 0 0 0 0 0 0 0 0 0 0 0 127 0"/><feOffset dx="25.286" dy="12.643"/><feGaussianBlur stdDeviation="8.429"/><feColorMatrix values="0 0 0 0 0.411765 0 0 0 0 0.411765 0 0 0 0 0.411765 0 0 0 0.03 0"/><feBlend in2="effect2_dropShadow_150_39" result="effect3_dropShadow_150_39"/><feColorMatrix in="SourceAlpha" result="hardAlpha" values="0 0 0 0 0 0 0 0 0 0 0 0 0 0 0 0 0 0 127 0"/><feOffset dx="42.143" dy="21.071"/><feGaussianBlur stdDeviation="10.536"/><feColorMatrix values="0 0 0 0 0.411765 0 0 0 0 0.411765 0 0 0 0 0.411765 0 0 0 0.01 0"/><feBlend in2="effect3_dropShadow_150_39" result="effect4_dropShadow_150_39"/><feBlend in="SourceGraphic" in2="effect4_dropShadow_150_39" result="shape"/></filter><filter id="g" width="256.429" height="135.571" x="81.786" y="449.571" color-interpolation-filters="sRGB" filterUnits="userSpaceOnUse"><feFlood flood-opacity="0" result="BackgroundImageFix"/><feColorMatrix in="SourceAlpha" result="hardAlpha" values="0 0 0 0 0 0 0 0 0 0 0 0 0 0 0 0 0 0 127 0"/><feOffset dx="4.214"/><feGaussianBlur stdDeviation="4.214"/><feColorMatrix values="0 0 0 0 0.411765 0 0 0 0 0.411765 0 0 0 0 0.411765 0 0 0 0.05 0"/><feBlend in2="BackgroundImageFix" result="effect1_dropShadow_150_39"/><feColorMatrix in="SourceAlpha" result="hardAlpha" values="0 0 0 0 0 0 0 0 0 0 0 0 0 0 0 0 0 0 127 0"/><feOffset dx="12.643" dy="4.214"/><feGaussianBlur stdDeviation="6.321"/><feColorMatrix values="0 0 0 0 0.411765 0 0 0 0 0.411765 0 0 0 0 0.411765 0 0 0 0.04 0"/><feBlend in2="effect1_dropShadow_150_39" result="effect2_dropShadow_150_39"/><feColorMatrix in="SourceAlpha" result="hardAlpha" values="0 0 0 0 0 0 0 0 0 0 0 0 0 0 0 0 0 0 127 0"/><feOffset dx="25.286" dy="12.643"/><feGaussianBlur stdDeviation="8.429"/><feColorMatrix values="0 0 0 0 0.411765 0 0 0 0 0.411765 0 0 0 0 0.411765 0 0 0 0.03 0"/><feBlend in2="effect2_dropShadow_150_39" result="effect3_dropShadow_150_39"/><feColorMatrix in="SourceAlpha" result="hardAlpha" values="0 0 0 0 0 0 0 0 0 0 0 0 0 0 0 0 0 0 127 0"/><feOffset dx="42.143" dy="21.071"/><feGaussianBlur stdDeviation="10.536"/><feColorMatrix values="0 0 0 0 0.411765 0 0 0 0 0.411765 0 0 0 0 0.411765 0 0 0 0.01 0"/><feBlend in2="effect3_dropShadow_150_39" result="effect4_dropShadow_150_39"/><feBlend in="SourceGraphic" in2="effect4_dropShadow_150_39" result="shape"/></filter><linearGradient id="b" x1="289.893" x2="289.893" y1="41" y2="125.286" gradientUnits="userSpaceOnUse"><stop stop-color="#FF9881"/><stop offset="1" stop-color="#FB3001"/></linearGradient></defs></svg>